<svg width="115" height="124" viewBox="0 0 115 124" fill="none" xmlns="http://www.w3.org/2000/svg">
<path opacity="0.253397" fill-rule="evenodd" clip-rule="evenodd" d="M20.3637 88.6182C20.3637 88.6182 20.9349 85.4632 23.1811 92.8824C25.4272 100.302 50.8262 116.54 59.3282 103.389C67.8303 90.2383 79.8504 104.995 88.1536 101.048C96.4569 97.1017 97.7721 91.8928 91.5831 79.3418C85.3941 66.7908 100.618 51.4969 85.4425 41.6645C70.2668 31.832 82.0152 34.2475 82.0152 34.2475L81.9379 74.3903L61.6238 92.8071L20.3637 88.6182Z" fill="#EFA32B"/>
<path opacity="0.518059" fill-rule="evenodd" clip-rule="evenodd" d="M80.5928 49.5462C80.5928 49.5462 78.8283 49.4435 82.7358 47.6932C86.6433 45.9429 93.8156 30.7466 86.0484 26.9222C78.2811 23.0979 85.5443 15.4258 82.8257 11.0866C80.1071 6.74742 77.1689 6.37144 70.7196 10.6581C64.2703 14.9448 51.8283 3.4955 47.4717 12.584C43.1152 21.6725 50.5153 10.6381 50.5153 10.6381L68.6606 16.3464L80.1045 26.3673L80.5928 49.5462Z" fill="#EFA32B"/>
<path d="M56.8476 62.228C56.8476 63.8047 56.432 65.2667 55.6006 66.614C54.798 67.9327 53.594 69.022 51.9886 69.882C50.412 70.7133 48.5343 71.172 46.3556 71.258V74.741H43.6036V71.215C40.565 70.957 38.114 70.054 36.2506 68.506C34.3873 66.9293 33.3983 64.7937 33.2836 62.099H41.1096C41.2816 63.819 42.113 64.9227 43.6036 65.41V58.616C41.3676 58.0427 39.576 57.4837 38.2286 56.939C36.91 56.3943 35.749 55.52 34.7456 54.316C33.7423 53.112 33.2406 51.4637 33.2406 49.371C33.2406 46.7623 34.201 44.6697 36.1216 43.093C38.071 41.5163 40.565 40.6277 43.6036 40.427V36.944H46.3556V40.427C49.3656 40.6563 51.745 41.5307 53.4936 43.05C55.2423 44.5693 56.217 46.6763 56.4176 49.371H48.5486C48.3766 47.823 47.6456 46.8197 46.3556 46.361V53.026C48.735 53.6853 50.5696 54.273 51.8596 54.789C53.1496 55.305 54.2963 56.165 55.2996 57.369C56.3316 58.5443 56.8476 60.164 56.8476 62.228ZM41.0236 49.027C41.0236 49.7437 41.2386 50.3457 41.6686 50.833C42.1273 51.3203 42.7723 51.7503 43.6036 52.123V46.146C42.801 46.2893 42.1703 46.6047 41.7116 47.092C41.253 47.5507 41.0236 48.1957 41.0236 49.027ZM46.3556 65.539C47.2156 65.3957 47.8893 65.0517 48.3766 64.507C48.8926 63.9623 49.1506 63.2887 49.1506 62.486C49.1506 61.7407 48.907 61.1387 48.4196 60.68C47.961 60.1927 47.273 59.777 46.3556 59.433V65.539Z" fill="white"/>
<circle cx="44.8541" cy="53.8248" r="39.8541" stroke="#F4B999" stroke-width="10"/>
<path d="M42.1566 14.0621C49.2976 13.5777 56.4373 15.0252 62.8257 18.2528C69.2141 21.4803 74.6155 26.3687 78.4624 32.4045C82.3093 38.4403 84.4597 45.4006 84.6879 52.5544C84.916 59.7082 83.2134 66.7914 79.7589 73.06C76.3044 79.3287 71.2255 84.5513 65.0558 88.1793C58.886 91.8074 51.853 93.707 44.6956 93.6785C37.5382 93.6501 30.5206 91.6946 24.3799 88.0176C18.2391 84.3407 13.2019 79.0778 9.79737 72.7819" stroke="#EFA32B" stroke-width="10" stroke-linecap="round"/>
</svg>
