<svg width="156" height="115" viewBox="0 0 156 115" fill="none" xmlns="http://www.w3.org/2000/svg">
<circle cx="66" cy="64" r="51" fill="#291F12"/>
<path d="M106 37L65.2857 78L49 61.6" stroke="#EFA32B" stroke-width="5" stroke-linecap="round" stroke-linejoin="round"/>
<path d="M37.6884 84.2298C37.4195 84.1151 37.2532 83.8414 37.2758 83.5501C37.5933 79.4724 37.0767 78.1878 34.0255 75.4646C33.8078 75.2698 33.7379 74.9576 33.8527 74.6885C33.9674 74.4196 34.2412 74.2537 34.5324 74.2762C38.61 74.5937 39.8946 74.0771 42.6178 71.0258C42.8126 70.8076 43.1249 70.738 43.3941 70.8528C43.6632 70.9676 43.8287 71.241 43.8065 71.5328C43.4891 75.6102 44.0057 76.8948 47.0569 79.6183C47.2746 79.8128 47.3444 80.1253 47.2297 80.3942C47.1149 80.6633 46.8412 80.8289 46.55 80.8067C42.4722 80.4895 41.1878 81.0056 38.4645 84.0571C38.2694 84.2749 37.9572 84.3445 37.6884 84.2298Z" fill="white"/>
<path d="M127 48C128.297 46.3816 132.541 44.1408 136.668 46.1327C140.873 48.1625 142.642 46.3361 144.096 42.2734C146.1 36.6713 152.703 36.9203 154 41.0285" stroke="#EFA32B" stroke-width="3" stroke-linecap="round" stroke-linejoin="round"/>
<path d="M24.5491 18.5608L20.213 13.8946L21.5989 7.67748C21.6761 7.3305 21.5497 6.96967 21.273 6.74693C20.9963 6.5242 20.617 6.47762 20.2944 6.62739L14.5167 9.30922L9.03192 6.06969C8.36735 5.67718 7.53749 6.21883 7.63027 6.98582L8.39526 13.3096L3.61941 17.525C3.04084 18.0359 3.29925 18.993 4.05755 19.1411L10.3082 20.3678C13.068 26.7342 12.8658 26.3697 13.1125 26.5683C13.2634 26.6897 13.4512 26.7636 13.6521 26.7735C14.007 26.7909 14.3412 26.6057 14.5141 26.2953L17.6121 20.7293L23.9532 20.1258C24.7217 20.0531 25.0752 19.1272 24.5491 18.5608Z" fill="#FFA92C"/>
<path d="M11.6007 18.0045L10.8357 11.6806C10.743 10.9145 11.572 10.3717 12.2373 10.7645L17.7221 14.004L20.4733 12.727L21.5989 7.67748C21.6761 7.3305 21.5497 6.96967 21.273 6.74693C20.9963 6.5242 20.617 6.47762 20.2944 6.62738L14.5167 9.30922L9.03192 6.06969C8.36735 5.67718 7.53749 6.21883 7.63027 6.98582L8.39526 13.3096L3.61941 17.525C3.04084 18.0359 3.29925 18.993 4.05755 19.1411L9.17475 20.1453L11.6007 18.0045Z" fill="#FF8828"/>
</svg>
