<svg width="292" height="292" viewBox="0 0 292 292" fill="none" xmlns="http://www.w3.org/2000/svg">
<path d="M292 0H0V292H292V0Z" fill="white"/>
<path d="M18.7332 10.5225H10.5225V18.7333H18.7332V10.5225Z" fill="black"/>
<path d="M26.944 10.5225H18.7332V18.7333H26.944V10.5225Z" fill="black"/>
<path d="M35.1547 10.5225H26.944V18.7333H35.1547V10.5225Z" fill="black"/>
<path d="M43.3655 10.5225H35.1547V18.7333H43.3655V10.5225Z" fill="black"/>
<path d="M51.5762 10.5225H43.3655V18.7333H51.5762V10.5225Z" fill="black"/>
<path d="M59.787 10.5225H51.5762V18.7333H59.787V10.5225Z" fill="black"/>
<path d="M67.9978 10.5225H59.787V18.7333H67.9978V10.5225Z" fill="black"/>
<path d="M84.4193 10.5225H76.2085V18.7333H84.4193V10.5225Z" fill="black"/>
<path d="M125.473 10.5225H117.262V18.7333H125.473V10.5225Z" fill="black"/>
<path d="M133.684 10.5225H125.473V18.7333H133.684V10.5225Z" fill="black"/>
<path d="M158.316 10.5225H150.105V18.7333H158.316V10.5225Z" fill="black"/>
<path d="M191.159 10.5225H182.948V18.7333H191.159V10.5225Z" fill="black"/>
<path d="M215.791 10.5225H207.581V18.7333H215.791V10.5225Z" fill="black"/>
<path d="M232.213 10.5225H224.002V18.7333H232.213V10.5225Z" fill="black"/>
<path d="M240.424 10.5225H232.213V18.7333H240.424V10.5225Z" fill="black"/>
<path d="M248.634 10.5225H240.424V18.7333H248.634V10.5225Z" fill="black"/>
<path d="M256.845 10.5225H248.634V18.7333H256.845V10.5225Z" fill="black"/>
<path d="M265.056 10.5225H256.845V18.7333H265.056V10.5225Z" fill="black"/>
<path d="M273.267 10.5225H265.056V18.7333H273.267V10.5225Z" fill="black"/>
<path d="M281.477 10.5225H273.267V18.7333H281.477V10.5225Z" fill="black"/>
<path d="M18.7332 18.7333H10.5225V26.944H18.7332V18.7333Z" fill="black"/>
<path d="M67.9978 18.7333H59.787V26.944H67.9978V18.7333Z" fill="black"/>
<path d="M100.841 18.7333H92.63V26.944H100.841V18.7333Z" fill="black"/>
<path d="M109.052 18.7333H100.841V26.944H109.052V18.7333Z" fill="black"/>
<path d="M125.473 18.7333H117.262V26.944H125.473V18.7333Z" fill="black"/>
<path d="M133.684 18.7333H125.473V26.944H133.684V18.7333Z" fill="black"/>
<path d="M141.895 18.7333H133.684V26.944H141.895V18.7333Z" fill="black"/>
<path d="M166.527 18.7333H158.316V26.944H166.527V18.7333Z" fill="black"/>
<path d="M174.738 18.7333H166.527V26.944H174.738V18.7333Z" fill="black"/>
<path d="M182.948 18.7333H174.738V26.944H182.948V18.7333Z" fill="black"/>
<path d="M215.791 18.7333H207.581V26.944H215.791V18.7333Z" fill="black"/>
<path d="M232.213 18.7333H224.002V26.944H232.213V18.7333Z" fill="black"/>
<path d="M281.477 18.7333H273.267V26.944H281.477V18.7333Z" fill="black"/>
<path d="M18.7332 26.944H10.5225V35.1548H18.7332V26.944Z" fill="black"/>
<path d="M35.1547 26.944H26.944V35.1548H35.1547V26.944Z" fill="black"/>
<path d="M43.3655 26.944H35.1547V35.1548H43.3655V26.944Z" fill="black"/>
<path d="M51.5762 26.944H43.3655V35.1548H51.5762V26.944Z" fill="black"/>
<path d="M67.9978 26.944H59.787V35.1548H67.9978V26.944Z" fill="black"/>
<path d="M92.63 26.944H84.4193V35.1548H92.63V26.944Z" fill="black"/>
<path d="M109.052 26.944H100.841V35.1548H109.052V26.944Z" fill="black"/>
<path d="M125.473 26.944H117.262V35.1548H125.473V26.944Z" fill="black"/>
<path d="M141.895 26.944H133.684V35.1548H141.895V26.944Z" fill="black"/>
<path d="M158.316 26.944H150.105V35.1548H158.316V26.944Z" fill="black"/>
<path d="M166.527 26.944H158.316V35.1548H166.527V26.944Z" fill="black"/>
<path d="M174.738 26.944H166.527V35.1548H174.738V26.944Z" fill="black"/>
<path d="M182.948 26.944H174.738V35.1548H182.948V26.944Z" fill="black"/>
<path d="M191.159 26.944H182.948V35.1548H191.159V26.944Z" fill="black"/>
<path d="M199.37 26.944H191.159V35.1548H199.37V26.944Z" fill="black"/>
<path d="M232.213 26.944H224.002V35.1548H232.213V26.944Z" fill="black"/>
<path d="M248.634 26.944H240.424V35.1548H248.634V26.944Z" fill="black"/>
<path d="M256.845 26.944H248.634V35.1548H256.845V26.944Z" fill="black"/>
<path d="M265.056 26.944H256.845V35.1548H265.056V26.944Z" fill="black"/>
<path d="M281.477 26.944H273.267V35.1548H281.477V26.944Z" fill="black"/>
<path d="M18.7332 35.1548H10.5225V43.3656H18.7332V35.1548Z" fill="black"/>
<path d="M35.1547 35.1548H26.944V43.3656H35.1547V35.1548Z" fill="black"/>
<path d="M43.3655 35.1548H35.1547V43.3656H43.3655V35.1548Z" fill="black"/>
<path d="M51.5762 35.1548H43.3655V43.3656H51.5762V35.1548Z" fill="black"/>
<path d="M67.9978 35.1548H59.787V43.3656H67.9978V35.1548Z" fill="black"/>
<path d="M117.262 35.1548H109.052V43.3656H117.262V35.1548Z" fill="black"/>
<path d="M125.473 35.1548H117.262V43.3656H125.473V35.1548Z" fill="black"/>
<path d="M174.738 35.1548H166.527L166.527 43.3656H174.738V35.1548Z" fill="black"/>
<path d="M191.159 35.1548H182.948V43.3656H191.159V35.1548Z" fill="black"/>
<path d="M199.37 35.1548H191.159V43.3656H199.37V35.1548Z" fill="black"/>
<path d="M215.791 35.1548H207.581V43.3656H215.791V35.1548Z" fill="black"/>
<path d="M232.213 35.1548H224.002V43.3656H232.213V35.1548Z" fill="black"/>
<path d="M248.634 35.1548H240.424V43.3656H248.634V35.1548Z" fill="black"/>
<path d="M256.845 35.1548H248.634V43.3656H256.845V35.1548Z" fill="black"/>
<path d="M265.056 35.1548H256.845V43.3656H265.056V35.1548Z" fill="black"/>
<path d="M281.477 35.1548H273.267V43.3656H281.477V35.1548Z" fill="black"/>
<path d="M18.7332 43.3656H10.5225V51.5763H18.7332V43.3656Z" fill="black"/>
<path d="M35.1547 43.3656H26.944V51.5763H35.1547V43.3656Z" fill="black"/>
<path d="M43.3655 43.3656H35.1547V51.5763H43.3655V43.3656Z" fill="black"/>
<path d="M51.5762 43.3656H43.3655V51.5763H51.5762V43.3656Z" fill="black"/>
<path d="M67.9978 43.3656H59.787V51.5763H67.9978V43.3656Z" fill="black"/>
<path d="M84.4193 43.3656H76.2085V51.5763H84.4193V43.3656Z" fill="black"/>
<path d="M100.841 43.3656H92.63V51.5763H100.841V43.3656Z" fill="black"/>
<path d="M133.684 43.3656H125.473V51.5763H133.684V43.3656Z" fill="black"/>
<path d="M150.105 43.3656H141.895V51.5763H150.105V43.3656Z" fill="black"/>
<path d="M166.527 43.3656H158.316V51.5763H166.527L166.527 43.3656Z" fill="black"/>
<path d="M182.948 43.3656H174.738V51.5763H182.948V43.3656Z" fill="black"/>
<path d="M215.791 43.3656H207.581V51.5763H215.791V43.3656Z" fill="black"/>
<path d="M232.213 43.3656H224.002V51.5763H232.213V43.3656Z" fill="black"/>
<path d="M248.634 43.3656H240.424V51.5763H248.634V43.3656Z" fill="black"/>
<path d="M256.845 43.3656H248.634V51.5763H256.845V43.3656Z" fill="black"/>
<path d="M265.056 43.3656H256.845V51.5763H265.056V43.3656Z" fill="black"/>
<path d="M281.477 43.3656H273.267V51.5763H281.477V43.3656Z" fill="black"/>
<path d="M18.7332 51.5763H10.5225V59.7871H18.7332V51.5763Z" fill="black"/>
<path d="M67.9978 51.5763H59.787V59.7871H67.9978V51.5763Z" fill="black"/>
<path d="M100.841 51.5763H92.63V59.7871H100.841V51.5763Z" fill="black"/>
<path d="M117.262 51.5763H109.052V59.7871H117.262V51.5763Z" fill="black"/>
<path d="M150.105 51.5763H141.895V59.7871H150.105V51.5763Z" fill="black"/>
<path d="M166.527 51.5763H158.316V59.7871H166.527V51.5763Z" fill="black"/>
<path d="M182.948 51.5763H174.738V59.7871H182.948V51.5763Z" fill="black"/>
<path d="M191.159 51.5763H182.948V59.7871H191.159V51.5763Z" fill="black"/>
<path d="M199.37 51.5763H191.159V59.7871H199.37V51.5763Z" fill="black"/>
<path d="M232.213 51.5763H224.002V59.7871H232.213V51.5763Z" fill="black"/>
<path d="M281.477 51.5763H273.267V59.7871H281.477V51.5763Z" fill="black"/>
<path d="M18.7332 59.7871H10.5225V67.9978H18.7332V59.7871Z" fill="black"/>
<path d="M26.944 59.7871H18.7332V67.9978H26.944V59.7871Z" fill="black"/>
<path d="M35.1547 59.7871H26.944V67.9978H35.1547V59.7871Z" fill="black"/>
<path d="M43.3655 59.7871H35.1547V67.9978H43.3655V59.7871Z" fill="black"/>
<path d="M51.5762 59.7871H43.3655V67.9978H51.5762V59.7871Z" fill="black"/>
<path d="M59.787 59.7871H51.5762V67.9978H59.787V59.7871Z" fill="black"/>
<path d="M67.9978 59.7871H59.787V67.9978H67.9978V59.7871Z" fill="black"/>
<path d="M84.4193 59.7871H76.2085V67.9978H84.4193V59.7871Z" fill="black"/>
<path d="M100.841 59.7871H92.63V67.9978H100.841V59.7871Z" fill="black"/>
<path d="M117.262 59.7871H109.052V67.9978H117.262V59.7871Z" fill="black"/>
<path d="M133.684 59.7871H125.473V67.9978H133.684V59.7871Z" fill="black"/>
<path d="M150.105 59.7871H141.895V67.9978H150.105V59.7871Z" fill="black"/>
<path d="M166.527 59.7871H158.316V67.9978H166.527V59.7871Z" fill="black"/>
<path d="M182.948 59.7871H174.738V67.9978H182.948V59.7871Z" fill="black"/>
<path d="M199.37 59.7871H191.159V67.9978H199.37V59.7871Z" fill="black"/>
<path d="M215.791 59.7871H207.581V67.9978H215.791V59.7871Z" fill="black"/>
<path d="M232.213 59.7871H224.002V67.9978H232.213V59.7871Z" fill="black"/>
<path d="M240.424 59.7871H232.213V67.9978H240.424V59.7871Z" fill="black"/>
<path d="M248.634 59.7871H240.424V67.9978H248.634V59.7871Z" fill="black"/>
<path d="M256.845 59.7871H248.634V67.9978H256.845V59.7871Z" fill="black"/>
<path d="M265.056 59.7871H256.845V67.9978H265.056V59.7871Z" fill="black"/>
<path d="M273.267 59.7871H265.056V67.9978H273.267V59.7871Z" fill="black"/>
<path d="M281.477 59.7871H273.267V67.9978H281.477V59.7871Z" fill="black"/>
<path d="M84.4193 67.9978H76.2085V76.2086H84.4193V67.9978Z" fill="black"/>
<path d="M100.841 67.9978H92.63V76.2086H100.841V67.9978Z" fill="black"/>
<path d="M109.052 67.9978H100.841V76.2086H109.052V67.9978Z" fill="black"/>
<path d="M133.684 67.9978H125.473V76.2086H133.684V67.9978Z" fill="black"/>
<path d="M158.316 67.9978H150.105V76.2086H158.316V67.9978Z" fill="black"/>
<path d="M182.948 67.9978H174.738V76.2086H182.948V67.9978Z" fill="black"/>
<path d="M199.37 67.9978H191.159V76.2086H199.37V67.9978Z" fill="black"/>
<path d="M207.581 67.9978H199.37V76.2086H207.581V67.9978Z" fill="black"/>
<path d="M18.7332 76.2086H10.5225V84.4193H18.7332V76.2086Z" fill="black"/>
<path d="M43.3655 76.2086H35.1547V84.4193H43.3655V76.2086Z" fill="black"/>
<path d="M51.5762 76.2086H43.3655V84.4193H51.5762V76.2086Z" fill="black"/>
<path d="M59.787 76.2086H51.5762V84.4193H59.787V76.2086Z" fill="black"/>
<path d="M67.9978 76.2086H59.787V84.4193H67.9978V76.2086Z" fill="black"/>
<path d="M76.2085 76.2086H67.9978V84.4193H76.2085V76.2086Z" fill="black"/>
<path d="M84.4193 76.2086H76.2085V84.4193H84.4193V76.2086Z" fill="black"/>
<path d="M92.63 76.2086H84.4193V84.4193H92.63V76.2086Z" fill="black"/>
<path d="M109.052 76.2086H100.841V84.4193H109.052V76.2086Z" fill="black"/>
<path d="M117.262 76.2086H109.052V84.4193H117.262V76.2086Z" fill="black"/>
<path d="M125.473 76.2086H117.262V84.4193H125.473V76.2086Z" fill="black"/>
<path d="M141.895 76.2086H133.684V84.4193H141.895V76.2086Z" fill="black"/>
<path d="M158.316 76.2086H150.105V84.4193H158.316V76.2086Z" fill="black"/>
<path d="M174.738 76.2086H166.527V84.4193H174.738V76.2086Z" fill="black"/>
<path d="M182.948 76.2086H174.738V84.4193H182.948V76.2086Z" fill="black"/>
<path d="M207.581 76.2086H199.37V84.4193H207.581V76.2086Z" fill="black"/>
<path d="M215.791 76.2086H207.581V84.4193H215.791V76.2086Z" fill="black"/>
<path d="M224.002 76.2086H215.791V84.4193H224.002V76.2086Z" fill="black"/>
<path d="M232.213 76.2086H224.002V84.4193H232.213V76.2086Z" fill="black"/>
<path d="M248.634 76.2086H240.424V84.4193H248.634V76.2086Z" fill="black"/>
<path d="M281.477 76.2086H273.267V84.4193H281.477V76.2086Z" fill="black"/>
<path d="M26.944 84.4193H18.7332V92.6301H26.944V84.4193Z" fill="black"/>
<path d="M35.1547 84.4193H26.944V92.6301H35.1547V84.4193Z" fill="black"/>
<path d="M51.5762 84.4193H43.3655V92.6301H51.5762V84.4193Z" fill="black"/>
<path d="M59.787 84.4193H51.5762V92.6301H59.787V84.4193Z" fill="black"/>
<path d="M76.2085 84.4193H67.9978V92.6301H76.2085V84.4193Z" fill="black"/>
<path d="M84.4193 84.4193H76.2085V92.6301H84.4193V84.4193Z" fill="black"/>
<path d="M92.63 84.4193H84.4193V92.6301H92.63V84.4193Z" fill="black"/>
<path d="M133.684 84.4193H125.473V92.6301H133.684V84.4193Z" fill="black"/>
<path d="M141.895 84.4193H133.684V92.6301H141.895V84.4193Z" fill="black"/>
<path d="M150.105 84.4193H141.895V92.6301H150.105V84.4193Z" fill="black"/>
<path d="M158.316 84.4193H150.105V92.6301H158.316V84.4193Z" fill="black"/>
<path d="M166.527 84.4193H158.316V92.6301H166.527L166.527 84.4193Z" fill="black"/>
<path d="M182.948 84.4193H174.738V92.6301H182.948V84.4193Z" fill="black"/>
<path d="M191.159 84.4193H182.948V92.6301H191.159V84.4193Z" fill="black"/>
<path d="M240.424 84.4193H232.213V92.6301H240.424V84.4193Z" fill="black"/>
<path d="M248.634 84.4193H240.424V92.6301H248.634V84.4193Z" fill="black"/>
<path d="M265.056 84.4193H256.845V92.6301H265.056V84.4193Z" fill="black"/>
<path d="M281.477 84.4193H273.267V92.6301H281.477V84.4193Z" fill="black"/>
<path d="M43.3655 92.6301H35.1547V100.841H43.3655V92.6301Z" fill="black"/>
<path d="M67.9978 92.6301H59.787V100.841H67.9978V92.6301Z" fill="black"/>
<path d="M84.4193 92.6301H76.2085V100.841H84.4193V92.6301Z" fill="black"/>
<path d="M100.841 92.6301H92.63V100.841H100.841V92.6301Z" fill="black"/>
<path d="M141.895 92.6301H133.684V100.841H141.895V92.6301Z" fill="black"/>
<path d="M150.105 92.6301H141.895V100.841H150.105V92.6301Z" fill="black"/>
<path d="M166.527 92.6301H158.316V100.841H166.527V92.6301Z" fill="black"/>
<path d="M174.738 92.6301H166.527V100.841H174.738V92.6301Z" fill="black"/>
<path d="M191.159 92.6301H182.948V100.841H191.159V92.6301Z" fill="black"/>
<path d="M199.37 92.6301H191.159V100.841H199.37V92.6301Z" fill="black"/>
<path d="M207.581 92.6301H199.37V100.841H207.581V92.6301Z" fill="black"/>
<path d="M215.791 92.6301H207.581V100.841H215.791V92.6301Z" fill="black"/>
<path d="M232.213 92.6301H224.002V100.841H232.213V92.6301Z" fill="black"/>
<path d="M256.845 92.6301H248.634V100.841H256.845V92.6301Z" fill="black"/>
<path d="M273.267 92.6301H265.056V100.841H273.267V92.6301Z" fill="black"/>
<path d="M281.477 92.6301H273.267V100.841H281.477V92.6301Z" fill="black"/>
<path d="M18.7332 100.841H10.5225V109.052H18.7332V100.841Z" fill="black"/>
<path d="M43.3655 100.841H35.1547V109.052H43.3655V100.841Z" fill="black"/>
<path d="M51.5762 100.841H43.3655V109.052H51.5762V100.841Z" fill="black"/>
<path d="M59.787 100.841H51.5762V109.052H59.787V100.841Z" fill="black"/>
<path d="M76.2085 100.841H67.9978V109.052H76.2085V100.841Z" fill="black"/>
<path d="M84.4193 100.841H76.2085V109.052H84.4193V100.841Z" fill="black"/>
<path d="M100.841 100.841H92.63V109.052H100.841V100.841Z" fill="black"/>
<path d="M117.262 100.841H109.052V109.052H117.262V100.841Z" fill="black"/>
<path d="M125.473 100.841H117.262V109.052H125.473V100.841Z" fill="black"/>
<path d="M141.895 100.841H133.684V109.052H141.895V100.841Z" fill="black"/>
<path d="M150.105 100.841H141.895V109.052H150.105V100.841Z" fill="black"/>
<path d="M166.527 100.841H158.316V109.052H166.527V100.841Z" fill="black"/>
<path d="M207.581 100.841H199.37V109.052H207.581V100.841Z" fill="black"/>
<path d="M224.002 100.841H215.791V109.052H224.002V100.841Z" fill="black"/>
<path d="M232.213 100.841H224.002V109.052H232.213V100.841Z" fill="black"/>
<path d="M248.634 100.841H240.424V109.052H248.634V100.841Z" fill="black"/>
<path d="M273.267 100.841H265.056V109.052H273.267V100.841Z" fill="black"/>
<path d="M18.7332 109.052H10.5225V117.262H18.7332V109.052Z" fill="black"/>
<path d="M43.3655 109.052H35.1547V117.262H43.3655V109.052Z" fill="black"/>
<path d="M67.9978 109.052H59.787V117.262H67.9978V109.052Z" fill="black"/>
<path d="M84.4193 109.052H76.2085V117.262H84.4193V109.052Z" fill="black"/>
<path d="M100.841 109.052H92.63V117.262H100.841V109.052Z" fill="black"/>
<path d="M117.262 109.052H109.052V117.262H117.262V109.052Z" fill="black"/>
<path d="M125.473 109.052H117.262V117.262H125.473V109.052Z" fill="black"/>
<path d="M133.684 109.052H125.473V117.262H133.684V109.052Z" fill="black"/>
<path d="M158.316 109.052H150.105V117.262H158.316V109.052Z" fill="black"/>
<path d="M166.527 109.052H158.316V117.262H166.527V109.052Z" fill="black"/>
<path d="M174.738 109.052H166.527V117.262H174.738V109.052Z" fill="black"/>
<path d="M215.791 109.052H207.581V117.262H215.791V109.052Z" fill="black"/>
<path d="M224.002 109.052H215.791V117.262H224.002V109.052Z" fill="black"/>
<path d="M232.213 109.052H224.002V117.262H232.213V109.052Z" fill="black"/>
<path d="M240.424 109.052H232.213V117.262H240.424V109.052Z" fill="black"/>
<path d="M248.634 109.052H240.424V117.262H248.634V109.052Z" fill="black"/>
<path d="M256.845 109.052H248.634V117.262H256.845V109.052Z" fill="black"/>
<path d="M273.267 109.052H265.056V117.262H273.267V109.052Z" fill="black"/>
<path d="M35.1547 117.262H26.944V125.473H35.1547V117.262Z" fill="black"/>
<path d="M51.5762 117.262H43.3655V125.473H51.5762V117.262Z" fill="black"/>
<path d="M59.787 117.262H51.5762V125.473H59.787V117.262Z" fill="black"/>
<path d="M92.63 117.262H84.4193V125.473H92.63V117.262Z" fill="black"/>
<path d="M117.262 117.262H109.052V125.473H117.262V117.262Z" fill="black"/>
<path d="M125.473 117.262H117.262V125.473H125.473V117.262Z" fill="black"/>
<path d="M133.684 117.262H125.473V125.473H133.684V117.262Z" fill="black"/>
<path d="M141.895 117.262H133.684V125.473H141.895V117.262Z" fill="black"/>
<path d="M150.105 117.262H141.895V125.473H150.105V117.262Z" fill="black"/>
<path d="M158.316 117.262H150.105V125.473H158.316V117.262Z" fill="black"/>
<path d="M166.527 117.262H158.316V125.473H166.527V117.262Z" fill="black"/>
<path d="M174.738 117.262H166.527V125.473H174.738V117.262Z" fill="black"/>
<path d="M182.948 117.262H174.738V125.473H182.948V117.262Z" fill="black"/>
<path d="M199.37 117.262H191.159V125.473H199.37V117.262Z" fill="black"/>
<path d="M207.581 117.262H199.37V125.473H207.581V117.262Z" fill="black"/>
<path d="M215.791 117.262H207.581V125.473H215.791V117.262Z" fill="black"/>
<path d="M265.056 117.262H256.845V125.473H265.056V117.262Z" fill="black"/>
<path d="M18.7332 125.473H10.5225V133.684H18.7332V125.473Z" fill="black"/>
<path d="M43.3655 125.473H35.1547V133.684H43.3655V125.473Z" fill="black"/>
<path d="M51.5762 125.473H43.3655V133.684H51.5762V125.473Z" fill="black"/>
<path d="M67.9978 125.473H59.787V133.684H67.9978V125.473Z" fill="black"/>
<path d="M92.63 125.473H84.4193V133.684H92.63V125.473Z" fill="black"/>
<path d="M109.052 125.473H100.841V133.684H109.052V125.473Z" fill="black"/>
<path d="M117.262 125.473H109.052V133.684H117.262V125.473Z" fill="black"/>
<path d="M141.895 125.473H133.684V133.684H141.895V125.473Z" fill="black"/>
<path d="M166.527 125.473H158.316V133.684H166.527V125.473Z" fill="black"/>
<path d="M191.159 125.473H182.948V133.684H191.159V125.473Z" fill="black"/>
<path d="M215.791 125.473H207.581V133.684H215.791V125.473Z" fill="black"/>
<path d="M240.424 125.473H232.213V133.684H240.424V125.473Z" fill="black"/>
<path d="M248.634 125.473H240.424V133.684H248.634V125.473Z" fill="black"/>
<path d="M265.056 125.473H256.845V133.684H265.056V125.473Z" fill="black"/>
<path d="M18.7332 133.684H10.5225V141.895H18.7332V133.684Z" fill="black"/>
<path d="M76.2085 133.684H67.9978V141.895H76.2085V133.684Z" fill="black"/>
<path d="M92.63 133.684H84.4193V141.895H92.63V133.684Z" fill="black"/>
<path d="M100.841 133.684H92.63V141.895H100.841V133.684Z" fill="black"/>
<path d="M109.052 133.684H100.841V141.895H109.052V133.684Z" fill="black"/>
<path d="M150.105 133.684H141.895V141.895H150.105V133.684Z" fill="black"/>
<path d="M158.316 133.684H150.105V141.895H158.316V133.684Z" fill="black"/>
<path d="M166.527 133.684H158.316V141.895H166.527V133.684Z" fill="black"/>
<path d="M174.738 133.684H166.527V141.895H174.738V133.684Z" fill="black"/>
<path d="M199.37 133.684H191.159V141.895H199.37V133.684Z" fill="black"/>
<path d="M207.581 133.684H199.37V141.895H207.581V133.684Z" fill="black"/>
<path d="M224.002 133.684H215.791V141.895H224.002V133.684Z" fill="black"/>
<path d="M232.213 133.684H224.002V141.895H232.213V133.684Z" fill="black"/>
<path d="M240.424 133.684H232.213V141.895H240.424V133.684Z" fill="black"/>
<path d="M248.634 133.684H240.424V141.895H248.634V133.684Z" fill="black"/>
<path d="M281.477 133.684H273.267V141.895H281.477V133.684Z" fill="black"/>
<path d="M18.7332 141.895H10.5225V150.105H18.7332V141.895Z" fill="black"/>
<path d="M35.1547 141.895H26.944V150.105H35.1547V141.895Z" fill="black"/>
<path d="M59.787 141.895H51.5762V150.105H59.787V141.895Z" fill="black"/>
<path d="M67.9978 141.895H59.787V150.105H67.9978V141.895Z" fill="black"/>
<path d="M76.2085 141.895H67.9978V150.105H76.2085V141.895Z" fill="black"/>
<path d="M92.63 141.895H84.4193V150.105H92.63V141.895Z" fill="black"/>
<path d="M109.052 141.895H100.841V150.105H109.052V141.895Z" fill="black"/>
<path d="M125.473 141.895H117.262V150.105H125.473V141.895Z" fill="black"/>
<path d="M133.684 141.895H125.473V150.105H133.684V141.895Z" fill="black"/>
<path d="M158.316 141.895H150.105V150.105H158.316V141.895Z" fill="black"/>
<path d="M182.948 141.895H174.738V150.105H182.948V141.895Z" fill="black"/>
<path d="M207.581 141.895H199.37V150.105H207.581V141.895Z" fill="black"/>
<path d="M215.791 141.895H207.581V150.105H215.791V141.895Z" fill="black"/>
<path d="M224.002 141.895H215.791V150.105H224.002V141.895Z" fill="black"/>
<path d="M232.213 141.895H224.002V150.105H232.213V141.895Z" fill="black"/>
<path d="M240.424 141.895H232.213V150.105H240.424V141.895Z" fill="black"/>
<path d="M256.845 141.895H248.634V150.105H256.845V141.895Z" fill="black"/>
<path d="M265.056 141.895H256.845V150.105H265.056V141.895Z" fill="black"/>
<path d="M281.477 141.895H273.267V150.105H281.477V141.895Z" fill="black"/>
<path d="M18.7332 150.105H10.5225V158.316H18.7332V150.105Z" fill="black"/>
<path d="M26.944 150.105H18.7332V158.316H26.944V150.105Z" fill="black"/>
<path d="M43.3655 150.105H35.1547V158.316H43.3655V150.105Z" fill="black"/>
<path d="M51.5762 150.105H43.3655V158.316H51.5762V150.105Z" fill="black"/>
<path d="M76.2085 150.105H67.9978V158.316H76.2085V150.105Z" fill="black"/>
<path d="M84.4193 150.105H76.2085V158.316H84.4193V150.105Z" fill="black"/>
<path d="M100.841 150.105H92.63V158.316H100.841V150.105Z" fill="black"/>
<path d="M109.052 150.105H100.841V158.316H109.052V150.105Z" fill="black"/>
<path d="M133.684 150.105H125.473V158.316H133.684V150.105Z" fill="black"/>
<path d="M141.895 150.105H133.684V158.316H141.895V150.105Z" fill="black"/>
<path d="M150.105 150.105H141.895V158.316H150.105V150.105Z" fill="black"/>
<path d="M158.316 150.105H150.105V158.316H158.316V150.105Z" fill="black"/>
<path d="M199.37 150.105H191.159V158.316H199.37V150.105Z" fill="black"/>
<path d="M207.581 150.105H199.37V158.316H207.581V150.105Z" fill="black"/>
<path d="M215.791 150.105H207.581V158.316H215.791V150.105Z" fill="black"/>
<path d="M232.213 150.105H224.002V158.316H232.213V150.105Z" fill="black"/>
<path d="M240.424 150.105H232.213V158.316H240.424V150.105Z" fill="black"/>
<path d="M273.267 150.105H265.056V158.316H273.267V150.105Z" fill="black"/>
<path d="M281.477 150.105H273.267V158.316H281.477V150.105Z" fill="black"/>
<path d="M18.7332 158.316H10.5225V166.527H18.7332V158.316Z" fill="black"/>
<path d="M43.3655 158.316H35.1547V166.527H43.3655V158.316Z" fill="black"/>
<path d="M51.5762 158.316H43.3655V166.527H51.5762V158.316Z" fill="black"/>
<path d="M59.787 158.316H51.5762V166.527H59.787V158.316Z" fill="black"/>
<path d="M67.9978 158.316H59.787V166.527H67.9978V158.316Z" fill="black"/>
<path d="M84.4193 158.316H76.2085V166.527H84.4193V158.316Z" fill="black"/>
<path d="M109.052 158.316H100.841V166.527H109.052V158.316Z" fill="black"/>
<path d="M117.262 158.316H109.052V166.527H117.262V158.316Z" fill="black"/>
<path d="M166.527 158.316H158.316V166.527H166.527V158.316Z" fill="black"/>
<path d="M191.159 158.316H182.948V166.527H191.159V158.316Z" fill="black"/>
<path d="M240.424 158.316H232.213V166.527H240.424V158.316Z" fill="black"/>
<path d="M248.634 158.316H240.424V166.527H248.634V158.316Z" fill="black"/>
<path d="M265.056 158.316H256.845V166.527H265.056V158.316Z" fill="black"/>
<path d="M281.477 158.316H273.267V166.527H281.477V158.316Z" fill="black"/>
<path d="M26.944 166.527L18.7332 166.527V174.738H26.944V166.527Z" fill="black"/>
<path d="M35.1547 166.527L26.944 166.527V174.738H35.1547V166.527Z" fill="black"/>
<path d="M43.3655 166.527H35.1547V174.738H43.3655V166.527Z" fill="black"/>
<path d="M51.5762 166.527H43.3655V174.738H51.5762V166.527Z" fill="black"/>
<path d="M59.787 166.527H51.5762V174.738H59.787V166.527Z" fill="black"/>
<path d="M84.4193 166.527H76.2085V174.738H84.4193V166.527Z" fill="black"/>
<path d="M117.262 166.527H109.052V174.738H117.262V166.527Z" fill="black"/>
<path d="M125.473 166.527L117.262 166.527V174.738H125.473V166.527Z" fill="black"/>
<path d="M133.684 166.527H125.473V174.738H133.684V166.527Z" fill="black"/>
<path d="M141.895 166.527H133.684V174.738H141.895V166.527Z" fill="black"/>
<path d="M174.738 166.527L166.527 166.527L166.527 174.738H174.738V166.527Z" fill="black"/>
<path d="M191.159 166.527H182.948V174.738H191.159V166.527Z" fill="black"/>
<path d="M215.791 166.527H207.581V174.738H215.791V166.527Z" fill="black"/>
<path d="M240.424 166.527H232.213V174.738H240.424V166.527Z" fill="black"/>
<path d="M248.634 166.527H240.424V174.738H248.634V166.527Z" fill="black"/>
<path d="M256.845 166.527H248.634V174.738H256.845V166.527Z" fill="black"/>
<path d="M265.056 166.527H256.845V174.738H265.056V166.527Z" fill="black"/>
<path d="M273.267 166.527H265.056V174.738H273.267V166.527Z" fill="black"/>
<path d="M26.944 174.738H18.7332V182.948H26.944V174.738Z" fill="black"/>
<path d="M43.3655 174.738H35.1547V182.948H43.3655V174.738Z" fill="black"/>
<path d="M51.5762 174.738H43.3655V182.948H51.5762V174.738Z" fill="black"/>
<path d="M67.9978 174.738H59.787V182.948H67.9978V174.738Z" fill="black"/>
<path d="M84.4193 174.738H76.2085V182.948H84.4193V174.738Z" fill="black"/>
<path d="M109.052 174.738H100.841V182.948H109.052V174.738Z" fill="black"/>
<path d="M117.262 174.738H109.052V182.948H117.262V174.738Z" fill="black"/>
<path d="M141.895 174.738H133.684V182.948H141.895V174.738Z" fill="black"/>
<path d="M191.159 174.738H182.948V182.948H191.159V174.738Z" fill="black"/>
<path d="M199.37 174.738H191.159V182.948H199.37V174.738Z" fill="black"/>
<path d="M232.213 174.738H224.002V182.948H232.213V174.738Z" fill="black"/>
<path d="M248.634 174.738H240.424V182.948H248.634V174.738Z" fill="black"/>
<path d="M273.267 174.738H265.056V182.948H273.267V174.738Z" fill="black"/>
<path d="M18.7332 182.948H10.5225V191.159H18.7332V182.948Z" fill="black"/>
<path d="M26.944 182.948H18.7332V191.159H26.944V182.948Z" fill="black"/>
<path d="M43.3655 182.948H35.1547V191.159H43.3655V182.948Z" fill="black"/>
<path d="M51.5762 182.948H43.3655V191.159H51.5762V182.948Z" fill="black"/>
<path d="M59.787 182.948H51.5762V191.159H59.787V182.948Z" fill="black"/>
<path d="M76.2085 182.948H67.9978V191.159H76.2085V182.948Z" fill="black"/>
<path d="M84.4193 182.948H76.2085V191.159H84.4193V182.948Z" fill="black"/>
<path d="M100.841 182.948H92.63V191.159H100.841V182.948Z" fill="black"/>
<path d="M109.052 182.948H100.841V191.159H109.052V182.948Z" fill="black"/>
<path d="M141.895 182.948H133.684V191.159H141.895V182.948Z" fill="black"/>
<path d="M150.105 182.948H141.895V191.159H150.105V182.948Z" fill="black"/>
<path d="M158.316 182.948H150.105V191.159H158.316V182.948Z" fill="black"/>
<path d="M207.581 182.948H199.37V191.159H207.581V182.948Z" fill="black"/>
<path d="M215.791 182.948H207.581V191.159H215.791V182.948Z" fill="black"/>
<path d="M232.213 182.948H224.002V191.159H232.213V182.948Z" fill="black"/>
<path d="M240.424 182.948H232.213V191.159H240.424V182.948Z" fill="black"/>
<path d="M273.267 182.948H265.056V191.159H273.267V182.948Z" fill="black"/>
<path d="M281.477 182.948H273.267V191.159H281.477V182.948Z" fill="black"/>
<path d="M26.944 191.159H18.7332V199.37H26.944V191.159Z" fill="black"/>
<path d="M35.1547 191.159H26.944V199.37H35.1547V191.159Z" fill="black"/>
<path d="M67.9978 191.159H59.787V199.37H67.9978V191.159Z" fill="black"/>
<path d="M92.63 191.159H84.4193V199.37H92.63V191.159Z" fill="black"/>
<path d="M100.841 191.159H92.63V199.37H100.841V191.159Z" fill="black"/>
<path d="M125.473 191.159H117.262V199.37H125.473V191.159Z" fill="black"/>
<path d="M133.684 191.159H125.473V199.37H133.684V191.159Z" fill="black"/>
<path d="M141.895 191.159H133.684V199.37H141.895V191.159Z" fill="black"/>
<path d="M150.105 191.159H141.895V199.37H150.105V191.159Z" fill="black"/>
<path d="M158.316 191.159H150.105V199.37H158.316V191.159Z" fill="black"/>
<path d="M174.738 191.159H166.527V199.37H174.738V191.159Z" fill="black"/>
<path d="M182.948 191.159H174.738V199.37H182.948V191.159Z" fill="black"/>
<path d="M199.37 191.159H191.159V199.37H199.37V191.159Z" fill="black"/>
<path d="M215.791 191.159H207.581V199.37H215.791V191.159Z" fill="black"/>
<path d="M224.002 191.159H215.791V199.37H224.002V191.159Z" fill="black"/>
<path d="M232.213 191.159H224.002V199.37H232.213V191.159Z" fill="black"/>
<path d="M256.845 191.159H248.634V199.37H256.845V191.159Z" fill="black"/>
<path d="M265.056 191.159H256.845V199.37H265.056V191.159Z" fill="black"/>
<path d="M273.267 191.159H265.056V199.37H273.267V191.159Z" fill="black"/>
<path d="M281.477 191.159H273.267V199.37H281.477V191.159Z" fill="black"/>
<path d="M18.7332 199.37H10.5225V207.581H18.7332V199.37Z" fill="black"/>
<path d="M35.1547 199.37H26.944V207.581H35.1547V199.37Z" fill="black"/>
<path d="M43.3655 199.37H35.1547V207.581H43.3655V199.37Z" fill="black"/>
<path d="M76.2085 199.37H67.9978V207.581H76.2085V199.37Z" fill="black"/>
<path d="M92.63 199.37H84.4193V207.581H92.63V199.37Z" fill="black"/>
<path d="M100.841 199.37H92.63V207.581H100.841V199.37Z" fill="black"/>
<path d="M150.105 199.37H141.895V207.581H150.105V199.37Z" fill="black"/>
<path d="M158.316 199.37H150.105V207.581H158.316V199.37Z" fill="black"/>
<path d="M166.527 199.37H158.316V207.581H166.527L166.527 199.37Z" fill="black"/>
<path d="M199.37 199.37H191.159V207.581H199.37V199.37Z" fill="black"/>
<path d="M207.581 199.37H199.37V207.581H207.581V199.37Z" fill="black"/>
<path d="M215.791 199.37H207.581V207.581H215.791V199.37Z" fill="black"/>
<path d="M224.002 199.37H215.791V207.581H224.002V199.37Z" fill="black"/>
<path d="M240.424 199.37H232.213V207.581H240.424V199.37Z" fill="black"/>
<path d="M273.267 199.37H265.056V207.581H273.267V199.37Z" fill="black"/>
<path d="M281.477 199.37H273.267V207.581H281.477V199.37Z" fill="black"/>
<path d="M43.3655 207.581H35.1547V215.791H43.3655V207.581Z" fill="black"/>
<path d="M51.5762 207.581H43.3655V215.791H51.5762V207.581Z" fill="black"/>
<path d="M67.9978 207.581H59.787V215.791H67.9978V207.581Z" fill="black"/>
<path d="M109.052 207.581H100.841V215.791H109.052V207.581Z" fill="black"/>
<path d="M117.262 207.581H109.052V215.791H117.262V207.581Z" fill="black"/>
<path d="M141.895 207.581H133.684V215.791H141.895V207.581Z" fill="black"/>
<path d="M166.527 207.581H158.316V215.791H166.527V207.581Z" fill="black"/>
<path d="M174.738 207.581H166.527V215.791H174.738V207.581Z" fill="black"/>
<path d="M182.948 207.581H174.738V215.791H182.948V207.581Z" fill="black"/>
<path d="M191.159 207.581H182.948V215.791H191.159V207.581Z" fill="black"/>
<path d="M207.581 207.581H199.37V215.791H207.581V207.581Z" fill="black"/>
<path d="M215.791 207.581H207.581V215.791H215.791V207.581Z" fill="black"/>
<path d="M224.002 207.581H215.791V215.791H224.002V207.581Z" fill="black"/>
<path d="M232.213 207.581H224.002V215.791H232.213V207.581Z" fill="black"/>
<path d="M240.424 207.581H232.213V215.791H240.424V207.581Z" fill="black"/>
<path d="M248.634 207.581H240.424V215.791H248.634V207.581Z" fill="black"/>
<path d="M273.267 207.581H265.056V215.791H273.267V207.581Z" fill="black"/>
<path d="M281.477 207.581H273.267V215.791H281.477V207.581Z" fill="black"/>
<path d="M84.4193 215.791H76.2085V224.002H84.4193V215.791Z" fill="black"/>
<path d="M92.63 215.791H84.4193V224.002H92.63V215.791Z" fill="black"/>
<path d="M100.841 215.791H92.63V224.002H100.841V215.791Z" fill="black"/>
<path d="M125.473 215.791H117.262V224.002H125.473V215.791Z" fill="black"/>
<path d="M133.684 215.791H125.473V224.002H133.684V215.791Z" fill="black"/>
<path d="M158.316 215.791H150.105V224.002H158.316V215.791Z" fill="black"/>
<path d="M215.791 215.791H207.581V224.002H215.791V215.791Z" fill="black"/>
<path d="M248.634 215.791H240.424V224.002H248.634V215.791Z" fill="black"/>
<path d="M273.267 215.791H265.056V224.002H273.267V215.791Z" fill="black"/>
<path d="M281.477 215.791H273.267V224.002H281.477V215.791Z" fill="black"/>
<path d="M18.7332 224.002H10.5225V232.213H18.7332V224.002Z" fill="black"/>
<path d="M26.944 224.002H18.7332V232.213H26.944V224.002Z" fill="black"/>
<path d="M35.1547 224.002H26.944V232.213H35.1547V224.002Z" fill="black"/>
<path d="M43.3655 224.002H35.1547V232.213H43.3655V224.002Z" fill="black"/>
<path d="M51.5762 224.002H43.3655V232.213H51.5762V224.002Z" fill="black"/>
<path d="M59.787 224.002H51.5762V232.213H59.787V224.002Z" fill="black"/>
<path d="M67.9978 224.002H59.787V232.213H67.9978V224.002Z" fill="black"/>
<path d="M84.4193 224.002H76.2085V232.213H84.4193V224.002Z" fill="black"/>
<path d="M109.052 224.002H100.841V232.213H109.052V224.002Z" fill="black"/>
<path d="M117.262 224.002H109.052V232.213H117.262V224.002Z" fill="black"/>
<path d="M133.684 224.002H125.473V232.213H133.684V224.002Z" fill="black"/>
<path d="M141.895 224.002H133.684V232.213H141.895V224.002Z" fill="black"/>
<path d="M150.105 224.002H141.895V232.213H150.105V224.002Z" fill="black"/>
<path d="M166.527 224.002H158.316V232.213H166.527V224.002Z" fill="black"/>
<path d="M174.738 224.002H166.527V232.213H174.738V224.002Z" fill="black"/>
<path d="M182.948 224.002H174.738V232.213H182.948V224.002Z" fill="black"/>
<path d="M199.37 224.002H191.159V232.213H199.37V224.002Z" fill="black"/>
<path d="M215.791 224.002H207.581V232.213H215.791V224.002Z" fill="black"/>
<path d="M232.213 224.002H224.002V232.213H232.213V224.002Z" fill="black"/>
<path d="M248.634 224.002H240.424V232.213H248.634V224.002Z" fill="black"/>
<path d="M256.845 224.002H248.634V232.213H256.845V224.002Z" fill="black"/>
<path d="M265.056 224.002H256.845V232.213H265.056V224.002Z" fill="black"/>
<path d="M281.477 224.002H273.267V232.213H281.477V224.002Z" fill="black"/>
<path d="M18.7332 232.213H10.5225V240.424H18.7332V232.213Z" fill="black"/>
<path d="M67.9978 232.213H59.787V240.424H67.9978V232.213Z" fill="black"/>
<path d="M84.4193 232.213H76.2085V240.424H84.4193V232.213Z" fill="black"/>
<path d="M92.63 232.213H84.4193V240.424H92.63V232.213Z" fill="black"/>
<path d="M100.841 232.213H92.63V240.424H100.841V232.213Z" fill="black"/>
<path d="M125.473 232.213H117.262V240.424H125.473V232.213Z" fill="black"/>
<path d="M133.684 232.213H125.473V240.424H133.684V232.213Z" fill="black"/>
<path d="M141.895 232.213H133.684V240.424H141.895V232.213Z" fill="black"/>
<path d="M150.105 232.213H141.895V240.424H150.105V232.213Z" fill="black"/>
<path d="M174.738 232.213H166.527L166.527 240.424H174.738V232.213Z" fill="black"/>
<path d="M182.948 232.213H174.738V240.424H182.948V232.213Z" fill="black"/>
<path d="M199.37 232.213H191.159V240.424H199.37V232.213Z" fill="black"/>
<path d="M215.791 232.213H207.581V240.424H215.791V232.213Z" fill="black"/>
<path d="M248.634 232.213H240.424V240.424H248.634V232.213Z" fill="black"/>
<path d="M256.845 232.213H248.634V240.424H256.845V232.213Z" fill="black"/>
<path d="M273.267 232.213H265.056V240.424H273.267V232.213Z" fill="black"/>
<path d="M18.7332 240.424H10.5225V248.634H18.7332V240.424Z" fill="black"/>
<path d="M35.1547 240.424H26.944V248.634H35.1547V240.424Z" fill="black"/>
<path d="M43.3655 240.424H35.1547V248.634H43.3655V240.424Z" fill="black"/>
<path d="M51.5762 240.424H43.3655V248.634H51.5762V240.424Z" fill="black"/>
<path d="M67.9978 240.424H59.787V248.634H67.9978V240.424Z" fill="black"/>
<path d="M84.4193 240.424H76.2085V248.634H84.4193V240.424Z" fill="black"/>
<path d="M100.841 240.424H92.63V248.634H100.841V240.424Z" fill="black"/>
<path d="M109.052 240.424H100.841V248.634H109.052V240.424Z" fill="black"/>
<path d="M117.262 240.424H109.052V248.634H117.262V240.424Z" fill="black"/>
<path d="M133.684 240.424H125.473V248.634H133.684V240.424Z" fill="black"/>
<path d="M141.895 240.424H133.684V248.634H141.895V240.424Z" fill="black"/>
<path d="M150.105 240.424H141.895V248.634H150.105V240.424Z" fill="black"/>
<path d="M174.738 240.424H166.527V248.634H174.738V240.424Z" fill="black"/>
<path d="M182.948 240.424H174.738V248.634H182.948V240.424Z" fill="black"/>
<path d="M199.37 240.424H191.159V248.634H199.37V240.424Z" fill="black"/>
<path d="M215.791 240.424H207.581V248.634H215.791V240.424Z" fill="black"/>
<path d="M224.002 240.424H215.791V248.634H224.002V240.424Z" fill="black"/>
<path d="M232.213 240.424H224.002V248.634H232.213V240.424Z" fill="black"/>
<path d="M240.424 240.424H232.213V248.634H240.424V240.424Z" fill="black"/>
<path d="M248.634 240.424H240.424V248.634H248.634V240.424Z" fill="black"/>
<path d="M256.845 240.424H248.634V248.634H256.845V240.424Z" fill="black"/>
<path d="M265.056 240.424H256.845V248.634H265.056V240.424Z" fill="black"/>
<path d="M281.477 240.424H273.267V248.634H281.477V240.424Z" fill="black"/>
<path d="M18.7332 248.634H10.5225V256.845H18.7332V248.634Z" fill="black"/>
<path d="M35.1547 248.634H26.944V256.845H35.1547V248.634Z" fill="black"/>
<path d="M43.3655 248.634H35.1547V256.845H43.3655V248.634Z" fill="black"/>
<path d="M51.5762 248.634H43.3655V256.845H51.5762V248.634Z" fill="black"/>
<path d="M67.9978 248.634H59.787V256.845H67.9978V248.634Z" fill="black"/>
<path d="M84.4193 248.634H76.2085V256.845H84.4193V248.634Z" fill="black"/>
<path d="M109.052 248.634H100.841V256.845H109.052V248.634Z" fill="black"/>
<path d="M117.262 248.634H109.052V256.845H117.262V248.634Z" fill="black"/>
<path d="M141.895 248.634H133.684V256.845H141.895V248.634Z" fill="black"/>
<path d="M150.105 248.634H141.895V256.845H150.105V248.634Z" fill="black"/>
<path d="M182.948 248.634H174.738V256.845H182.948V248.634Z" fill="black"/>
<path d="M191.159 248.634H182.948V256.845H191.159V248.634Z" fill="black"/>
<path d="M199.37 248.634H191.159V256.845H199.37V248.634Z" fill="black"/>
<path d="M207.581 248.634H199.37V256.845H207.581V248.634Z" fill="black"/>
<path d="M215.791 248.634H207.581V256.845H215.791V248.634Z" fill="black"/>
<path d="M256.845 248.634H248.634V256.845H256.845V248.634Z" fill="black"/>
<path d="M265.056 248.634H256.845V256.845H265.056V248.634Z" fill="black"/>
<path d="M18.7332 256.845H10.5225V265.056H18.7332V256.845Z" fill="black"/>
<path d="M35.1547 256.845H26.944V265.056H35.1547V256.845Z" fill="black"/>
<path d="M43.3655 256.845H35.1547V265.056H43.3655V256.845Z" fill="black"/>
<path d="M51.5762 256.845H43.3655V265.056H51.5762V256.845Z" fill="black"/>
<path d="M67.9978 256.845H59.787V265.056H67.9978V256.845Z" fill="black"/>
<path d="M92.63 256.845H84.4193V265.056H92.63V256.845Z" fill="black"/>
<path d="M100.841 256.845H92.63V265.056H100.841V256.845Z" fill="black"/>
<path d="M125.473 256.845H117.262V265.056H125.473V256.845Z" fill="black"/>
<path d="M133.684 256.845H125.473V265.056H133.684V256.845Z" fill="black"/>
<path d="M158.316 256.845H150.105V265.056H158.316V256.845Z" fill="black"/>
<path d="M191.159 256.845H182.948V265.056H191.159V256.845Z" fill="black"/>
<path d="M199.37 256.845H191.159V265.056H199.37V256.845Z" fill="black"/>
<path d="M224.002 256.845H215.791V265.056H224.002V256.845Z" fill="black"/>
<path d="M256.845 256.845H248.634V265.056H256.845V256.845Z" fill="black"/>
<path d="M18.7332 265.056H10.5225V273.267H18.7332V265.056Z" fill="black"/>
<path d="M67.9978 265.056H59.787V273.267H67.9978V265.056Z" fill="black"/>
<path d="M125.473 265.056H117.262V273.267H125.473V265.056Z" fill="black"/>
<path d="M133.684 265.056H125.473V273.267H133.684V265.056Z" fill="black"/>
<path d="M150.105 265.056H141.895V273.267H150.105V265.056Z" fill="black"/>
<path d="M166.527 265.056H158.316V273.267H166.527V265.056Z" fill="black"/>
<path d="M191.159 265.056H182.948V273.267H191.159V265.056Z" fill="black"/>
<path d="M199.37 265.056H191.159V273.267H199.37V265.056Z" fill="black"/>
<path d="M215.791 265.056H207.581V273.267H215.791V265.056Z" fill="black"/>
<path d="M224.002 265.056H215.791V273.267H224.002V265.056Z" fill="black"/>
<path d="M232.213 265.056H224.002V273.267H232.213V265.056Z" fill="black"/>
<path d="M248.634 265.056H240.424V273.267H248.634V265.056Z" fill="black"/>
<path d="M256.845 265.056H248.634V273.267H256.845V265.056Z" fill="black"/>
<path d="M18.7332 273.267H10.5225V281.478H18.7332V273.267Z" fill="black"/>
<path d="M26.944 273.267H18.7332V281.478H26.944V273.267Z" fill="black"/>
<path d="M35.1547 273.267H26.944V281.478H35.1547V273.267Z" fill="black"/>
<path d="M43.3655 273.267H35.1547V281.478H43.3655V273.267Z" fill="black"/>
<path d="M51.5762 273.267H43.3655V281.478H51.5762V273.267Z" fill="black"/>
<path d="M59.787 273.267H51.5762V281.478H59.787V273.267Z" fill="black"/>
<path d="M67.9978 273.267H59.787V281.478H67.9978V273.267Z" fill="black"/>
<path d="M84.4193 273.267H76.2085V281.478H84.4193V273.267Z" fill="black"/>
<path d="M109.052 273.267H100.841V281.478H109.052V273.267Z" fill="black"/>
<path d="M117.262 273.267H109.052V281.478H117.262V273.267Z" fill="black"/>
<path d="M141.895 273.267H133.684V281.478H141.895V273.267Z" fill="black"/>
<path d="M150.105 273.267H141.895V281.478H150.105V273.267Z" fill="black"/>
<path d="M174.738 273.267H166.527L166.527 281.478H174.738V273.267Z" fill="black"/>
<path d="M182.948 273.267H174.738V281.478H182.948V273.267Z" fill="black"/>
<path d="M207.581 273.267H199.37V281.478H207.581V273.267Z" fill="black"/>
<path d="M281.477 273.267H273.267V281.478H281.477V273.267Z" fill="black"/>
</svg>
