<svg width="904" height="251" viewBox="0 0 904 251" fill="none" xmlns="http://www.w3.org/2000/svg">
<path d="M412.125 71.2497C411.758 71.2497 411.432 71.0156 411.315 70.668C409.673 65.8049 408.445 64.5765 403.582 62.9354C403.234 62.8179 403 62.4917 403 62.1247C403 61.7577 403.234 61.4315 403.582 61.3143C408.444 59.6732 409.673 58.4445 411.314 53.5817C411.432 53.2341 411.758 53 412.125 53C412.492 53 412.818 53.2341 412.935 53.5817C414.576 58.4445 415.805 59.6732 420.668 61.3143C421.015 61.4318 421.25 61.7577 421.25 62.1247C421.25 62.4917 421.016 62.8179 420.668 62.9354C415.805 64.5765 414.576 65.8049 412.935 70.668C412.818 71.0156 412.492 71.2497 412.125 71.2497Z" fill="#FFD00D"/>
<path d="M569.688 16.2298C569.42 16.1151 569.253 15.8414 569.276 15.5501C569.593 11.4724 569.077 10.1878 566.025 7.46464C565.808 7.26982 565.738 6.9576 565.853 6.68849C565.967 6.41963 566.241 6.2537 566.532 6.27618C570.61 6.5937 571.895 6.07706 574.618 3.02581C574.813 2.80756 575.125 2.73805 575.394 2.85283C575.663 2.96762 575.829 3.24097 575.806 3.53283C575.489 7.6102 576.006 8.89483 579.057 11.6183C579.275 11.8128 579.344 12.1253 579.23 12.3942C579.115 12.6633 578.841 12.8289 578.55 12.8067C574.472 12.4895 573.188 13.0056 570.465 16.0571C570.269 16.2749 569.957 16.3445 569.688 16.2298Z" fill="white"/>
<path d="M896.844 250.688C896.569 250.688 896.324 250.512 896.236 250.251C895.005 246.604 894.083 245.683 890.436 244.452C890.176 244.364 890 244.119 890 243.844C890 243.569 890.176 243.324 890.436 243.236C894.083 242.005 895.005 241.083 896.236 237.436C896.324 237.176 896.569 237 896.844 237C897.119 237 897.364 237.176 897.452 237.436C898.683 241.083 899.604 242.005 903.251 243.236C903.512 243.324 903.688 243.569 903.688 243.844C903.688 244.119 903.512 244.364 903.251 244.452C899.604 245.683 898.683 246.604 897.452 250.251C897.364 250.512 897.119 250.688 896.844 250.688Z" fill="white"/>
<path d="M25.4817 75.0862L21.1456 70.42L22.5315 64.2029C22.6088 63.8559 22.4823 63.4951 22.2057 63.2723C21.929 63.0496 21.5496 63.003 21.227 63.1528L15.4493 65.8346L9.96453 62.5951C9.29997 62.2026 8.4701 62.7442 8.56289 63.5112L9.32788 69.835L4.55202 74.0504C3.97345 74.5613 4.23187 75.5184 4.99017 75.6664L11.2408 76.8931C14.0006 83.2596 13.7984 82.895 14.0451 83.0937C14.196 83.2151 14.3838 83.289 14.5848 83.2989C14.9396 83.3163 15.2738 83.1311 15.4467 82.8207L18.5447 77.2547L24.8858 76.6512C25.6543 76.5785 26.0078 75.6526 25.4817 75.0862Z" fill="#FFA92C"/>
<path d="M12.5333 74.5298L11.7683 68.206C11.6756 67.4399 12.5046 66.897 13.17 67.2899L18.6548 70.5294L21.406 69.2524L22.5315 64.2029C22.6088 63.8559 22.4823 63.4951 22.2056 63.2723C21.929 63.0496 21.5496 63.003 21.227 63.1528L15.4493 65.8346L9.96453 62.5951C9.29997 62.2026 8.4701 62.7442 8.56289 63.5112L9.32788 69.835L4.55203 74.0504C3.97346 74.5613 4.23187 75.5184 4.99017 75.6665L10.1074 76.6707L12.5333 74.5298Z" fill="#FF8828"/>
</svg>
