<svg width="26" height="21" viewBox="0 0 26 21" fill="none" xmlns="http://www.w3.org/2000/svg">
<path d="M12.6706 8.08604C10.6084 8.08604 8.93698 9.75822 8.93698 11.8197C8.93698 13.8819 10.6084 15.5534 12.6706 15.5534C14.7324 15.5534 16.4043 13.8819 16.4043 11.8197C16.4043 9.75822 14.7324 8.08604 12.6706 8.08604ZM22.6271 4.35238H19.6401C19.2294 4.35238 18.7869 4.03377 18.6572 3.64398L17.8851 1.32686C17.7549 0.937319 17.3128 0.618713 16.9021 0.618713H8.43916C8.02845 0.618713 7.58589 0.937319 7.45621 1.32711L6.68408 3.64423C6.5539 4.03377 6.11184 4.35238 5.70114 4.35238H2.71421C1.3452 4.35238 0.225098 5.47248 0.225098 6.84149V18.0425C0.225098 19.4115 1.3452 20.5316 2.71421 20.5316H22.6271C23.9961 20.5316 25.1162 19.4115 25.1162 18.0425V6.84149C25.1162 5.47248 23.9961 4.35238 22.6271 4.35238ZM12.6706 18.0425C9.23393 18.0425 6.44787 15.2564 6.44787 11.8197C6.44787 8.38324 9.23393 5.59693 12.6706 5.59693C16.1069 5.59693 18.8934 8.38324 18.8934 11.8197C18.8934 15.2564 16.1069 18.0425 12.6706 18.0425ZM21.7559 8.58212C21.275 8.58212 20.8847 8.19232 20.8847 7.71093C20.8847 7.23003 21.275 6.83974 21.7559 6.83974C22.2373 6.83974 22.6271 7.23003 22.6271 7.71093C22.6271 8.19232 22.237 8.58212 21.7559 8.58212Z" fill="white"/>
</svg>
