<svg width="37" height="37" viewBox="0 0 37 37" fill="none" xmlns="http://www.w3.org/2000/svg">
<path d="M11.3143 15.5477L18.4999 8.362L25.689 15.5508L29.87 11.3698L18.4999 0L7.13357 11.3664L11.3144 15.5474L11.3143 15.5477ZM0 18.5L4.18113 14.3183L8.36197 18.4991L4.18084 22.6803L0 18.5ZM11.3143 21.4527L18.4999 28.638L25.6888 21.4493L29.8721 25.6281L29.87 25.6303L18.4999 37L7.13357 25.6336L7.12765 25.6277L11.3147 21.4523L11.3143 21.4527ZM28.6379 18.5018L32.819 14.3206L36.9999 18.5015L32.8189 22.6826L28.6379 18.5018Z" fill="#F3BA2F"/>
<path d="M22.7404 18.4977H22.7421L18.4999 14.2551L15.3642 17.3899L15.004 17.7503L14.261 18.4934L14.2551 18.4992L14.261 18.5052L18.4999 22.7447L22.7424 18.5021L22.7445 18.4998L22.7407 18.4977" fill="#F3BA2F"/>
</svg>
