<svg width="37" height="34" viewBox="0 0 37 34" fill="none" xmlns="http://www.w3.org/2000/svg">
<g clip-path="url(#clip0)">
<path d="M10.1431 16.8775C10.0641 18.2414 11.1199 19.4091 12.4913 19.4876C12.5407 19.4876 12.59 19.4876 12.6393 19.4876C14.0207 19.4876 15.1356 18.3788 15.1257 17.005C15.1257 15.6313 14.0108 14.5225 12.6295 14.5323C11.3073 14.5323 10.2121 15.5626 10.1431 16.8775Z" fill="#0033AD"/>
<path d="M0.848629 16.2397C0.404629 16.2102 0.0198285 16.5537 9.51653e-05 16.9952C-0.0196382 17.4368 0.315828 17.8195 0.759828 17.8391C1.20383 17.8685 1.57876 17.5251 1.60836 17.0835C1.63796 16.642 1.29263 16.2691 0.848629 16.2397Z" fill="#0033AD"/>
<path d="M9.98523 2.49244C10.3799 2.29619 10.5378 1.80557 10.3404 1.41308C10.1431 1.02058 9.64976 0.863581 9.2551 1.05983C8.86043 1.25608 8.70256 1.73689 8.8999 2.12938C9.09723 2.53169 9.5807 2.6985 9.98523 2.49244C9.97536 2.49244 9.98523 2.49244 9.98523 2.49244Z" fill="#0033AD"/>
<path d="M12.5111 6.87863C13.1229 6.57444 13.3695 5.8287 13.0637 5.22033C12.7578 4.61196 12.0079 4.36665 11.3962 4.67084C10.7845 4.97502 10.5378 5.72076 10.8437 6.32913C11.1495 6.9375 11.8994 7.18281 12.5111 6.87863Z" fill="#0033AD"/>
<path d="M4.00588 9.89098C4.47948 10.1952 5.11095 10.0676 5.42668 9.59661C5.73255 9.12561 5.60428 8.49762 5.13068 8.18362C4.65708 7.87943 4.02561 8.007 3.70988 8.47799C3.39415 8.94899 3.53228 9.58679 4.00588 9.89098Z" fill="#0033AD"/>
<path d="M5.51553 15.798C4.82487 15.7587 4.24273 16.2788 4.20327 16.9657C4.1638 17.6525 4.68673 18.2315 5.3774 18.2707C6.06807 18.31 6.6502 17.7899 6.68967 17.103C6.72913 16.426 6.2062 15.8372 5.51553 15.798Z" fill="#0033AD"/>
<path d="M4.14422 24.1091C3.64102 24.3642 3.43382 24.9726 3.69036 25.4828C3.94689 25.9832 4.55862 26.1893 5.07169 25.9342C5.57489 25.679 5.78209 25.0707 5.52556 24.5604C5.26902 24.06 4.64742 23.8539 4.14422 24.1091Z" fill="#0033AD"/>
<path d="M8.97875 13.237C9.65955 13.6786 10.5673 13.4921 11.0014 12.8151C11.4454 12.138 11.258 11.2353 10.5772 10.8035C9.89635 10.362 8.98862 10.5484 8.55448 11.2255C8.11048 11.8927 8.29795 12.7954 8.97875 13.237Z" fill="#0033AD"/>
<path d="M24.3213 6.78048C24.8936 7.15335 25.673 6.99635 26.048 6.42723C26.4229 5.85811 26.265 5.08293 25.6928 4.71006C25.1205 4.33719 24.341 4.49419 23.9661 5.06331C23.5813 5.64224 23.7392 6.40761 24.3213 6.78048Z" fill="#0033AD"/>
<path d="M26.8671 2.41388C27.242 2.65919 27.7353 2.55125 27.982 2.17838C28.2287 1.80551 28.1201 1.31489 27.7452 1.06958C27.3703 0.824271 26.8769 0.932207 26.6303 1.29527C26.3935 1.66814 26.502 2.16857 26.8671 2.41388Z" fill="#0033AD"/>
<path d="M24.5088 14.5126C23.1373 14.4341 21.9533 15.484 21.8843 16.8479C21.8053 18.2118 22.8611 19.3893 24.2325 19.458C24.2819 19.458 24.3312 19.458 24.3707 19.458C25.7421 19.458 26.8571 18.3492 26.8571 16.9755C26.8669 15.6704 25.8309 14.5812 24.5088 14.5126Z" fill="#0033AD"/>
<path d="M13.3299 13.0604C13.7542 13.8945 14.6126 14.4244 15.5598 14.4244C16.9313 14.4244 18.0462 13.3156 18.0462 11.9418C18.0462 11.5591 17.9574 11.1765 17.7798 10.8232C17.1582 9.59666 15.6585 9.10604 14.435 9.72422C13.2017 10.3522 12.7083 11.8437 13.3299 13.0604Z" fill="#0033AD"/>
<path d="M32.856 9.89101C33.3592 9.63589 33.5566 9.0177 33.3 8.51727C33.0435 8.01684 32.4219 7.82059 31.9187 8.07571C31.4155 8.33084 31.2182 8.9392 31.4648 9.43964C31.7312 9.94007 32.343 10.1461 32.856 9.89101Z" fill="#0033AD"/>
<path d="M26.5414 10.676C25.8212 11.039 25.5252 11.9123 25.8902 12.6286C26.2553 13.3449 27.1334 13.6393 27.8537 13.2763C28.574 12.9132 28.87 12.0399 28.5049 11.3236C28.1398 10.6073 27.2617 10.3227 26.5414 10.676Z" fill="#0033AD"/>
<path d="M18.4015 2.04109C18.9639 2.07053 19.4473 1.63878 19.4868 1.07947C19.5263 0.520166 19.0823 0.0393578 18.5199 0.000108168C17.9575 -0.0293291 17.474 0.392605 17.4345 0.951912C17.4049 1.52103 17.8391 2.00184 18.4015 2.04109Z" fill="#0033AD"/>
<path d="M18.3914 8.44846C19.2005 8.49753 19.8912 7.87934 19.9306 7.07473C19.98 6.27011 19.3584 5.58324 18.5493 5.54399C17.7402 5.49493 17.0496 6.11311 17.0101 6.91773C16.9706 7.72235 17.5824 8.40921 18.3914 8.44846Z" fill="#0033AD"/>
<path d="M10.4587 23.3241C11.179 22.9611 11.475 22.0878 11.1099 21.3715C10.7448 20.6552 9.86669 20.3608 9.14642 20.7239C8.42616 21.0869 8.13016 21.9602 8.49522 22.6765C8.86029 23.3928 9.73842 23.6872 10.4587 23.3241Z" fill="#0033AD"/>
<path d="M19.3389 10.5778C18.589 11.7259 18.9047 13.2566 20.0591 14.0024C21.2135 14.7481 22.7527 14.4341 23.5026 13.2861C24.2525 12.138 23.9367 10.6073 22.7823 9.86154C22.3778 9.5966 21.9042 9.45923 21.4207 9.45923C20.5821 9.45923 19.8026 9.88116 19.3389 10.5778Z" fill="#0033AD"/>
<path d="M23.6702 20.9397C23.0486 19.7131 21.5489 19.2225 20.3254 19.8407C19.0921 20.4589 18.5987 21.9504 19.2203 23.1671C19.8419 24.3936 21.3417 24.8843 22.5651 24.2661C23.7886 23.6577 24.2918 22.1858 23.6801 20.9593C23.6801 20.9495 23.6801 20.9495 23.6702 20.9397Z" fill="#0033AD"/>
<path d="M28.0212 20.7631C27.3404 20.3216 26.4327 20.508 25.9986 21.1851C25.5546 21.8621 25.742 22.7648 26.4228 23.1966C27.1036 23.6382 28.0114 23.4517 28.4455 22.7747C28.8895 22.1074 28.702 21.2047 28.0212 20.7631Z" fill="#0033AD"/>
<path d="M32.7968 17.0442C32.8363 16.3573 32.3134 15.7784 31.6227 15.7391C30.932 15.6999 30.3499 16.22 30.3104 16.9068C30.271 17.5937 30.7939 18.1726 31.4846 18.2119C32.1654 18.2511 32.7574 17.7213 32.7968 17.0442Z" fill="#0033AD"/>
<path d="M36.2402 16.1612C35.7962 16.1317 35.4114 16.4752 35.3917 16.9167C35.372 17.3583 35.7074 17.741 36.1514 17.7606C36.5954 17.79 36.9704 17.4466 37 17.0051C37.0197 16.5635 36.6842 16.1906 36.2402 16.1612Z" fill="#0033AD"/>
<path d="M32.9942 24.1092C32.5206 23.805 31.8892 23.9325 31.5734 24.4035C31.2676 24.8745 31.3958 25.5025 31.8694 25.8165C32.343 26.1207 32.9745 25.9931 33.2902 25.5221C33.606 25.0511 33.4678 24.4133 32.9942 24.1092Z" fill="#0033AD"/>
<path d="M10.1234 31.5862C9.74842 31.3409 9.25509 31.4488 9.00842 31.8119C8.76176 32.1847 8.87029 32.6754 9.23536 32.9207C9.61029 33.166 10.1036 33.058 10.3503 32.695C10.6068 32.3319 10.4983 31.8315 10.1234 31.5862Z" fill="#0033AD"/>
<path d="M27.0151 31.5077C26.6204 31.704 26.4626 32.1946 26.6599 32.5871C26.8572 32.9796 27.3506 33.1366 27.7452 32.9404C28.1399 32.7441 28.2978 32.2633 28.1004 31.8708C27.9031 31.4685 27.4196 31.3017 27.0151 31.5077C27.025 31.5077 27.0151 31.5077 27.0151 31.5077Z" fill="#0033AD"/>
<path d="M17.6614 23.4223C18.4112 22.2743 18.0955 20.7436 16.9411 19.988C15.7867 19.2423 14.2475 19.5563 13.4878 20.7043C12.728 21.8524 13.0536 23.3831 14.208 24.1386C14.6126 24.4036 15.0862 24.541 15.5696 24.541C16.4182 24.5508 17.1976 24.1288 17.6614 23.4223Z" fill="#0033AD"/>
<path d="M12.6788 27.2197C12.1065 26.8468 11.3271 27.0038 10.9521 27.573C10.5772 28.1421 10.7351 28.9172 11.3073 29.2901C11.8796 29.663 12.6591 29.506 13.034 28.9369C13.4188 28.3678 13.2609 27.5926 12.6788 27.2197Z" fill="#0033AD"/>
<path d="M18.4901 31.9591C17.9277 31.9296 17.4443 32.3614 17.4048 32.9207C17.3653 33.48 17.8093 33.9608 18.3717 34C18.9341 34.0295 19.4176 33.6075 19.457 33.0482C19.4866 32.4791 19.0525 31.9983 18.4901 31.9591Z" fill="#0033AD"/>
<path d="M18.5 25.5516C17.6909 25.5025 17.0002 26.1207 16.9608 26.9253C16.9114 27.7299 17.533 28.4168 18.3421 28.456C19.1512 28.4953 19.8418 27.8869 19.8813 27.0823C19.9306 26.2875 19.309 25.5908 18.5 25.5516Z" fill="#0033AD"/>
<path d="M24.4892 27.1216C23.8774 27.4356 23.6308 28.1813 23.9465 28.7897C24.2622 29.398 25.0121 29.6433 25.6238 29.3293C26.2356 29.0252 26.4822 28.2794 26.1764 27.671C25.8606 27.0627 25.1108 26.8076 24.4892 27.1216Z" fill="#0033AD"/>
</g>
<defs>
<clipPath id="clip0">
<rect width="37" height="34" fill="white"/>
</clipPath>
</defs>
</svg>
