<svg width="37" height="37" viewBox="0 0 37 37" fill="none" xmlns="http://www.w3.org/2000/svg">
<path d="M18.5 37C28.7173 37 37 28.7173 37 18.5C37 8.28273 28.7173 0 18.5 0C8.28273 0 0 8.28273 0 18.5C0 28.7173 8.28273 37 18.5 37Z" fill="#988430"/>
<path d="M18.5002 36.4073C28.3902 36.4073 36.4076 28.3899 36.4076 18.4999C36.4076 8.60995 28.3902 0.592529 18.5002 0.592529C8.61019 0.592529 0.592773 8.60995 0.592773 18.4999C0.592773 28.3899 8.61019 36.4073 18.5002 36.4073Z" fill="#7A6A2A"/>
<path d="M18.5001 36.0301C28.1817 36.0301 36.0302 28.1816 36.0302 18.5C36.0302 8.81834 28.1817 0.969849 18.5001 0.969849C8.81847 0.969849 0.969971 8.81834 0.969971 18.5C0.969971 28.1816 8.81847 36.0301 18.5001 36.0301Z" fill="#BA9F33"/>
<path fill-rule="evenodd" clip-rule="evenodd" d="M8.08854 16.5243C7.98375 16.4286 7.87305 16.3327 7.77122 16.237C7.6694 16.1413 7.56481 16.0454 7.46003 15.9497L7.14864 15.6537C7.09773 15.6028 7.04385 15.558 6.99294 15.5069C6.94203 15.4621 6.88224 15.4112 6.83133 15.3662C6.41811 14.9741 6.00253 14.582 5.59503 14.1897C6.01713 14.5759 6.43034 14.9593 6.85244 15.3512L6.99906 15.498C7.04997 15.5487 7.10384 15.5937 7.15475 15.6446L7.46595 15.9319C7.57073 16.0277 7.67256 16.1236 7.77734 16.2279C7.88212 16.3323 7.98395 16.4284 8.08873 16.5239L8.08854 16.5243ZM2.60445 16.4651C2.60445 16.4651 4.10714 16.6206 4.84063 16.7254C5.52005 16.8213 7.64552 17.1475 7.64552 17.1475L2.60445 16.4651ZM2.60445 16.4651C3.02654 16.5011 3.44864 16.5459 3.87073 16.5908C4.08622 16.6118 4.29283 16.6356 4.49944 16.6566L4.81655 16.6927C4.92134 16.7075 5.02316 16.7225 5.12794 16.7375L6.38535 16.938L7.01386 17.0427C7.22047 17.0786 7.42707 17.1177 7.64256 17.1536C7.43595 17.1327 7.22047 17.1027 7.01386 17.0727L6.38535 16.9829L5.12794 16.7974C5.02316 16.7825 4.92134 16.7613 4.81655 16.7465L4.49924 16.71C4.29263 16.6891 4.07714 16.6591 3.87054 16.635C3.44844 16.5843 3.02634 16.5303 2.60425 16.4645L2.60445 16.4651ZM7.49594 17.539C7.49594 17.539 5.89143 17.9463 5.34955 18.102C4.81675 18.2486 3.20315 18.7396 3.20315 18.7396L7.49575 17.5392L7.49594 17.539Z" fill="#CFB66C"/>
<path fill-rule="evenodd" clip-rule="evenodd" d="M7.49564 17.5389C7.13946 17.6437 6.78524 17.7455 6.42392 17.8415L5.35221 18.1288C4.99602 18.2336 4.64181 18.3354 4.28661 18.4402L3.75381 18.5868C3.57719 18.6377 3.39762 18.6825 3.21509 18.7336C3.3915 18.6744 3.57127 18.6138 3.74789 18.5629L4.28069 18.3924C4.63687 18.2815 4.99109 18.1767 5.34629 18.066C5.70839 17.9762 6.06478 17.8803 6.42688 17.7935C6.77103 17.7067 7.13334 17.62 7.49564 17.5391V17.5389ZM3.42762 19.7274C3.60403 19.6615 5.63972 18.7127 6.11273 18.4911C6.34953 18.3802 7.03783 18.1359 7.03783 18.1359L3.42762 19.7274Z" fill="#CFB66C"/>
<path fill-rule="evenodd" clip-rule="evenodd" d="M3.42769 19.7273C3.58319 19.6681 3.73 19.5957 3.87958 19.5269L4.32259 19.3203L5.21178 18.8922C5.50778 18.7515 5.79549 18.5962 6.10076 18.464C6.25646 18.3983 6.41216 18.3444 6.56766 18.2935L6.80446 18.2187C6.88517 18.1978 6.96015 18.1737 7.04126 18.1528C6.74526 18.2935 6.43367 18.4133 6.13727 18.5509C5.84127 18.6977 5.53856 18.8174 5.23309 18.9491L4.32911 19.3471C4.02561 19.47 3.72961 19.6016 3.42749 19.7273H3.42769ZM3.62502 20.5561C3.62502 20.5561 5.4689 19.4756 6.10353 19.1282C6.43584 18.9428 7.51051 18.4098 7.51051 18.4098L3.62502 20.5561Z" fill="#CFB66C"/>
<path fill-rule="evenodd" clip-rule="evenodd" d="M3.62524 20.5566C3.93644 20.365 4.25375 20.1704 4.57106 19.9729L5.04466 19.6854C5.20628 19.5897 5.36197 19.4999 5.52675 19.4042C5.68836 19.3083 5.84406 19.2126 6.00863 19.1228C6.08698 19.0744 6.16907 19.0324 6.25412 18.9971L6.50552 18.8714C6.83783 18.7098 7.17014 18.545 7.5204 18.4043C7.20309 18.605 6.8767 18.7757 6.55051 18.9521C6.3889 19.0419 6.22412 19.1228 6.06251 19.2126C5.90089 19.3024 5.74519 19.3983 5.58042 19.4851C5.41881 19.5808 5.26311 19.6706 5.09853 19.7574L4.61053 20.0238L3.62564 20.5566H3.62524ZM7.49574 18.6466C7.49574 18.6466 6.34923 19.5267 5.97805 19.8081C5.60686 20.0895 4.51423 20.8798 4.51423 20.8798L7.49574 18.6466Z" fill="#CFB66C"/>
<path fill-rule="evenodd" clip-rule="evenodd" d="M14.0757 25.7443L13.489 24.6337L13.8302 23.2447L16.2639 22.3048L15.2281 20.1795L15.74 18.0331L16.701 16.1111L19.6707 15.6442L21.8528 13.5637L26.5647 13.9199L27.4896 18.958L25.7085 25.3013L24.6938 28.5853L20.5806 28.741L18.6708 27.4179L16.4346 26.4837L14.0757 25.7443Z" fill="#E2CC85"/>
<path fill-rule="evenodd" clip-rule="evenodd" d="M21.29 25.7084C21.29 25.7084 20.7211 25.9689 19.7508 25.9089C19.47 25.5318 17.5034 25.3552 17.5034 25.3552C17.5034 25.3552 17.2579 25.2804 16.8238 25.46C16.3869 25.6376 15.9736 25.6157 15.5875 25.7114C15.2013 25.8071 14.8179 25.3043 14.5219 25.1995C14.2259 25.0888 13.8334 24.8224 13.8334 24.8224L13.0046 24.7415L11.3403 24.038L8.6962 21.4038L7.97771 22.5286L7.7561 23.9206L8.5555 25.5701L10.7078 27.5308L14.9047 28.5964L17.3923 27.8635L20.5086 26.5463L21.29 25.7082V25.7084Z" fill="#F1D789"/>
<path fill-rule="evenodd" clip-rule="evenodd" d="M6.3793 16.3985L6.9121 14.7851L7.54692 13.7432L9.5913 13.5725L8.97759 15.3627L7.26849 18.4042L7.9779 21.1193L6.72069 21.7478L6.33431 21.1552L6.02311 19.7962L6.0022 18.2694L6.3793 16.3985Z" fill="#F4ECB4"/>
<path fill-rule="evenodd" clip-rule="evenodd" d="M8.67223 25.5977L8.28013 25.0499C8.28013 25.0499 8.17535 24.7894 8.23534 24.5618C8.29454 24.3314 8.28605 24.3164 8.25626 24.2295C8.22646 24.1427 7.97486 23.8434 7.98986 23.5858C8.00466 23.3254 7.96894 23.2385 8.16035 23.0321C8.36084 22.8316 8.30105 22.4843 8.30105 22.4843L8.56153 22.6459L8.62073 22.5562C8.62073 22.5562 8.71644 22.6309 8.71644 22.7478C8.73735 22.5862 8.65053 21.8377 8.84806 21.6672C9.04559 21.4967 9.39586 22.4664 9.39586 22.4664L9.18037 21.0594L8.62645 19.6167L7.64156 18.2995L7.58236 16.8475V16.7218C7.58236 16.7218 7.13027 17.4164 7.00457 17.965C6.91478 18.3421 7.13027 18.8001 7.08548 19.342C7.04936 19.8809 7.00457 19.8389 7.13619 20.0524C7.26781 20.2659 7.58828 20.705 7.46258 21.0223C7.35188 21.2948 6.97458 21.1032 6.97458 21.1032C6.97458 21.1032 6.89979 21.3246 6.79796 21.4055C6.76205 21.2739 6.72317 21.19 6.65134 21.1095C6.64523 21.1604 6.63043 21.2293 6.63043 21.2293C6.63043 21.2293 6.56452 21.0227 6.49861 20.7622C6.40902 20.4151 6.31311 19.9571 6.22629 19.7116C6.19037 19.8523 6.10059 20.2803 6.10059 20.2803L6.1515 20.939L6.39698 21.843L6.63378 22.435L6.86427 23.1594L7.06456 23.646L7.22618 24.0172L7.36687 24.8525L8.04629 25.5708L8.4086 25.7326L8.67184 25.5978L8.67223 25.5977Z" fill="#F3E19D"/>
<path fill-rule="evenodd" clip-rule="evenodd" d="M6.7354 15.0814C6.7354 15.0814 6.2474 15.9102 6.10689 16.7457C5.96639 17.5812 5.84049 18.4641 5.92929 19.6015C6.01908 20.7482 6.18977 21.4515 6.32751 21.9545C6.56431 22.7898 7.17762 23.9513 7.17762 23.9513L7.19854 23.9063C7.09545 23.7109 7.01317 23.5052 6.95306 23.2926C6.87215 22.9753 6.84216 22.5982 6.76737 22.4275C6.70146 22.257 6.59076 22.1102 6.53688 21.9006C6.48597 21.7001 6.47768 21.3828 6.3214 21.1464C6.25549 21.0505 6.17458 20.7991 6.1507 20.5477C6.12071 20.1704 6.1657 19.7483 6.12978 19.4012C6.06388 18.8234 6.01908 18.4313 6.07887 18.1288C6.13866 17.8263 6.45025 16.9675 6.64186 16.2849C6.76757 15.8478 6.69258 15.4796 6.92306 15.0993C7.15355 14.7222 7.29445 14.3899 7.34516 14.1594C7.40436 13.9499 6.73461 15.0814 6.73461 15.0814H6.7354Z" fill="#F2E8B0"/>
<path fill-rule="evenodd" clip-rule="evenodd" d="M9.04955 14.7491C9.04955 14.7491 8.79814 14.8241 8.67836 14.9558C8.55858 15.0815 8.50767 15.1862 8.34605 15.3988C8.18444 15.6113 8.17536 15.7849 8.04354 16.0513C7.91192 16.3118 7.62145 16.7039 7.58553 16.8446C7.54962 16.9853 7.48983 17.6438 7.41504 17.9552C7.34913 18.2666 7.48982 18.6498 7.48982 18.6498L7.66032 18.6137C7.66032 18.6137 7.66032 18.8353 7.83101 18.9851C8.00151 19.1317 8.0315 18.488 8.0315 18.488L8.66909 16.3357L9.6299 15.6831L9.73469 15.1562L9.04915 14.7491H9.04955Z" fill="#F5EEC0"/>
<path fill-rule="evenodd" clip-rule="evenodd" d="M9.51638 15.7251C9.51638 15.7251 9.06429 15.7549 8.84288 15.9167C8.75309 15.9824 8.71718 16.0363 8.62147 16.1172C8.44486 16.2638 8.26509 16.3986 8.17846 16.5908C8.08255 16.7822 7.97777 17.0727 7.90594 17.6205C7.87595 17.851 7.87595 18.0635 7.85503 18.2492C7.82503 18.5006 7.78024 18.7011 7.80412 18.8412C7.83411 19.1285 8.13051 19.2783 8.15932 19.6045L8.77302 19.2933L9.35081 17.015L10.5782 16.2454L9.88361 15.4672L9.51559 15.7237L9.51638 15.7251Z" fill="#E6DB9D"/>
<path fill-rule="evenodd" clip-rule="evenodd" d="M6.27876 31.066C6.28133 31.0435 6.28389 31.021 6.28646 30.9979C6.37605 30.2283 6.39124 29.645 6.45695 29.2798C6.55266 28.762 6.61857 28.5694 6.60357 28.3756C6.58266 28.0644 6.55878 27.8369 6.58877 27.5973C6.63357 27.28 6.94496 26.9029 6.93608 26.6424C6.92996 26.4358 6.82518 26.3012 6.73539 26.1755C6.6456 26.0498 6.57378 25.945 6.57378 25.945C6.57378 25.945 7.18748 25.5229 7.18156 23.8225C7.19409 23.826 7.20615 23.8311 7.21748 23.8375L7.51979 24.6965L7.7264 24.9479L8.51968 26.4267L9.54049 27.4177L11.0491 28.4324L11.9951 29.4619L12.0908 32.207L10.8545 33.8115L10.6521 34.1782C9.04354 33.3707 7.56853 32.321 6.27856 31.0658L6.27876 31.066Z" fill="#E5CB7A"/>
<path fill-rule="evenodd" clip-rule="evenodd" d="M10.0552 33.6921C10.0552 33.6921 10.0761 33.3509 10.3575 33.1293C10.4025 33.2041 10.4323 33.2761 10.4234 33.3298C10.4743 33.2402 10.8305 32.6654 11.6358 32.5156C12.4411 32.369 12.6357 31.7823 12.6357 31.7823L14.3448 30.2287L16.2996 28.4296L18.6765 27.5943L19.7873 27.3218C19.7873 27.3218 19.8082 27.4027 19.7663 27.5823C19.9728 27.5675 20.4308 27.4627 20.9067 27.2949C21.0983 27.2201 21.2781 27.1902 21.3738 27.289C21.5145 27.4206 21.5354 27.732 21.5443 27.9175C21.7748 27.8666 22.0412 27.6452 22.2547 27.6661C22.5961 27.702 22.8984 28.1032 23.2457 28.1032C23.7037 28.1032 23.9101 27.8218 24.2306 27.6002C24.4222 27.4686 24.6975 27.3042 24.8532 27.1931C25.2244 26.9206 29.1519 25.7202 29.1519 25.7202L30.5289 25.81L30.7505 27.2888L30.6321 31.1546C30.6175 31.1686 30.6029 31.1832 30.5881 31.1972L24.3271 34.4672L15.6484 35.7976C13.7043 35.48 11.8283 34.8347 10.1002 33.8892L10.0558 33.6919L10.0552 33.6921Z" fill="#D8C173"/>
<path fill-rule="evenodd" clip-rule="evenodd" d="M6.80493 31.5577C6.92826 31.2998 7.03917 31.0841 7.0587 31.007C7.07409 31.1625 7.10231 31.5036 7.15914 31.8664C7.03982 31.7649 6.92175 31.662 6.80493 31.5575V31.5577Z" fill="#F1D789"/>
<path fill-rule="evenodd" clip-rule="evenodd" d="M13.1447 35.1957L14.2671 34.8836L14.3628 34.9136C14.3628 34.9136 14.4137 34.9436 14.4137 35.0452C14.5544 34.9645 14.6742 34.9793 14.7611 34.9256C14.8058 35.0213 14.8506 35.3386 15.0484 35.3775C15.2548 35.4225 15.4764 35.2877 15.7009 35.1172C15.9224 34.9406 16.1745 34.719 16.3654 34.6292C16.4354 34.7579 16.4974 34.8909 16.5511 35.0272C16.8025 34.8267 17.2396 34.0125 17.8621 34.0273C18.0421 33.6021 18.3427 33.2389 18.7269 32.9827C19.3047 32.5905 19.6668 32.5606 20.1188 32.5965C20.2984 32.3632 20.5197 32.1653 20.7714 32.0128C20.8462 32.0428 21.0528 32.1685 21.3103 32.0487C21.5708 31.9291 21.8641 31.465 22.2502 31.4052C22.4584 31.3765 22.6699 31.421 22.849 31.5309C22.849 31.5309 23.9738 30.4142 24.7499 30.043C24.7199 29.9532 24.6601 29.615 25.57 28.8665C25.6209 28.9115 25.585 29.0372 25.6209 29.0441C25.6357 29.0441 25.8577 28.9484 26.1387 28.7327C26.486 28.4724 26.902 28.1999 27.1534 28.1251C27.627 27.9844 28.1294 28.2717 28.1294 28.2717C28.1721 28.2417 28.2197 28.2194 28.2701 28.2058C28.3897 28.1849 28.4765 28.1699 28.5424 28.1466C28.5365 28.3023 28.6233 28.5687 28.5424 28.7992C28.6361 28.8519 28.7354 28.894 28.8384 28.9249C28.7877 29.0356 28.6768 29.317 28.4913 29.4518C28.6468 29.5266 28.6677 29.6134 28.8893 29.6886C28.7995 29.8143 28.6525 30.03 28.587 30.1622C28.5211 30.3029 28.2845 30.8866 28.1797 31.108C28.069 31.3296 27.9194 31.7367 27.8474 31.8184C27.7754 31.9001 27.5151 32.2464 27.3146 32.4169C27.4922 32.351 28.2188 32.1296 28.527 32.0457C28.4353 32.1803 27.9702 32.8704 27.523 33.534C25.382 34.8172 22.9921 35.6295 20.5126 35.9165C18.0331 36.2036 15.5208 35.9588 13.1433 35.1987L13.1447 35.1957Z" fill="#E0CD81"/>
<path fill-rule="evenodd" clip-rule="evenodd" d="M9.59046 15.6442C9.59046 15.6442 9.33018 15.6442 9.27927 15.6801C9.22835 15.7161 9.53975 15.791 9.63545 15.827C9.73116 15.8629 9.93777 16.0275 9.99164 16.1593C10.0426 16.285 11.8626 17.0183 11.8626 17.0183L13.1498 16.9524L13.5936 16.3392L12.7494 15.5998L13.3414 13.8546L12.5572 13.9803L10.6713 15.1051L9.72524 15.4674L9.59046 15.6442Z" fill="#DFC57C"/>
<path fill-rule="evenodd" clip-rule="evenodd" d="M12.4173 16.222C12.4359 16.2521 12.4621 16.2768 12.4933 16.2936C12.5244 16.3104 12.5595 16.3187 12.5949 16.3177C12.8613 16.3177 13.1066 16.3836 13.2084 16.5182C13.3791 16.7339 13.8521 17.4223 13.8521 17.4223L14.9836 17.8294L15.0566 16.4971L13.8203 15.6381L12.4133 16.1559V16.2218H12.4165L12.4173 16.222Z" fill="#E5CC7C"/>
<path fill-rule="evenodd" clip-rule="evenodd" d="M12.1951 16.716C12.1951 16.716 12.4015 16.731 12.662 16.6351C12.9225 16.5392 13.3505 16.3328 13.5362 16.4137C13.7965 16.5244 13.7426 16.8717 14.0242 17.1833C14.1947 17.3749 14.5061 17.369 14.6827 17.5756C14.8593 17.7822 15.4669 17.6863 15.4669 17.6863L15.6974 18.9295L14.7725 20.115L14.47 21.5877H13.2193L12.0767 21.1345L11.5139 19.7729L11.7953 18.3959L12.1951 16.716Z" fill="#D2C281"/>
<path fill-rule="evenodd" clip-rule="evenodd" d="M14.6145 16.7756C14.6456 16.7852 14.6778 16.7902 14.7103 16.7906C14.6743 16.8206 14.5993 16.8863 14.6293 17.057C14.6593 17.2277 14.755 17.4432 14.6743 17.5748C14.7388 17.6453 14.7868 17.7291 14.815 17.8203C14.8659 17.9671 14.8809 18.1017 15.2131 18.1228C15.1651 18.1523 15.1209 18.1875 15.0814 18.2276C15.0814 18.2276 15.3119 18.4281 15.4287 18.6136C15.5483 18.6085 15.8656 18.5098 15.8656 18.5098L15.9315 18.5548L16.0722 18.4956C16.0722 18.4956 15.9406 18.4447 16.0363 18.1244C16.1261 17.843 16.207 17.858 16.2139 17.8371C16.2208 17.8162 16.2798 17.5198 16.2798 17.4C16.3246 17.2445 16.3606 16.7715 16.3606 16.7715L16.2648 15.7268L15.7261 15.4004L15.288 14.9775L14.8748 15.7558L14.6027 16.0272L14.5818 16.7006L14.6145 16.7756Z" fill="#E2C270"/>
<path fill-rule="evenodd" clip-rule="evenodd" d="M15.9106 15.9017C15.9106 15.9017 16.0064 16.174 16.0425 16.3835C16.0552 16.3428 16.0622 16.3005 16.0634 16.2578C16.0634 16.2578 16.1382 16.6711 16.153 16.8418C16.183 16.8356 16.2122 16.8268 16.2189 16.8566C16.2256 16.8863 16.2939 17.2189 16.2781 17.4043C16.4027 17.1987 16.5752 17.0262 16.7809 16.9015C16.9007 16.8266 17.0414 16.7458 17.1882 16.7397C17.4187 16.7338 17.5862 16.8865 17.8617 16.8865C18.5261 16.8865 19.128 16.3985 19.571 16.249C19.8972 16.1381 20.1786 16.0574 20.3761 15.8776C20.472 15.7969 20.6427 15.6173 20.7982 15.3507C21.0048 14.9955 21.2203 14.6863 21.436 14.6474C21.3384 14.6653 21.2391 14.6724 21.14 14.6683C21.14 14.6683 21.2059 14.6024 21.3176 14.5126C21.4293 14.4228 21.5631 14.3121 21.7545 14.3121C22.0959 14.3121 22.2664 14.3629 22.458 14.3629C22.6496 14.3569 22.7603 14.3121 22.7603 14.3121C22.7603 14.3121 22.961 14.4528 23.4129 14.4528C23.865 14.4588 24.1673 14.4976 24.4039 14.5187C24.6405 14.5399 25.4336 14.4528 25.6611 14.4595C25.8094 14.4653 25.9551 14.5009 26.0893 14.5643L25.3558 12.4331L22.721 10.1302L21.1524 11.2408L18.7394 13.6536L16.4046 14.5187L15.9166 15.0665V15.9017H15.9106Z" fill="#CCB360"/>
<path fill-rule="evenodd" clip-rule="evenodd" d="M21.1496 14.6802C21.1496 14.6802 21.2155 14.6145 21.326 14.5247C21.4365 14.4349 21.5716 14.324 21.7631 14.324C22.1042 14.324 22.2749 14.375 22.4666 14.375C22.6582 14.369 22.7689 14.324 22.7689 14.324C22.7689 14.324 22.9698 14.4645 23.4214 14.4645C23.8735 14.4705 24.1759 14.5093 24.4125 14.5303C24.6491 14.5512 25.4421 14.4645 25.6697 14.4711C25.818 14.4766 25.9636 14.5123 26.0977 14.5758L25.7654 13.6148L25.3794 12.8815L24.2777 11.675C24.2777 11.675 22.9555 10.8968 22.9455 10.8908C22.9396 10.8849 22.4875 10.7651 22.4875 10.7651L21.2901 11.4895L20.2035 14.3006L20.1826 14.8926L20.8859 15.2249C21.0625 14.9289 21.2573 14.6921 21.4398 14.6621C21.2751 14.68 21.1494 14.68 21.1494 14.68L21.1496 14.6802Z" fill="#D5B457"/>
<path fill-rule="evenodd" clip-rule="evenodd" d="M21.1343 14.8809C21.0295 14.8868 20.9429 14.8659 20.9188 14.7911C20.8291 14.5397 20.7572 14.5038 20.682 14.5038C20.6069 14.5038 20.5054 14.6654 20.4452 14.6802C20.3851 14.695 20.3136 14.4947 20.3136 14.4947L20.2477 14.4647C20.2477 14.4647 19.8615 14.7161 19.5892 15.0125C19.3169 15.3089 18.8707 15.8119 18.6702 15.9015C18.4697 15.9911 17.7811 16.0213 17.5454 16.0722C17.3098 16.1231 17.0486 16.2938 17.0126 16.3327C16.9767 16.3716 17.1176 16.4134 17.1385 16.4523C17.1595 16.4882 16.9079 16.4732 16.8869 16.5115C16.8721 16.5415 16.9461 16.712 16.9828 16.7988C17.0471 16.7668 17.1175 16.7495 17.1893 16.7479C17.4197 16.742 17.5875 16.8947 17.8628 16.8947C18.5274 16.8947 19.129 16.4067 19.572 16.2569C19.8984 16.1462 20.1798 16.0653 20.3774 15.8857C20.4731 15.805 20.6438 15.6252 20.7995 15.3588C20.9131 15.1763 21.024 15.0056 21.1349 14.8799L21.1343 14.8809Z" fill="#D2B257"/>
<path fill-rule="evenodd" clip-rule="evenodd" d="M11.6032 29.6959C11.6032 29.6959 11.544 29.4743 10.9954 28.9026C10.8397 28.741 10.744 28.6066 10.6392 28.5105C10.3787 28.2648 10.226 28.1991 10.0405 28.0584C9.63341 27.7561 9.19039 27.7561 8.84921 27.3849C8.50802 27.0137 8.11039 26.3045 7.83412 25.5797C7.5618 24.8553 7.48682 24.6248 7.48682 24.6039C7.48682 24.583 7.5618 24.4423 7.65751 24.4632C7.75322 24.4841 7.75322 24.6696 7.77729 24.7146C7.82497 24.788 7.87906 24.8571 7.93891 24.921C8.07961 25.0828 8.2801 25.2762 8.38192 25.5647C8.361 25.3192 8.27714 25.0469 8.27714 25.0469C8.27714 25.0469 8.80402 25.3792 9.25295 25.7263C9.70504 26.0736 9.89053 26.1934 10.0225 26.4148C10.1546 26.6362 10.4656 27.2201 10.6145 27.3908C10.7635 27.5615 12.8049 28.205 12.8049 28.205L13.776 28.929L14.2581 29.9858L13.8808 30.5778L13.1564 30.7334L11.9799 30.2066L11.6032 29.6957V29.6959Z" fill="#D2B159"/>
<path fill-rule="evenodd" clip-rule="evenodd" d="M8.9895 26.0557C8.9895 26.0557 9.23498 26.4478 9.83369 26.819C10.3726 27.1453 11.2257 27.4417 11.9862 27.6184C12.4231 27.7231 12.8602 27.8038 13.2523 27.81C14.309 27.8248 15.0364 27.5226 15.9376 27.4238C16.4256 27.3729 17.0243 27.334 17.6469 27.187C18.4461 26.9954 18.9191 26.7797 19.5628 26.4766C20.0297 26.2611 20.4579 26.0995 20.805 25.8929C21.293 25.6056 21.6492 25.2853 22.0624 25.1896C22.0115 25.3303 21.9576 25.5817 21.5505 25.8422C21.766 25.836 22.0624 25.8212 22.0624 25.8212C22.0624 25.8212 21.7751 25.9917 21.2692 26.375C20.9578 26.6118 20.5447 27.0125 20.1226 27.2789C19.8501 27.4496 19.5537 27.5749 19.3592 27.6772C18.8856 27.9376 18.6945 28.0693 18.3834 28.3876C18.4941 28.3816 18.5031 28.3876 18.5031 28.3876C18.5031 28.3876 18.1108 28.4385 17.8296 28.5881C17.7704 28.5881 17.6678 28.5671 17.4882 28.618C17.3475 28.6628 17.1619 28.7649 16.9704 28.8185C16.6979 28.8994 16.6083 28.8635 16.6083 28.8635L16.6531 28.9533C16.6531 28.9533 16.2979 28.9472 16.1795 28.9592C16.2005 28.9652 16.1945 28.9742 16.1945 28.9742C16.1737 28.9777 16.1537 28.9848 16.1353 28.9952C16.0784 29.0321 16.0157 29.0593 15.9498 29.0759C15.9139 29.0818 15.8839 29.0818 15.8389 29.0909C15.8539 29.1268 15.9708 29.3277 16.0246 29.4461C15.9798 29.4761 15.3061 29.985 15.3061 29.985C15.327 30.0179 15.3441 30.053 15.357 30.0898C15.378 30.1555 15.387 30.2514 15.408 30.2962C15.4587 30.386 15.4887 30.401 15.4887 30.401C15.4887 30.401 15.408 30.416 15.2671 30.4519C15.1475 30.4819 15.0007 30.5326 14.7935 30.5626C14.7299 30.5708 14.6659 30.5758 14.6019 30.5776C14.6319 30.6435 14.7635 30.8949 14.5209 31.1852C14.2784 31.4754 14.2036 31.5177 14.1288 31.7032C14.0912 31.6747 14.0511 31.6496 14.0091 31.6282C13.9284 31.5923 13.8175 31.5386 13.7786 31.4666C13.7559 31.5625 13.7259 31.6566 13.6888 31.748C13.614 31.9484 13.5033 32.1462 13.4824 32.2957C13.4015 32.206 13.2519 32.0294 13.0453 32.0653C12.8387 32.1012 12.6741 32.3826 12.6382 32.4635C12.6382 32.4126 12.6023 32.3737 12.5934 32.4335C12.5873 32.4994 12.4736 33.1877 11.839 33.7446C11.8331 33.6039 11.8331 33.2925 11.8181 33.1909C11.7589 33.2501 11.6865 33.3375 11.2553 33.5232C10.8332 33.7087 10.9001 33.8943 10.9001 33.8943C10.9001 33.8943 10.8642 33.5983 11.0917 33.2866C11.3222 32.9754 11.4629 32.8286 11.4629 32.8047C11.4592 32.7804 11.4488 32.7575 11.4329 32.7388C11.4029 32.7088 11.3431 32.6729 11.3431 32.649C11.379 32.6342 11.7352 32.4635 11.7143 32.1101C11.6934 31.7929 11.5588 31.6282 11.4629 31.5115C11.4481 31.4965 11.6038 31.3858 11.5827 31.3499C11.5677 31.329 11.3762 31.1881 11.3522 31.1131C11.3578 31.0684 11.3679 31.0243 11.3822 30.9815C11.4031 30.9156 11.4181 30.8706 11.4122 30.8258C11.3972 30.751 11.3163 30.5444 11.2924 30.5235C11.3133 30.5294 11.4629 30.5235 11.4629 30.5235C11.4629 30.5235 11.3433 30.3319 11.3222 30.2421C11.3011 30.1523 11.2563 29.9157 11.2324 29.8709C11.2833 29.8768 11.409 29.8857 11.409 29.8709C11.4151 29.8259 11.2983 29.7511 11.3498 29.6933C11.3857 29.6992 11.4546 29.7292 11.5203 29.8131C11.4844 29.7172 11.4246 29.5317 11.2987 29.4569C11.3579 29.436 11.5592 29.3819 11.7358 29.4867C11.9124 29.5915 11.9726 29.7381 11.9726 29.7381C11.9726 29.7381 12.0774 29.819 12.2392 29.9388C12.4247 30.0854 12.6611 30.294 13.0384 30.4416C13.1193 30.4866 13.3257 30.4866 13.4755 30.4566C13.5407 30.4411 13.6032 30.4159 13.661 30.3818C13.6818 30.3695 13.7039 30.3595 13.7269 30.3518C13.6947 30.2872 13.6577 30.2252 13.6162 30.1661C13.6671 30.1661 13.7269 30.1722 13.7269 30.1722C13.7269 30.1722 13.7628 30.0913 13.6012 29.9354C13.6371 29.8995 13.6821 29.8762 13.6821 29.8157C13.6312 29.8097 13.5414 29.735 13.5205 29.705C13.5503 29.684 13.5953 29.6152 13.6462 29.5943C13.6012 29.5583 13.4905 29.4086 13.4396 29.3938C13.4882 29.3757 13.5353 29.3537 13.5803 29.3279C13.5803 29.3279 13.3289 29.2619 13.248 29.2081C13.167 29.1489 13.0475 29.0465 12.9756 29.0165C12.9006 28.9865 12.769 28.9717 12.7152 28.9117C12.7659 28.9267 12.8468 28.9117 12.9068 28.9117C12.9516 28.9117 12.9727 28.9176 12.9875 28.9176C12.9816 28.8967 12.9816 28.8517 13.0984 28.8369C13.1546 28.8284 13.2091 28.8112 13.26 28.786C13.26 28.786 13.1491 28.7801 13.0232 28.6603C12.8973 28.5405 12.7927 28.4448 12.7209 28.4298C12.6461 28.4148 12.5054 28.4807 12.4186 28.4746C12.2988 28.4598 12.2479 28.3998 12.2479 28.3998C12.2479 28.3998 11.8498 28.4357 10.9668 27.897C10.2033 27.4299 9.87099 27.0169 9.87099 27.0169C9.79954 26.991 9.73048 26.9589 9.66458 26.921C9.37726 26.7714 8.97904 26.46 8.99108 26.0527L8.9895 26.0557Z" fill="#C2A44D"/>
<path fill-rule="evenodd" clip-rule="evenodd" d="M20.0027 8.08853C20.072 8.11102 20.1335 8.15253 20.1803 8.20831C20.321 8.36992 20.4108 8.6752 20.0905 9.00159C20.2162 9.04638 20.2681 9.06079 20.3778 9.04638C20.2671 9.1782 20.0157 9.4596 20.0007 9.70508C19.9857 9.90557 20.1114 9.96556 20.1114 9.96556C20.1114 9.96556 19.9198 10.187 19.9109 10.5576C20.0014 10.4555 20.1005 10.3614 20.2069 10.2762C20.4285 10.0996 20.7338 9.89906 20.9404 9.77336C20.9376 9.82604 20.9447 9.87879 20.9613 9.92886C20.9613 9.92886 21.3473 9.61155 21.6717 9.75244C21.8184 9.81835 21.7525 10.0248 21.7525 10.0248C21.7525 10.0248 21.9531 9.94997 22.0938 10.0907C22.2345 10.2314 22.4335 10.5943 22.5355 10.735C22.5803 10.8009 22.6971 10.9266 22.8167 11.1211C22.98 11.3936 23.1165 11.6812 23.224 11.9801C23.2299 11.8244 23.2688 11.5821 23.712 11.7347C24.155 11.8904 24.6578 12.2167 25.0799 12.8595C25.502 13.5022 25.6066 14.2278 25.8191 14.504C26.0346 14.7704 26.2562 15.2134 26.2712 15.3991C26.2862 15.5848 26.2053 16.1833 26.6483 17.8029C26.774 17.3 26.9656 16.1833 26.9656 16.1833L27.0704 15.1984L27.1902 12.151L24.008 9.50735L21.5204 7.70215L19.9009 7.85784L20.0025 8.08833L20.0027 8.08853Z" fill="#CAA13E"/>
<path fill-rule="evenodd" clip-rule="evenodd" d="M25.9151 12.6236C25.9151 12.6236 25.8702 12.3276 25.1219 11.8244C24.3734 11.3275 23.7897 11.3275 23.2509 10.9054C22.8377 10.5731 22.4068 9.80962 22.1261 9.55822C21.8536 9.30978 21.8088 8.59129 21.8088 8.59129L22.7278 7.82169L24.0945 5.84618L25.2499 4.57397L25.8036 5.34358L26.5732 6.24756L27.0013 8.06164L27.157 10.717L25.9138 12.6238L25.9151 12.6236Z" fill="#B59544"/>
<path fill-rule="evenodd" clip-rule="evenodd" d="M26.8402 15.8063C26.8628 15.4036 26.8131 15.0002 26.6934 14.615C26.496 14.0013 26.0649 12.9116 25.8646 12.5036C25.7837 12.0515 25.8437 12.0156 25.9305 11.9646C26.0173 11.9137 26.3437 11.7278 26.5225 11.0757C26.7013 10.4235 27.256 10.4022 27.256 10.4022L27.5972 10.1508L28.1152 11.4468L28.5671 12.6174L28.7078 13.5125L28.8125 14.2758L28.5671 15.8894L27.3548 16.985L26.84 15.8063H26.8402Z" fill="#C89D3A"/>
<path fill-rule="evenodd" clip-rule="evenodd" d="M9.92358 33.7912V33.758C9.94877 33.7423 9.97101 33.7222 9.9893 33.6988C10.0102 33.6688 10.0254 33.6329 10.0402 33.624C10.0702 33.609 10.2109 33.5648 10.2857 33.579C10.3605 33.5932 10.5582 33.6747 10.663 33.6688C10.8785 33.6629 11.1299 33.4981 11.5281 33.5731C12.1268 33.6838 12.2675 34.0909 12.6148 34.3214C12.8516 34.4832 13.0967 34.4112 13.1326 34.4112H13.2133C13.2283 34.4112 13.339 34.2855 13.399 34.2916C13.5188 34.2975 13.5306 34.3964 13.6054 34.4023C13.782 34.4232 14.1234 34.3125 14.2941 34.3575C14.3447 34.3734 14.3908 34.4012 14.4283 34.4387C14.4658 34.4762 14.4937 34.5222 14.5096 34.5728C14.5455 34.6835 14.5155 34.8242 14.4287 34.9051C14.2432 35.0756 14.0666 35.2374 14.0307 35.3787C14.0764 35.4135 14.1202 35.4507 14.1621 35.49C12.681 35.1126 11.2559 34.5421 9.92358 33.7929V33.7912Z" fill="#CEB052"/>
<path fill-rule="evenodd" clip-rule="evenodd" d="M25.864 27.8101C25.864 27.8101 26.3309 27.1875 26.4927 26.879C26.6543 26.5611 25.9808 22.5355 25.9808 22.5355L27.3339 18.1022L27.2978 16.6593C27.2978 16.6593 27.3637 15.3271 27.5194 14.7494C27.7051 15.0817 28.2829 15.4828 28.4086 15.6954C28.4678 15.2881 28.6689 14.4291 28.6391 13.5131C28.7498 13.6836 29.0162 15.399 29.0162 15.399L29.2826 16.5544L29.6299 17.7818L30.0161 19.0781L30.2466 19.9732L30.3782 20.1887L30.4891 20.5658L30.5939 20.9731L30.8962 21.9279L31.0738 22.7121L31.2145 24.1341C31.2451 24.243 31.2671 24.3541 31.2804 24.4664C31.2863 24.6221 31.2595 24.7119 31.2595 24.739C31.2595 24.766 31.3104 25.0801 31.2895 25.3168C31.2595 25.5536 31.2595 25.7388 31.0738 25.9088C30.8881 26.0787 30.7715 27.0941 30.7715 27.0941L30.4392 26.8727C30.4392 26.8727 30.5051 26.5702 30.3494 26.2949C30.1937 26.0197 29.8914 25.9626 29.7207 26.0076C29.5502 26.0435 29.209 26.0972 29.0981 26.1931C28.9933 26.2888 28.736 26.5852 28.4994 26.72C28.2034 26.8976 27.7211 26.9116 27.4638 26.9714C27.2033 27.0306 26.916 27.2082 26.6135 27.4144C26.3763 27.568 26.1259 27.7 25.8652 27.8091L25.864 27.8101Z" fill="#CCA847"/>
<path fill-rule="evenodd" clip-rule="evenodd" d="M25.864 34.3509C25.864 34.3509 25.8837 34.3637 25.9218 34.3846C28.0486 33.3882 29.9542 31.9758 31.5261 30.2307C31.5089 29.6249 31.4866 29.0039 31.4622 28.7738C31.4114 28.2858 31.4474 27.7889 31.4324 27.5016C31.4174 27.2143 31.2557 26.0437 31.181 25.7414C31.1001 25.4391 30.9442 25.2893 30.9205 25.2893C30.8996 25.2954 30.7737 25.8582 30.7737 25.9997C30.7737 26.1412 30.7437 26.4818 30.7437 26.5686C30.7228 26.5625 30.7139 26.5094 30.7139 26.4877C30.6839 26.5625 30.648 26.6943 30.633 26.7093C30.618 26.7243 30.6539 26.5836 30.633 26.5536C30.612 26.5236 30.5738 26.5386 30.5821 26.4638C30.5856 26.4195 30.5926 26.3755 30.603 26.3322C30.603 26.3322 30.5132 26.4638 30.4475 26.7991C30.3816 27.1314 30.3816 27.1405 30.3577 27.1703C30.3368 27.2064 30.217 27.326 30.2109 27.371C30.2049 27.4517 30.3218 27.5326 30.3307 27.5774C30.3366 27.6524 30.2259 27.9995 30.19 28.1694C30.154 28.3393 30.169 28.6722 30.1308 28.8429C30.1008 28.9986 30.0716 29.0884 29.9691 29.1541C30.0439 29.1691 30.1158 29.19 30.1158 29.19C30.1158 29.19 30.2205 29.633 29.9541 30.0103C29.8584 30.1419 29.8346 30.2019 29.7327 30.3217C29.532 30.5431 29.3763 30.7953 29.3614 30.9593C29.351 30.9109 29.344 30.8618 29.3404 30.8125C29.3404 30.8125 29.0292 31.1748 28.8974 31.3814C28.7269 31.6478 28.4903 31.6328 28.4238 31.6987C28.3573 31.7646 28.3429 31.8842 28.3646 31.9801C28.3054 31.9949 28.1941 32.016 28.1191 32.2465C28.0832 32.3661 27.9934 32.4833 27.8527 32.5638C27.712 32.6443 27.5413 32.6686 27.4545 32.6895C27.5293 32.7104 27.5593 32.7104 27.5952 32.7343C27.5504 32.8091 27.3438 32.9259 27.1133 33.0757C26.8828 33.2164 26.7719 33.4228 26.7151 33.5576C26.6559 33.6833 26.5685 33.7642 26.4278 33.7792C26.487 33.8151 26.5746 33.8988 26.6194 33.9258C26.5535 33.9408 26.4418 33.9408 26.2423 34.1115C26.0327 34.2851 25.9609 34.3361 25.865 34.3511L25.864 34.3509Z" fill="#C39D3C"/>
<path fill-rule="evenodd" clip-rule="evenodd" d="M21.6987 35.738C21.8134 35.6577 21.9375 35.5919 22.0683 35.5421C22.5352 35.3566 23.0292 35.3207 23.2237 35.2609C23.4094 35.2017 23.556 35.12 23.7865 35.0752C23.7804 35.1277 23.7753 35.177 23.7698 35.2236C23.0902 35.4372 22.3983 35.609 21.6978 35.738H21.6987Z" fill="#D2BA6B"/>
<path fill-rule="evenodd" clip-rule="evenodd" d="M30.3102 23.4574C30.3102 23.4574 30.2145 23.9752 30.0438 24.3016C29.8731 24.6279 29.6886 25.0798 29.6886 25.0798C29.6897 24.978 29.7018 24.8766 29.7245 24.7773C29.5091 24.903 28.9851 25.2055 28.8365 25.3401C28.6958 25.4658 28.4592 25.6874 28.3995 25.7922C28.5402 25.3792 28.6868 25.008 28.7108 24.8373C28.4954 24.993 27.4893 25.8222 26.9656 26.37L25.3341 27.6902C25.1458 27.7917 24.9519 27.8825 24.7533 27.9621C24.4721 28.0817 24.1398 28.1835 23.8943 28.2794C23.9602 28.1028 24.0648 27.9469 24.2116 27.7973C24.3673 27.6507 24.8342 27.1447 24.9061 26.9093C24.972 26.6638 24.987 26.5172 24.9001 26.3106C24.8192 26.3315 24.6337 26.3406 24.508 26.3765C24.3823 26.4124 24.2476 26.547 24.2476 26.547C24.2476 26.547 24.3433 25.9992 24.5499 25.4814C24.3942 25.4873 24.1278 25.5321 24.1278 25.5321C24.1278 25.5321 24.499 24.9095 25.1342 24.4756C24.9396 24.517 24.7493 24.5761 24.5655 24.652C24.1943 24.8077 23.7872 25.0382 23.4849 25.1639C23.6554 24.9271 24.8528 23.2182 25.5654 21.6255C26.2758 20.036 26.5412 19.6289 26.6969 18.7758C26.7776 18.3537 26.7561 17.73 26.7776 17.1713C26.7985 16.6174 26.8674 16.1205 26.8226 15.7882C27.0081 16.0187 27.7027 16.6683 27.7265 18.1203C27.7475 19.5721 27.0621 21.533 26.3346 22.5895C26.5122 22.6404 26.9723 22.7004 27.4451 21.8791C27.918 21.0578 27.9122 20.8285 28.0829 20.4871C28.1038 20.6578 28.0977 20.7176 28.0977 20.7176C28.0977 20.7176 28.7864 19.8825 29.1126 18.8317C29.1785 19.2838 29.3731 19.682 29.0676 20.5112C28.7953 21.2595 28.4391 21.4422 28.4391 21.4422C28.4391 21.4422 28.6157 21.4122 28.876 21.2565C28.921 21.3672 28.9121 21.4933 28.9869 21.5379C29.0617 21.5825 29.1635 21.6577 29.1785 21.7295C29.2592 21.6097 29.3849 21.457 29.424 21.3433C29.394 21.5801 29.3731 22.6155 29.4832 23.1424C29.7139 23.1215 29.9503 23.1065 30.1119 22.6903C30.0012 23.0976 30.0012 23.3429 30.076 23.6902C30.1987 23.6065 30.3094 23.4568 30.3094 23.4568L30.3102 23.4574Z" fill="#C0993A"/>
<path fill-rule="evenodd" clip-rule="evenodd" d="M22.5324 6.95693C22.5324 6.95693 22.3019 7.05264 21.9098 7.05264C21.5686 7.05264 21.6643 6.92102 21.1315 6.92102C20.3114 6.92102 17.4465 7.39462 16.9435 7.38791C16.6171 7.38199 18.045 7.52861 18.045 7.52861L21.6943 7.57952L22.4276 7.52032L22.7001 6.96581L22.5324 6.95693Z" fill="#A88F33"/>
<path fill-rule="evenodd" clip-rule="evenodd" d="M13.0697 14.0906C13.0697 14.0906 12.6026 14.4468 12.4051 14.7193C12.2075 14.9918 12.1027 15.1712 11.8782 15.3928C11.9309 15.3948 11.9836 15.3877 12.0339 15.3719C12.0339 15.3719 12.0339 15.4311 11.998 15.4467C12.029 15.4432 12.0604 15.4467 12.0899 15.457C12.1194 15.4672 12.1462 15.4839 12.1685 15.5059C12.1025 15.5418 11.923 15.7216 12.0637 15.9341C12.1685 16.0957 12.3901 16.1105 12.3901 16.1105C12.3901 16.1105 12.3391 16.2573 12.5517 16.2423C13.0097 16.2214 13.5216 16.0207 13.758 16.0716C13.9948 16.1308 14.1294 16.1525 14.2969 16.443C14.4745 16.7303 14.6292 16.7753 14.6292 16.7753C14.6292 16.7753 14.734 16.5087 14.7101 16.1107C14.796 15.8962 14.8436 15.6682 14.8508 15.4372L14.6951 14.2907L14.0157 13.4315L13.1356 13.9195L13.0697 14.09V14.0906Z" fill="#E3C571"/>
<path fill-rule="evenodd" clip-rule="evenodd" d="M13.905 13.9198C13.905 13.9198 13.9709 14.0755 14.2464 14.0903C14.2164 14.1563 14.2164 14.1653 14.2255 14.216C14.2314 14.267 14.2403 14.3417 14.2403 14.3417C14.2706 14.3271 14.298 14.307 14.3212 14.2825C14.3362 14.3485 14.3062 14.453 14.3212 14.528C14.3305 14.5736 14.3455 14.6179 14.366 14.6597C14.3704 14.6494 14.3754 14.6395 14.381 14.6299C14.3869 14.6149 14.4402 14.7915 14.5876 14.9259C14.5875 14.9052 14.5926 14.8848 14.6024 14.8667C14.6047 14.9042 14.6171 14.9404 14.6383 14.9714C14.6273 14.9662 14.6172 14.9591 14.6085 14.9505C14.6085 14.9505 14.6233 15.4241 14.7042 15.669C14.7177 15.6532 14.7298 15.6361 14.7401 15.6181C14.7401 15.6033 14.7342 15.7499 14.7192 15.8549C14.6983 15.9597 14.7133 16.1063 14.7133 16.1063C14.7673 16.0638 14.8266 16.0286 14.8897 16.0015C14.9795 15.9654 15.1265 15.8547 15.2161 15.6092C15.2681 15.4702 15.3082 15.327 15.3359 15.1812C15.3648 15.2369 15.3848 15.2969 15.3951 15.3588C15.4012 15.4336 15.5419 15.3947 15.5419 15.3947L15.5719 15.0683L15.7495 14.3289L15.9111 13.8709L16.6894 12.6587L18.0956 11.5757L19.323 11.8571L20.3586 10.4501L18.5745 9.37842L16.8861 9.55503L15.3538 11.6774L14.1266 13.6023L13.905 13.9197V13.9198Z" fill="#D8B65B"/>
<path fill-rule="evenodd" clip-rule="evenodd" d="M22.7477 10.8486C22.7477 10.8486 22.6429 10.8695 22.3406 11.0262C22.0383 11.1829 21.8287 11.2326 21.7119 11.4631C21.5951 11.6936 21.5862 11.8763 21.5862 11.8763C21.5862 11.8763 21.7928 11.7865 21.9126 11.7565C22.0383 11.7267 22.179 11.7356 22.164 11.7865C22.1496 11.8214 22.1296 11.8537 22.1048 11.8822C22.1048 11.8822 22.3416 11.8763 22.3353 11.9931C22.329 12.1099 22.2905 12.2386 22.2457 12.2954C22.2007 12.3546 22.0152 12.4422 21.9943 12.5111C21.9434 12.6518 22.0152 12.6577 21.9882 12.7714C21.9673 12.8823 21.8686 13.0978 21.5452 13.4749C21.2129 13.8522 21.0716 14.1186 21.0716 14.1186C21.0716 14.1186 20.91 13.8163 20.8261 13.5558C20.7669 13.5856 20.449 13.7622 20.449 13.7622L19.7125 11.1969L19.7273 11.0262C19.7273 11.0262 19.7933 10.9455 19.8082 10.7957C19.6975 10.7598 19.6825 10.7298 19.5357 10.5893C19.3889 10.4488 19.2693 10.2779 19.024 10.1611C18.9881 10.0952 18.9431 10.0056 18.7636 9.96946C18.584 9.93334 18.4762 9.90374 18.4762 9.90374C18.4762 9.90374 18.572 9.86763 18.6169 9.79284C18.506 9.80784 18.4165 9.84376 18.1739 9.83784C17.9285 9.83172 17.9014 9.82284 17.7668 9.84376C17.6323 9.86467 17.4708 9.92466 17.4106 9.71805C17.3447 9.66714 17.204 9.71213 17.0843 9.88855C16.9645 10.065 16.9226 10.2059 16.6922 10.2747C16.676 10.3763 16.6404 10.4739 16.5874 10.562C16.5215 10.673 16.4167 10.7837 16.276 10.9482C16.0544 11.2087 16.0903 11.6367 15.7371 11.9631C15.3809 12.2893 15.7963 11.0589 15.7963 11.0589L16.365 9.69733L17.9845 8.11373L20.4991 7.94324L20.7446 9.24564L21.972 9.66773L22.7473 10.8502L22.7477 10.8486Z" fill="#D3AE4D"/>
<path fill-rule="evenodd" clip-rule="evenodd" d="M23.1461 11.1359L22.0894 9.61231L21.3499 9.0434C21.3499 9.0434 20.8231 8.0737 20.7872 8.0437C20.7572 8.02279 20.2603 7.96892 19.943 7.948L20.0022 8.09462C20.0714 8.11711 20.133 8.15862 20.1798 8.2144C20.3205 8.37601 20.4102 8.68129 20.09 9.00768C20.2157 9.05247 20.2676 9.06688 20.3773 9.05247C20.2666 9.18429 20.0152 9.46569 20.0002 9.71117C19.9852 9.91166 20.1109 9.97145 20.1109 9.97145C20.1109 9.97145 19.9193 10.1931 19.9104 10.5635C20.0009 10.4614 20.0999 10.3673 20.2064 10.2821C20.428 10.1045 20.7333 9.90475 20.9399 9.77905C20.9371 9.8318 20.9442 9.88461 20.9608 9.93475C20.9608 9.93475 21.3468 9.61744 21.6712 9.75814C21.8178 9.82405 21.7519 10.0307 21.7519 10.0307C21.7519 10.0307 21.9526 9.95586 22.0933 10.0966C22.234 10.2373 22.4345 10.5994 22.5363 10.7403C22.5811 10.8062 22.6979 10.9319 22.8175 11.1262C22.9809 11.3987 23.1173 11.6865 23.2248 11.9854C23.2307 11.8657 23.2548 11.6981 23.4616 11.6981L23.1473 11.1353L23.1461 11.1359Z" fill="#CAA13E"/>
<path fill-rule="evenodd" clip-rule="evenodd" d="M7.30424 15.4646C7.30424 15.4646 7.22945 15.2789 7.30424 14.9168C7.37903 14.5547 7.49585 14.384 7.53472 13.8512C7.5736 13.3184 7.9209 12.6538 7.9209 12.6538L8.88172 12.2169L9.56134 12.4024L9.76183 13.3125L8.90264 13.7861C8.90264 13.7861 8.85784 13.9866 8.61532 14.1482C8.3728 14.3098 8.03753 14.4355 7.95682 14.6003C7.90857 14.7012 7.87336 14.8078 7.85203 14.9176C7.85203 14.9176 7.60655 14.8667 7.45993 15.0283C7.30424 15.1931 7.31016 15.3397 7.30424 15.4654V15.4646Z" fill="#F4EFC8"/>
<path fill-rule="evenodd" clip-rule="evenodd" d="M9.24418 15.222C9.24418 15.222 9.16327 15.273 9.10348 15.3996C9.04428 15.3039 8.90279 14.735 8.89687 14.2231C8.89095 13.7113 8.86036 13.5844 8.97876 13.408C9.09716 13.2315 9.56149 13.0457 9.49558 12.7279C9.42967 12.4256 9.15419 12.2999 8.81596 12.3868C8.57916 12.446 8.40294 12.9496 8.15746 13.201C7.97177 13.3926 7.75036 13.3626 7.69057 13.4674C7.60966 13.6081 7.68445 13.7488 7.66058 13.8385C7.65446 13.8685 7.57967 14.0301 7.44489 14.2247C7.17257 14.6168 6.7116 15.1707 6.65161 15.6676C6.67253 15.3862 6.65773 15.3803 6.73252 15.0689L6.68753 14.9941L6.98353 14.0242L7.17514 13.225L7.60335 11.8867L8.35756 10.5188L9.09105 9.69849L9.85433 9.7494L9.94412 10.8959L10.3812 13.0484L11.3002 14.1799L9.8273 15.1711L9.24358 15.222H9.24418Z" fill="#EBCC73"/>
<path fill-rule="evenodd" clip-rule="evenodd" d="M9.70198 15.6288C9.70198 15.6288 9.57628 15.6588 9.53129 15.6349C9.4863 15.6111 9.4417 15.584 9.4565 15.554C9.4713 15.524 9.5522 15.4733 9.5522 15.4493C9.55387 15.4275 9.54698 15.406 9.53302 15.3892C9.51906 15.3724 9.49911 15.3618 9.47742 15.3595C9.40855 15.3506 9.38763 15.3954 9.38763 15.3954C9.38763 15.3954 9.32172 15.3447 9.26804 15.3362C9.2998 15.3323 9.33176 15.3302 9.36375 15.3301C9.28103 15.2926 9.19327 15.2674 9.10327 15.2553C9.17806 15.2105 9.32488 15.0787 9.42058 15.0787C9.51629 15.0787 9.57628 15.0639 9.56128 15.0129C9.54628 14.962 9.4715 14.8872 9.39079 14.8573C9.42058 14.8213 9.4417 14.7675 9.36987 14.6205C9.29488 14.4738 9.32488 14.375 9.34895 14.3392C9.36987 14.2943 9.44466 14.2135 9.48057 14.1626C9.51649 14.1117 9.54648 14.0429 9.60627 14.0069C9.63627 13.986 9.73198 13.9477 9.82788 13.9112C9.93266 13.8753 10.0195 13.8303 10.0793 13.8753C10.1452 13.9201 10.1152 13.9801 10.1152 13.9801C10.1152 13.9801 10.3218 13.9051 10.5073 14.001C10.693 14.0906 11.1451 14.1476 11.1451 14.1476L11.3071 14.474L10.2354 15.393L9.79236 15.6146L9.70257 15.6294L9.70198 15.6288Z" fill="#E5C66B"/>
<path fill-rule="evenodd" clip-rule="evenodd" d="M11.1898 14.1265C11.1898 14.1265 10.8574 14.3481 10.7827 14.4288C10.8274 14.435 10.9022 14.465 10.8722 14.5097C10.8363 14.5545 10.6208 14.7102 10.5011 14.8571C10.3754 15.0037 10.2556 15.1894 10.2137 15.2791C10.1689 15.3599 9.82756 15.5965 9.71094 15.6263C9.95642 15.6263 10.4503 15.3239 10.6358 15.3239C10.6299 15.4137 10.6868 15.5156 10.7915 15.5244C10.8963 15.5333 11.1986 15.5903 11.6057 15.3389C12.0128 15.0935 11.8783 14.9107 12.0487 14.7911C12.3751 14.5755 12.5068 14.3838 12.6863 14.2643C12.8659 14.1447 12.9588 14.1174 12.9588 14.1174C12.9588 14.1174 12.9648 14.0277 13.018 14.0367C13.0326 14.0384 13.0465 14.044 13.0581 14.053C13.0697 14.062 13.0787 14.074 13.084 14.0876C13.084 14.0876 13.3953 13.866 13.7944 13.8063C13.785 13.8021 13.7776 13.7946 13.7734 13.7853C13.7734 13.7853 13.8032 13.7703 13.8094 13.7553C13.8094 13.7553 13.8303 13.7253 13.8453 13.7403C13.8603 13.7553 13.8812 13.866 13.9112 13.911C13.9771 13.881 14.1028 13.5996 14.1028 13.5996L14.4053 12.7345V11.9442L14.1685 11.9892L12.3925 12.7434L11.3147 13.8601L11.189 14.1265H11.1898Z" fill="#E6BD62"/>
<path fill-rule="evenodd" clip-rule="evenodd" d="M16.3025 10.2498C16.3986 10.2265 16.4907 10.1891 16.5758 10.1389C16.5399 10.2348 16.5399 10.3396 16.3842 10.5671C16.2285 10.7947 16.2226 10.8276 16.0969 11.064C15.9712 11.3095 15.9562 11.6627 15.8364 11.8182C15.8901 11.7921 15.9477 11.775 16.0069 11.7675C16.0069 11.7675 15.8874 11.8723 15.8364 11.983C15.7855 12.0937 15.6957 12.3242 15.4743 12.4651C15.2529 12.606 14.9713 12.6956 14.669 13.0279C14.3665 13.3541 14.0553 13.7673 13.8994 13.9159C13.9803 13.7752 14.091 13.4938 14.121 13.3083C14.151 13.1228 14.1149 12.901 14.1658 12.6557C14.2167 12.4104 14.2167 12.2336 14.4618 11.8054C14.7069 11.3772 15.1264 9.88949 15.1264 9.88949L16.0304 9.60217L16.3029 10.2488L16.3025 10.2498Z" fill="#B6933F"/>
<path fill-rule="evenodd" clip-rule="evenodd" d="M15.65 9.70215C15.65 9.70215 15.3777 10.0942 15.3029 10.4416C15.2282 10.7889 15.2968 10.7589 15.252 10.9296C15.2252 11.0336 15.2252 11.1428 15.252 11.2469C15.3463 11.0949 15.4755 10.9676 15.6287 10.8755C15.8863 10.72 16.0958 10.6091 16.2207 10.4775C16.3464 10.3368 16.4512 10.1063 16.7235 9.92967C16.6128 9.91468 16.4571 9.86376 16.4275 9.87047C16.5384 9.74477 16.8706 9.55316 17.2058 9.32267C17.5381 9.08587 17.5172 8.99037 18.0561 8.75396C17.8795 8.78395 17.7957 8.73896 17.6488 8.75396C17.708 8.62826 17.9152 8.56827 18.1224 8.36186C18.3296 8.15545 17.9908 7.84998 17.9908 7.84998L16.4121 8.80487L15.6489 9.70294L15.65 9.70215Z" fill="#C49937"/>
<path fill-rule="evenodd" clip-rule="evenodd" d="M11.3665 8.98949L11.4024 8.70217L11.8545 7.97776L12.3275 6.70555V4.96626L12.2916 3.96045L12.3663 3.30175L12.4232 3.09238L12.4832 3.01147L12.8692 3.21197L13.4021 3.93638L13.4531 5.33448L12.9351 7.54067L11.4562 9.15426L11.3665 8.98949Z" fill="#DFC068"/>
<path fill-rule="evenodd" clip-rule="evenodd" d="M12.543 2.93064C12.543 2.93064 12.3062 2.93675 12.2557 3.92165C12.2051 4.90654 12.1807 5.42434 12.1448 5.91234C12.1088 6.40035 12.0252 6.69655 11.9831 6.98406C11.9411 7.27158 11.9172 7.66348 11.7826 7.90304C11.7234 8.01375 11.597 8.36105 11.3006 8.62153C10.9683 8.90885 10.4718 9.10954 10.3966 9.12454C10.2648 9.15433 9.59718 9.22024 9.32487 9.37002C9.22916 9.42093 9.06439 9.48072 8.88185 9.65142C8.51955 9.97761 8.03766 10.5613 7.69035 11.2648C7.15756 12.3156 6.62476 15.2821 6.62476 15.2821L6.74454 15.0816C6.74454 15.0816 6.75953 14.8152 7.02593 14.3481C7.28641 13.8813 7.21162 13.3573 7.57373 12.4622C7.71443 12.121 7.89104 11.678 8.10653 11.3007C8.44792 10.687 8.86093 10.1601 9.27711 9.87283C9.95653 9.40593 10.705 9.30411 10.705 9.30411L11.5103 8.77131C11.5103 8.77131 11.651 8.49899 11.8367 8.1876C12.097 7.7507 12.4287 7.2627 12.5011 6.55328C12.612 5.50248 12.3454 4.81399 12.3604 4.1914C12.3754 3.56881 12.3814 3.1108 12.5073 2.9999C12.6332 2.889 12.5432 2.93103 12.5432 2.93103L12.543 2.93064Z" fill="#A88F33"/>
<path fill-rule="evenodd" clip-rule="evenodd" d="M12.5429 7.63045C12.5429 7.63045 12.8981 6.75626 13.0607 5.98094C13.0907 5.82525 13.1505 5.66975 13.1655 5.54405C13.2402 4.81056 13.2612 4.50824 13.1655 4.10706C13.0907 3.81106 12.8034 3.54427 12.6536 3.33746C12.507 3.12178 12.4381 3.04146 12.4681 2.99608C12.4981 2.95069 12.6147 2.87649 12.7284 2.88537C12.8492 2.88889 12.968 2.91694 13.0777 2.96783C13.1873 3.01872 13.2855 3.09137 13.3661 3.18137C13.5966 3.44777 13.7792 4.35195 13.7792 4.35195L13.9712 5.54503L14.4592 7.04773L12.5433 7.63164L12.5429 7.63045Z" fill="#C99E3D"/>
<path fill-rule="evenodd" clip-rule="evenodd" d="M15.8804 6.72058C15.8804 6.72058 15.8145 6.75038 15.6949 6.72058C15.7 6.76945 15.6915 6.81878 15.6704 6.86314C15.6493 6.9075 15.6163 6.94516 15.5751 6.97199C15.4494 6.92108 14.2727 7.0229 14.2727 7.0229C14.2727 7.0229 13.725 6.927 13.5543 6.20258C13.4347 5.7205 13.644 5.05608 13.5752 4.61898C13.4704 3.97528 13.3238 3.84938 13.3088 3.64909C13.2938 3.4488 13.2788 3.39769 13.2788 3.27199C13.2129 3.25699 13.174 3.23607 13.1083 3.23607C13.0933 3.17687 13.1231 3.12517 13.0574 3.02039C13.0933 3.03538 13.3388 3.06538 13.6261 3.3377C13.8629 3.5593 13.8629 3.64001 13.8986 3.685C13.9434 3.7298 14.3057 4.0402 14.4614 4.34962C14.6171 4.65904 14.9194 5.64571 14.9883 5.80733C15.0092 5.87324 15.0542 5.93914 15.1659 6.08872C15.3395 6.30441 15.5939 6.66099 15.8812 6.72019L15.8804 6.72058Z" fill="#B58634"/>
<path fill-rule="evenodd" clip-rule="evenodd" d="M13.9409 3.69995C14.1223 3.99289 14.2852 4.29685 14.4287 4.61005C14.6053 5.00807 14.7101 5.33446 14.9317 5.60086C14.8119 5.25375 14.5994 4.57118 14.4737 4.32866C14.333 4.07212 14.0457 3.79586 13.9409 3.70015V3.69995Z" fill="#A88F33"/>
<path fill-rule="evenodd" clip-rule="evenodd" d="M11.9053 8.62153C11.9053 8.62153 11.603 8.69632 11.0402 8.99272C10.8545 9.08843 10.6781 9.16914 10.5074 9.24412C10.064 9.44461 9.58845 9.62991 9.21115 9.73213C9.24114 9.76804 9.25594 9.78284 9.25594 9.78284C9.25594 9.78284 9.25594 9.92966 9.33685 10.0133C9.29205 10.0583 8.69315 10.4654 8.86996 11.8274C8.98954 11.7826 9.13024 11.7226 9.15116 11.7226C9.18727 11.7287 9.19615 11.8274 9.24095 11.8274C9.28574 11.8274 9.43256 11.7682 9.58825 11.5669C9.58233 11.6478 9.49255 12.462 9.97443 13.0098C10.0642 12.9051 10.2917 12.5577 10.2917 12.5577L10.2977 12.447C10.2977 12.447 10.3186 12.0609 10.4445 11.7076C10.5704 11.3544 10.8157 11.0939 10.8157 11.0939L12.0966 9.26484L11.9049 8.62134L11.9053 8.62153Z" fill="#E6C367"/>
<path fill-rule="evenodd" clip-rule="evenodd" d="M10.7079 11.3071C10.6493 11.3486 10.5847 11.3809 10.5163 11.4029C10.4954 11.3281 10.4654 11.0705 10.642 10.8191C10.8486 10.5166 11.3005 10.1245 11.4262 9.81274C11.5071 9.61205 11.4712 9.10925 12.1897 8.46555C12.9082 7.82184 13.1894 7.60044 13.1894 7.60044L14.3509 7.01672L15.7788 7.57952L15.0694 10.3599L14.5186 11.6623L12.3282 11.2493L10.7077 11.3071H10.7079Z" fill="#DCBA5A"/>
<path fill-rule="evenodd" clip-rule="evenodd" d="M11.5439 10.5522L11.8165 10.211V9.96849C11.8165 9.96849 12.1188 9.88759 12.445 9.55528C12.7712 9.22297 13.2233 8.58538 13.6215 8.62426C14.0197 8.66925 14.0586 9.48937 14.0736 9.72005C14.0886 9.95073 14.1395 10.4743 14.2202 10.7559C14.31 11.0373 13.2503 12.1029 13.2503 12.1029L12.5306 12.6507L11.5439 10.5522Z" fill="#E9CE77"/>
<path fill-rule="evenodd" clip-rule="evenodd" d="M12.3872 13.393C12.3872 13.393 12.6088 13.0457 12.4464 12.9709C12.5421 12.7554 12.7187 12.5279 12.7187 12.5279C12.7187 12.5279 12.8444 12.2167 13.2515 11.8335C13.6586 11.4503 13.9102 11.1957 13.9761 10.9384C14.0168 10.7707 14.0389 10.599 14.042 10.4265C14.0861 10.4625 14.1331 10.4945 14.1827 10.5222C14.2486 10.5522 14.5598 10.8095 14.515 11.3275C14.4703 11.8455 14.2782 12.061 14.2782 12.061C14.2782 12.061 14.0928 12.2465 13.9611 12.3424C13.8202 12.4381 13.7695 12.5488 13.5329 12.5579C13.5572 12.5386 13.5846 12.5234 13.6138 12.5129C13.6138 12.5129 13.3683 12.4831 13.2365 12.6027C13.1047 12.7223 12.8245 13.0907 12.6838 13.2016C12.5431 13.2914 12.3878 13.3932 12.3878 13.3932L12.3872 13.393Z" fill="#CDAE50"/>
<path fill-rule="evenodd" clip-rule="evenodd" d="M22.3406 7.57048C21.9869 7.44158 21.6153 7.36887 21.2391 7.35499C20.6104 7.33407 19.6914 7.36999 18.7904 7.37591C17.8205 7.38183 16.9404 7.0436 15.7191 6.9838C15.5186 6.86402 15.0087 6.3401 13.417 7.4507C13.5127 7.44478 14.5726 7.20521 14.9406 7.66638C15.3118 8.12439 15.207 8.90267 15.1563 9.08817C15.0604 9.50138 14.749 10.1031 14.6235 10.5251C14.498 10.9472 14.5276 11.169 14.4378 11.465C14.348 11.761 14.1505 11.9081 14.2671 12.2493C14.4228 12.1535 14.5039 12.1535 14.764 11.5698C15.0241 10.9861 14.9706 10.5699 15.4018 10.076C15.8239 9.57913 16.5266 8.89952 16.7938 8.72882C17.0609 8.55813 19.1825 7.45662 21.4039 8.50742C21.9396 8.45058 22.3408 7.57028 22.3408 7.57028L22.3406 7.57048Z" fill="#D2A83E"/>
<path fill-rule="evenodd" clip-rule="evenodd" d="M14.312 7.16323C14.3098 7.14074 14.3048 7.1186 14.2972 7.09733C14.2764 7.05355 14.2491 7.01316 14.2163 6.97754C14.2163 6.97754 13.6894 6.88184 13.423 6.91163C12.9559 6.96255 12.5338 7.54034 12.3363 7.83673C12.1387 8.13313 11.8933 8.59094 11.6269 8.82755C11.6298 8.8045 11.6245 8.78116 11.6119 8.76164C11.6119 8.76164 11.6269 8.78255 11.5971 8.81255C11.5673 8.84254 11.5671 8.85734 11.5821 8.87175L11.627 8.91654C11.6418 8.91654 12.0551 8.73085 12.6179 8.20614C13.2166 7.65834 13.6746 7.37734 13.9141 7.28104C14.0419 7.22675 14.1754 7.18722 14.3122 7.16323H14.312Z" fill="#C29637"/>
<path fill-rule="evenodd" clip-rule="evenodd" d="M24.532 4.91235C24.532 4.91235 24.4361 5.03194 24.3163 5.16376C24.0499 5.44515 23.7026 5.76227 23.4062 6.08866C23.125 6.40005 22.8077 6.64257 22.4513 7.04967C22.0949 7.45677 21.6817 7.90866 21.5771 8.04048C21.4814 8.1723 21.4066 8.38779 21.4066 8.49849C21.3557 8.46258 21.2959 8.4237 21.2959 8.4237C21.3211 8.4707 21.3512 8.51489 21.3857 8.55552C21.4605 8.66031 21.5771 8.79232 21.6371 8.87283C21.7107 8.97533 21.7635 9.09124 21.7926 9.21402C21.8285 9.21994 22.059 9.26494 22.3465 8.79193C22.634 8.31892 23.0109 7.80112 23.0109 7.80112L23.6096 6.91193L23.9869 6.15772L24.4605 5.31353L24.5326 4.91235H24.532Z" fill="#AC8132"/>
<path fill-rule="evenodd" clip-rule="evenodd" d="M25.1458 4.30786C25.1458 4.30786 24.7835 4.60386 24.6428 4.78146C24.5021 4.95906 24.1692 5.42517 24.1692 5.42517L24.289 5.41017L24.8968 4.87145L25.1336 4.44935L25.1456 4.30865L25.1458 4.30786Z" fill="#A88F33"/>
<path fill-rule="evenodd" clip-rule="evenodd" d="M25.0348 28.0974C25.0348 28.0974 25.0289 27.8519 25.1666 27.7053C25.3073 27.5585 25.6635 27.343 26.0108 26.5347C26.3581 25.7264 26.3968 25.5439 26.3968 25.5439C26.3968 25.5439 25.7742 26.0767 25.3904 26.2024C25.4802 26.0167 25.5311 25.8851 25.5761 25.7892C25.5252 25.7444 25.3097 25.6935 25.2888 25.6696C25.4083 25.5498 25.4742 25.2564 25.7168 25.0618C26.0282 24.825 26.5969 24.4181 27.0389 24.0554C27.4809 23.6927 28.35 22.8491 28.4609 22.6036C28.5268 22.6993 28.5416 22.7591 28.5416 22.7591C28.5416 22.7591 28.1047 23.328 27.8772 23.6902C27.6765 24.0015 27.6915 24.1782 27.6915 24.1782L28.1047 24.0006C28.1047 24.0006 28.2243 24.4436 27.6826 25.1173C27.9194 25.0275 28.0149 25.0814 28.1495 25.0064C27.9279 25.1473 27.6226 25.3389 27.3353 25.8656C27.0539 26.3924 26.6707 27.0061 26.0242 27.3892C25.3955 27.7933 25.0332 28.0956 25.0332 28.0956L25.0348 28.0974Z" fill="#A67A2E"/>
<path fill-rule="evenodd" clip-rule="evenodd" d="M23.4125 7.88208C23.4125 7.88208 23.167 8.39376 23.1311 8.79198C23.1252 8.88788 23.1011 8.96267 23.1011 9.07338C23.0952 9.42956 23.122 9.82778 23.0419 10.0133C23.0119 9.93849 22.9969 9.88757 22.9669 9.85778C22.9221 9.98348 22.8412 10.3756 22.7753 10.5222C22.7455 10.4265 22.6796 10.0942 22.6857 9.70208C22.6918 9.30998 22.7005 9.23499 22.7005 9.15428C22.6857 9.27387 22.6048 9.43568 22.5748 9.53139C22.53 9.45068 22.4791 9.34589 22.4191 9.25907C22.3832 9.31827 22.3384 9.40569 22.2995 9.45068C22.2934 9.41476 22.2786 9.31886 22.2695 9.18428C22.2636 9.02858 22.2545 8.82809 22.2636 8.78606C22.2784 8.70535 22.4043 8.38804 22.6707 8.09756C22.988 7.75026 23.3144 7.08288 23.4101 6.87627C23.5058 6.66966 23.9129 5.81067 23.9129 5.81067H24.2243L23.7722 6.84035C23.7722 6.84035 23.4999 7.40315 23.3592 7.60995C23.2185 7.81676 22.9221 8.40935 22.7903 8.63984C22.886 8.51413 22.9669 8.44822 23.0628 8.32844C23.1556 8.24458 23.4129 7.88247 23.4129 7.88247L23.4125 7.88208Z" fill="#8C6228"/>
<path fill-rule="evenodd" clip-rule="evenodd" d="M25.1516 4.2688C25.1007 4.42535 25.0203 4.57071 24.9148 4.69701C24.7291 4.91862 24.3309 5.21481 24.1365 5.45122C23.9589 5.68171 23.6037 6.31041 23.7651 7.05574C23.8243 6.89412 23.9358 6.57385 24.2322 6.21155C24.5286 5.84924 24.8459 5.43326 25.0018 5.11003C25.1573 4.78364 25.1782 4.52632 25.1782 4.52632L25.2374 4.45153L25.2015 4.28084L25.1506 4.2688H25.1516Z" fill="#CBA94C"/>
<path fill-rule="evenodd" clip-rule="evenodd" d="M31.2135 24.1248C31.2135 24.1248 31.0937 23.7986 31.0578 23.5022C31.0219 23.2058 31.117 23.147 31.0069 22.8078C30.941 22.6012 30.8214 22.6302 30.7914 22.6012C30.7614 22.5722 30.7405 22.26 30.7464 22.0893C30.7523 21.9186 30.7405 21.6972 30.7105 21.6013C30.6657 21.5654 30.6357 21.5354 30.5698 21.314C30.495 21.0924 30.4591 20.9817 30.4232 20.9159C30.3873 20.8502 30.2823 20.7902 30.2823 20.7243C30.2823 20.5925 30.4021 20.5238 30.4021 20.4875C30.3961 20.4127 30.3064 20.4727 30.2823 20.4516C30.2525 20.4157 30.3573 20.2002 30.3184 20.1702C30.3034 20.1554 30.1986 20.2811 30.1716 20.2452C30.1416 20.2091 30.1057 19.8529 30.0518 19.6165C30.0011 19.386 29.947 19.2185 29.9411 19.1496C29.9352 19.0837 29.5279 17.9222 29.4292 17.6408C29.3497 17.403 29.2828 17.1612 29.2287 16.9164C29.1987 16.7757 29.1778 16.4882 29.1628 16.5182C29.1478 16.5482 29.1569 16.6948 29.1328 16.6889C29.1119 16.6828 29.0371 16.1711 29.0132 16.0902C28.9923 16.0093 28.8664 15.735 28.8356 15.5364C28.8056 15.3358 28.7399 14.8118 28.6949 14.4556C28.6499 14.0995 28.629 13.9528 28.629 13.8636C28.6364 13.6455 28.6244 13.4271 28.5931 13.2111C28.5339 12.8338 28.4155 12.3758 28.3117 12.1096C28.1112 11.6065 27.5782 10.3193 27.4829 9.99907C27.4829 9.91817 27.5877 9.96316 27.5877 9.96316C27.5877 9.96316 27.848 10.6157 28.0396 11.1185C28.2253 11.6215 28.4019 12.0646 28.4469 12.1096C28.4828 12.1543 28.7642 12.6483 28.8899 13.4565C29.0156 14.2648 29.0604 15.0102 29.1354 15.507C29.1713 15.7438 29.2013 15.995 29.2761 16.2464C29.3568 16.519 29.4825 16.8004 29.6473 17.2313C29.788 17.5936 29.8927 17.896 29.9496 18.1564C30.0155 18.4887 30.0155 18.7401 30.0544 18.9049C30.0905 19.0456 30.1441 19.3268 30.27 19.7337C30.3959 20.1406 30.5812 20.6647 30.7069 20.9909C30.9526 21.6435 31.0621 22.1884 31.0992 22.4788C31.132 22.7782 31.2429 23.814 31.2129 24.1252L31.2135 24.1248Z" fill="#A88F33"/>
<path fill-rule="evenodd" clip-rule="evenodd" d="M25.1666 4.23285L25.1516 4.26876C25.1516 4.26876 25.1964 4.28376 25.1875 4.34375C25.1882 4.42582 25.1832 4.50784 25.1726 4.58923C25.1578 4.69402 25.1278 4.77472 25.1218 4.84063C25.1218 4.98133 25.1428 5.14295 24.9442 5.54413C24.885 5.65483 24.8485 5.75054 24.8185 5.81645C24.7437 5.97806 24.7288 6.00214 24.6628 6.07693C24.7676 6.01773 25.1449 5.78093 25.3363 5.81645C25.2047 5.89124 25.004 6.03805 24.8783 6.22966C24.9083 6.23558 25.034 6.25966 25.2335 6.22966C25.5658 6.17875 25.937 6.05897 26.2632 6.08285C26.6196 6.10377 26.4789 5.65483 26.4789 5.65483L26.0677 4.75085L25.2894 4.20325L25.1666 4.23304V4.23285Z" fill="#BE9C44"/>
<path fill-rule="evenodd" clip-rule="evenodd" d="M27.1963 11.0043C27.1963 11.0043 26.849 10.657 26.7083 9.46513C26.5676 8.26771 26.5976 6.50513 26.5976 6.50513L26.3162 5.81663C26.3162 5.81663 26.257 5.35862 26.1096 5.18812C25.9622 5.01763 25.6727 4.73011 25.5409 4.58941C25.409 4.44872 25.2595 4.2571 25.1697 4.22711C25.2145 4.15232 25.4152 3.73022 26.1844 3.7243C26.9536 3.71838 27.1908 4.1464 27.2711 4.3021C27.3514 4.45779 27.7141 5.1309 27.8487 6.41356C27.9744 7.69465 27.9805 7.79056 27.9596 8.23357C27.9446 8.47905 27.8637 9.04777 27.7228 9.65536C27.5941 10.1704 27.4534 10.7452 27.1959 11.0055L27.1963 11.0043Z" fill="#A17C34"/>
<path fill-rule="evenodd" clip-rule="evenodd" d="M26.1072 12.0251C26.223 12.0335 26.3386 12.0074 26.4395 11.9501C26.5502 11.9442 26.9514 11.9951 27.2597 11.603C27.2806 11.6926 27.3347 11.9353 27.1938 12.1508C27.2687 12.0758 27.3794 12.046 27.3944 12.0251C27.4004 12.1358 27.5051 12.477 27.0621 13.3062C27.1817 13.1746 27.3224 13.1805 27.4481 13.1655C27.4542 13.3212 27.5379 13.8449 27.3165 14.1265C27.1699 14.3181 26.9303 14.2581 26.9303 14.2581C26.9338 14.2163 26.9338 14.1743 26.9303 14.1324C26.9244 14.0515 26.8944 13.9708 26.9155 13.917C26.7998 13.8641 26.6943 13.7911 26.6041 13.7013C26.3436 13.4558 26.0054 13.0369 25.9815 12.7255C25.9515 12.3782 26.2629 12.3034 26.2629 12.3034C26.2368 12.28 26.2146 12.2527 26.197 12.2225C26.182 12.1717 26.167 12.0908 26.1072 12.0251Z" fill="#8C6228"/>
<path fill-rule="evenodd" clip-rule="evenodd" d="M23.7983 8.25921C23.7983 8.25921 23.7833 8.23829 23.7026 8.334C23.7176 8.23829 23.7326 8.14831 23.7386 8.06148C23.7768 7.98109 23.8262 7.90655 23.8854 7.84007C23.8404 7.92966 23.8104 8.01057 23.8104 8.01057C23.8104 8.01057 23.9213 7.80396 24.0829 7.67826C24.1936 7.58847 24.3343 7.54664 24.3941 7.46277C24.46 7.37298 24.445 7.35799 24.46 7.34299C24.46 7.34299 24.6068 7.24728 24.8314 6.96569C24.8612 6.92977 24.9062 6.8909 24.9362 6.85498C24.9869 6.83407 25.1067 6.78019 25.2474 6.70817C25.3942 6.62746 25.5587 6.51675 25.6606 6.47137C25.8611 6.38158 26.0738 6.39066 26.1725 6.24976C26.2472 6.22884 26.328 6.00428 26.3132 5.81287C26.4239 5.85766 26.9926 6.21089 27.1873 6.98325C27.328 7.53105 27.0764 8.37524 26.9717 8.78254C26.8669 9.18983 26.8521 9.49195 26.7053 9.67744C26.5196 9.92312 25.9211 10.2694 25.7742 10.4409C25.6485 10.5816 25.2714 10.9378 25.2862 11.1951C25.3012 11.3867 25.5376 11.4911 25.5887 11.5274C25.6399 11.5638 25.6395 11.6083 25.7354 11.5866C25.8313 11.5649 25.867 11.5207 25.9061 11.5207C25.9509 11.5267 25.9508 11.5357 25.9718 11.5357C25.9869 11.5353 26.002 11.5332 26.0168 11.5296C26.0168 11.5296 26.0018 11.8021 25.3642 11.8848C25.3192 11.8909 25.2744 11.9057 25.2174 11.9148C25.2924 11.8789 25.3371 11.8789 25.418 11.7682C25.3283 11.7532 25.0707 11.7382 25.0048 11.7173C25.0258 11.6814 25.0946 11.5855 25.1515 11.5407C25.2024 11.4959 25.1455 11.4815 25.1007 11.5047C25.0236 11.5572 24.9496 11.6141 24.8791 11.6752C24.8043 11.7412 24.7384 11.8309 24.6187 11.912C24.5827 11.7923 24.5887 11.5647 24.7296 11.4002C24.6934 11.4061 24.6246 11.5109 24.5589 11.4899C24.547 11.3808 24.5541 11.2703 24.5798 11.1636C24.6157 11.0288 24.8103 10.7924 24.8103 10.7924L25.7502 9.11287L25.9507 7.84066L23.7983 8.25881V8.25921Z" fill="#92723A"/>
<path fill-rule="evenodd" clip-rule="evenodd" d="M23.7477 8.33107C23.7477 8.33107 23.6968 8.36698 23.7986 8.43585C23.7836 8.45677 23.7477 8.53156 23.7027 8.58247C23.652 8.64167 23.5979 8.67837 23.577 8.72928C23.5322 8.83407 23.4963 8.9059 23.4963 8.95089C23.4963 8.99588 23.4813 9.2832 23.3556 9.46869C23.3106 9.5346 23.2597 9.64531 23.2238 9.7201C23.149 9.85172 23.0831 9.9569 23.0681 10.0161C23.0383 10.1209 23.0174 10.4082 23.0174 10.4082C23.0174 10.4082 23.0833 10.3273 23.1072 10.2975C23.071 10.3723 23.0322 10.453 22.9753 10.513C23.0113 10.483 23.116 10.4082 23.2927 10.2525C23.5381 10.0461 23.9214 9.69878 24.3884 9.4237C24.2476 9.47461 24.128 9.47461 24.0323 9.48961C24.1071 9.41482 24.7806 8.6245 25.1338 8.54971C25.1552 8.52252 25.1659 8.48838 25.1638 8.45381L24.8613 8.42401L24.2476 8.55563L24.158 8.08203L23.7477 8.33047V8.33107Z" fill="#B18E3E"/>
<path fill-rule="evenodd" clip-rule="evenodd" d="M24.7238 11.0252C24.7238 11.0252 24.6429 11.1059 24.5681 11.3066C24.5105 11.2465 24.4611 11.179 24.4213 11.1059C24.3106 10.9204 24.1401 10.6838 23.7418 10.8186C23.7359 10.6929 23.7269 10.627 23.7418 10.5372C23.8078 10.5224 24.0083 10.3608 24.2087 10.1242C24.3496 9.96256 24.4813 9.77687 24.571 9.54046C24.6302 9.49547 24.7327 9.42068 24.867 9.33385C25.0587 9.20223 25.2891 9.02246 25.3251 8.82197C25.2353 8.85788 25.0437 8.94767 24.7561 8.93287C24.867 8.88196 25.0375 8.82809 25.0166 8.60648C25.0616 8.57649 25.0975 8.55557 25.0975 8.55557C25.0638 8.54432 25.0283 8.53923 24.9927 8.54057C24.9866 8.51966 24.9777 8.48986 24.9268 8.50466C24.8759 8.51946 24.8676 8.51966 24.8609 8.54057C24.84 8.54669 24.7711 8.54057 24.7202 8.57668C24.6693 8.6128 24.5286 8.73218 24.4747 8.7531C24.4957 8.71719 24.5255 8.66351 24.5255 8.66351C24.5255 8.66351 24.3788 8.67831 24.2741 8.72271C24.0824 8.78862 23.861 8.9084 23.6365 9.02503C23.6574 8.98911 23.6665 8.96583 23.6813 8.95912C23.6961 8.95241 23.7322 8.94432 23.7322 8.9382C23.7322 8.93208 23.7174 8.879 23.7263 8.85749C23.7934 8.71526 23.8726 8.57906 23.9631 8.45039C24.0678 8.3095 24.0888 8.109 24.0888 8.109L24.5468 7.87852L25.834 7.58252L26.6693 7.63343L26.5645 8.21122L26.0712 9.21999L25.6491 10.139L25.167 10.702L24.724 11.0252H24.7238Z" fill="#543E26"/>
<path fill-rule="evenodd" clip-rule="evenodd" d="M26.8101 8.52485C26.8101 8.52485 26.3071 9.14744 26.1664 9.24334C26.2562 9.05173 26.8101 7.91114 27.0106 7.59383C26.9658 7.55792 26.9058 7.55792 27.0465 7.00183C26.9269 7.28303 26.8849 7.42985 26.7862 7.50464C26.6876 7.57943 26.6753 7.55555 26.6086 7.55555C26.6212 7.53277 26.6264 7.50662 26.6234 7.48076C26.6234 7.48076 26.2013 7.42985 25.913 7.42985C25.6247 7.42985 25.054 7.58554 24.7365 7.71124C24.4851 7.81603 24.3444 7.81603 24.2546 7.88174C24.1648 7.95653 24.1139 8.03744 24.0689 8.05835C24.033 8.07927 23.8625 8.13314 23.8234 8.18998C23.7875 8.24918 23.7277 8.31568 23.7277 8.33067C23.7277 8.34567 23.7127 8.36679 23.7577 8.35159C23.7725 8.34567 23.8834 8.28568 24.0091 8.21089C24.1796 8.11519 24.3862 8.00448 24.536 7.93857C24.964 7.76788 25.0988 7.79787 25.2902 7.76196C25.4907 7.72604 25.7782 7.64218 25.9697 7.64218C26.1613 7.63626 26.5236 7.64218 26.6074 7.65717C26.5715 7.68717 26.5415 7.72308 26.5565 7.84879C26.5565 7.8847 26.5265 7.92357 26.4973 8.0104C26.4077 8.25588 26.237 8.66298 26.1421 8.86959C26.0105 9.15079 25.8609 9.38739 25.7869 9.53401C25.7129 9.68063 25.5501 10.0668 25.3889 10.2734C25.2277 10.48 25.1434 10.6057 25.0929 10.6507C25.0424 10.6957 24.6797 10.9619 24.7067 11.0578C24.7726 11.0369 25.1888 10.8802 25.4909 10.54C25.793 10.1998 25.8532 9.99222 26.0896 9.80653C26.326 9.62084 26.5117 9.30964 26.6224 9.05232C26.7152 8.81276 26.6943 8.73797 26.8109 8.52544L26.8101 8.52485Z" fill="#806031"/>
<path fill-rule="evenodd" clip-rule="evenodd" d="M15.9705 13.1716C15.9705 13.1716 15.9046 13.4439 15.7549 13.5787C15.6082 13.7105 15.3478 13.8242 15.318 14.0458C15.282 14.2672 15.5784 14.3781 15.5784 14.3781C15.5784 14.3781 15.4166 14.6445 15.4166 14.845C15.4166 15.0516 15.4107 15.0905 15.4316 15.288C15.4079 15.3033 15.3877 15.3235 15.3724 15.3472C15.3724 15.3472 15.3872 15.5388 15.534 15.6584C15.6809 15.778 15.8064 15.85 15.8812 15.82C15.8926 15.8444 15.9026 15.8695 15.9111 15.895C15.9111 15.895 16.022 15.6136 16.0968 15.3681C16.1716 15.1167 16.2375 15.1525 16.2673 14.8142C16.2971 14.476 16.6225 13.8952 16.6225 13.8952L16.8445 13.399L16.4824 13.1176L15.9705 13.1714V13.1716Z" fill="#B6903C"/>
<path fill-rule="evenodd" clip-rule="evenodd" d="M16.6442 13.6594C16.5695 13.7361 16.5006 13.8181 16.4379 13.9049C16.3422 14.0367 16.2674 14.1563 16.1267 14.2074C15.9861 14.2585 15.8963 14.2581 15.9051 14.399C15.914 14.5399 16.0458 14.5995 16.1206 14.6713C16.2015 14.7461 16.2674 14.8718 16.2315 15.0127C16.2763 14.9918 16.3572 14.9677 16.432 14.8061C16.5068 14.6445 17.0299 13.6596 17.0299 13.6596H16.6442V13.6594Z" fill="#685026"/>
<path fill-rule="evenodd" clip-rule="evenodd" d="M18.7073 11.3873C18.7073 11.3873 18.7521 11.2677 18.7073 11.1809C18.6623 11.0911 18.39 11.0611 18.2552 10.9593C18.1145 10.8545 17.9438 10.7817 17.8031 10.8277C17.824 10.7768 17.9079 10.6659 17.839 10.642C17.7731 10.6211 17.5278 10.7318 17.4619 10.7827C17.396 10.8336 17.2462 10.8934 17.2164 10.9295C17.1866 10.9656 17.1355 11.0343 17.1055 11.0043C17.0755 10.9834 17.0607 10.9295 17.0098 10.9593C16.9589 10.9891 16.7138 11.1898 16.6686 11.3066C16.6235 11.4234 16.5218 11.6839 16.2166 11.9801C15.9113 12.2763 15.7795 12.4681 15.8693 12.5788C15.959 12.6895 16.0011 12.6088 16.0161 12.7045C16.0276 12.7985 16.0225 12.8937 16.0011 12.9859C15.9652 13.1416 15.9054 13.2882 15.9861 13.3182C16.1927 13.3841 16.3934 13.259 16.4382 13.2973C16.5279 13.378 16.3873 13.6685 16.5998 13.7253C16.8155 13.7845 17.028 13.6744 17.028 13.6744L17.8122 13.2523L18.5666 12.8543L18.9526 12.0908L18.7456 11.4532L18.7061 11.3873H18.7073Z" fill="#D4B968"/>
<path fill-rule="evenodd" clip-rule="evenodd" d="M17.9671 13.2105C17.9671 13.2105 17.8353 13.01 17.9971 12.8332C18.1589 12.6563 18.3892 12.5817 18.479 12.471C18.4619 12.45 18.439 12.4344 18.4131 12.4263C18.4727 12.3196 18.5636 12.2338 18.6736 12.1806C18.6288 12.1358 18.5688 12.0999 18.5031 12.0999C18.3563 12.0999 18.2663 12.1896 18.1317 12.1896C18.0001 12.1896 17.9851 12.1237 17.9851 12.1237C17.9851 12.1237 18.2067 12.1028 18.1856 12.004C18.1647 11.8992 18.1264 11.8992 18.1264 11.8992C18.1264 11.8992 18.5544 11.7216 18.6292 11.6269C18.704 11.5321 18.6951 11.4202 18.7101 11.3755C18.7608 11.3755 19.0572 11.2198 19.177 11.2857C19.2967 11.3516 19.2129 11.5311 19.2129 11.5311C19.2129 11.5311 19.5754 11.2586 19.7601 10.9914C19.9217 11.0064 19.9969 10.8807 20.1153 10.8807C20.2621 10.8807 20.4926 11.0812 20.5374 11.5092C20.5674 11.7547 20.6122 11.8954 20.5674 12.3296C20.5465 12.575 20.5524 13.0992 20.6266 13.3592C20.6773 13.5659 20.7971 13.5449 20.7971 13.5449C20.7787 13.6079 20.7423 13.6641 20.6923 13.7065C20.6114 13.7813 20.6025 13.9791 20.6114 14.0539C20.6233 14.1085 20.6383 14.1625 20.6564 14.2155C20.6564 14.2155 20.5607 14.3262 20.5366 14.4012C20.5157 14.476 20.417 14.5269 20.345 14.5269C20.273 14.5269 20.3091 14.5207 20.2134 14.5269C20.1176 14.533 20.0877 14.5478 20.0277 14.5269C19.9677 14.5059 19.9229 14.4819 19.947 14.2901C19.9679 14.0985 19.2076 13.6525 19.2076 13.6525L17.9644 13.2095L17.9671 13.2105Z" fill="#CCA849"/>
<path fill-rule="evenodd" clip-rule="evenodd" d="M16.5393 15.1023C16.5393 15.1023 16.8116 15.4646 17.9313 15.4646C18.4641 15.4646 18.6498 15.4137 18.7601 15.3837C18.8799 15.3537 19.3288 15.1773 19.7809 14.6443C20.188 14.1624 20.0982 13.9649 20.0982 13.9649L19.8614 13.929L19.0918 14.0337L16.8146 15.0036L16.5383 15.1023H16.5393Z" fill="#585136"/>
<path fill-rule="evenodd" clip-rule="evenodd" d="M17.3744 15.1921C17.3744 15.1921 16.4045 15.4077 16.4045 14.794C16.4045 14.1953 17.0033 13.5666 17.153 13.4559C17.3087 13.345 17.6799 13.2191 17.6799 13.2191H18.575L18.7455 13.6712L18.6707 14.647L17.3744 15.1919V15.1921Z" fill="#252211"/>
<path fill-rule="evenodd" clip-rule="evenodd" d="M18.2694 13.402C18.2694 13.402 18.0839 13.2313 17.6618 13.4612C17.2397 13.6911 16.8983 14.1716 16.8774 14.6079C16.8565 14.9939 17.1947 15.2814 17.7216 15.2964C18.1137 15.3112 18.3503 15.2664 18.4701 15.2372C18.4401 15.2013 18.2844 15.0067 18.2844 15.0067L18.2696 13.4022L18.2694 13.402Z" fill="#C3B378"/>
<path fill-rule="evenodd" clip-rule="evenodd" d="M18.087 13.4976C18.087 13.4976 18.0422 13.4617 17.9094 13.5335C17.7987 13.5927 17.6371 13.7492 17.5114 13.8599C17.4305 13.9258 17.3796 13.9556 17.3338 14.0065C17.1481 14.2282 16.9924 14.5905 17.0824 14.77C17.1724 14.9496 17.4686 15.1562 18.223 15.0155L18.0848 13.4978L18.087 13.4976Z" fill="#E6D89C"/>
<path fill-rule="evenodd" clip-rule="evenodd" d="M17.8416 13.869C17.8416 13.869 17.7218 14.0547 17.7218 14.3511C17.7218 14.6534 17.8925 15.1353 18.5212 15.1712C19.0031 15.2012 19.3263 14.4768 19.6766 14.1954C19.943 13.9799 20.1046 13.9738 20.1046 13.9738C20.1046 13.9738 19.8323 13.6778 19.1049 13.2944C18.3864 12.9082 17.5811 12.8573 17.144 13.45C17.3507 13.4351 18.0182 13.2644 18.0182 13.2644L18.3446 13.3691L17.8416 13.8692V13.869Z" fill="#252211"/>
<path fill-rule="evenodd" clip-rule="evenodd" d="M18.7815 14.2611C18.7606 14.2163 18.7456 14.1563 18.8324 14.1415C18.9192 14.1267 18.9581 14.1354 18.9881 14.2007C19.0181 14.266 19.0473 14.3205 19.0029 14.3475C18.9581 14.3714 18.8413 14.3475 18.7813 14.2607L18.7815 14.2611ZM18.6408 13.839C18.6408 13.839 18.6108 13.8599 18.6258 13.818C18.6317 13.7673 18.6708 13.6774 18.7665 13.6985C18.8622 13.7196 18.8415 13.8242 18.8257 13.8542C18.8099 13.8842 18.73 13.9349 18.67 13.9134C18.6624 13.9114 18.6553 13.9077 18.6494 13.9025C18.6435 13.8974 18.6389 13.8909 18.636 13.8836C18.6331 13.8763 18.6319 13.8684 18.6326 13.8606C18.6333 13.8528 18.6358 13.8452 18.64 13.8386L18.6408 13.839Z" fill="#6F674D"/>
<path fill-rule="evenodd" clip-rule="evenodd" d="M10.5376 14.0304C10.5376 14.0304 10.7744 14.208 11.0495 14.2011C11.3218 14.195 11.6721 13.9138 11.8337 13.734C11.9294 13.6292 12.0113 13.5185 12.1001 13.4317C12.1751 13.3569 12.2258 13.321 12.2617 13.2701C12.3126 13.2109 12.3665 13.0996 12.3935 13.0635C12.3276 13.1144 12.2319 13.2044 12.133 13.2642C12.0373 13.3234 11.8307 13.4347 11.7469 13.4647C11.6661 13.4947 10.8279 13.9383 10.8279 13.9383L10.5376 14.0304Z" fill="#AC924C"/>
<path fill-rule="evenodd" clip-rule="evenodd" d="M10.8997 11.8185C10.8997 11.8185 11.0313 11.7287 11.2858 11.6717C11.5313 11.6125 12.0252 11.5669 12.0252 11.5669L12.4323 11.7445L12.594 12.3582L12.298 12.996L11.9209 13.2328L11.4926 12.5443L10.9006 11.8197L10.8997 11.8185Z" fill="#9F8E57"/>
<path fill-rule="evenodd" clip-rule="evenodd" d="M10.3667 12.3663L10.2258 12.4715C10.2258 12.4715 10.2619 12.4056 10.2917 12.2051C10.3215 12.0046 10.4774 11.5166 10.705 11.2352C10.9325 10.9538 10.9266 10.9688 10.9266 10.9688C10.9056 10.9649 10.8841 10.9656 10.8635 10.9708C10.8428 10.9759 10.8235 10.9854 10.8068 10.9986C10.8368 10.9323 11.0284 10.6955 11.22 10.5771C11.4116 10.4587 11.4864 10.4214 11.6869 10.5179C11.8874 10.6144 11.9383 10.6645 12.0851 10.6586C12.2319 10.6526 12.3574 10.4969 12.3574 10.4969C12.3574 10.4969 12.3874 10.5927 12.2767 10.8143C12.166 11.0359 11.7289 11.4878 11.7289 11.4878L10.8188 12.1103L10.3667 12.3669V12.3663Z" fill="#EAC970"/>
<path fill-rule="evenodd" clip-rule="evenodd" d="M11.0401 11.7437C11.0401 11.7437 11.6988 11.8335 11.8993 11.648C11.9052 11.6689 11.9293 11.6689 11.9293 11.6839C11.9277 11.6952 11.9224 11.7057 11.9143 11.7137C11.9361 11.7102 11.9581 11.7082 11.9802 11.7078C12.0066 11.7156 12.0337 11.7207 12.0611 11.7228C12.0832 11.7223 12.1052 11.7203 12.127 11.7167C12.1249 11.7315 12.1199 11.7459 12.1121 11.7587C12.1044 11.7716 12.0942 11.7828 12.082 11.7917C12.112 11.7917 12.1412 11.7976 12.1412 11.8214C12.1412 11.8453 12.1471 11.9174 12.1112 11.9323C12.0815 11.9406 12.0498 11.9384 12.0214 11.9262C12.0238 11.9829 12.0392 12.0383 12.0664 12.088C12.1256 12.1988 12.2519 12.3248 12.4216 12.2885C12.4216 12.2885 12.5112 12.504 12.1341 12.983C12.0834 13.0489 12.0293 13.1386 11.9636 13.2134C11.9377 13.27 11.9178 13.3292 11.9044 13.3901C11.9044 13.3901 12.5422 13.1446 12.7247 12.5847C12.9104 12.0219 12.9463 11.4682 12.9104 10.9504C12.9043 10.8036 12.8804 10.699 12.8445 10.624C12.7547 10.4383 12.5031 10.4683 12.4015 10.5731C12.2547 10.7199 12.0092 11.085 11.668 11.3364C11.3207 11.5878 11.3059 11.6324 11.0393 11.7437H11.0401Z" fill="#D7BC6B"/>
<path fill-rule="evenodd" clip-rule="evenodd" d="M10.25 12.552C10.25 12.552 10.1243 12.6268 10.0584 12.9072C9.99246 13.1945 10.1176 13.5448 10.19 13.6555C10.2624 13.7662 10.4268 14.0687 10.7678 14.0837C10.8522 14.0833 10.9356 14.066 11.0133 14.0328C11.1323 13.9782 11.244 13.9088 11.3456 13.8262C11.4924 13.7155 11.612 13.6198 11.597 13.6107C11.5611 13.5957 10.693 12.8772 10.693 12.8772L10.3666 12.5129L10.2498 12.5524L10.25 12.552Z" fill="#585136"/>
<path fill-rule="evenodd" clip-rule="evenodd" d="M11.0703 13.7433C11.0703 13.7433 11.247 13.7285 11.3517 13.6626C11.4565 13.5967 10.738 12.8843 10.738 12.8843L10.7889 13.6539L11.0703 13.7433Z" fill="#453A25"/>
<path fill-rule="evenodd" clip-rule="evenodd" d="M10.3069 12.4979C10.3069 12.4979 10.2171 12.6686 10.2171 12.7136C10.2021 12.8602 10.2471 13.3212 10.283 13.4678C10.3189 13.6235 10.5135 13.8599 10.7651 13.8599C10.9206 13.8599 11.1363 13.7642 11.1363 13.7403C11.1363 13.7104 10.9146 13.6811 10.8549 13.5697C10.8189 13.5105 10.8039 13.3632 10.7957 13.2145C10.7897 13.1187 10.7897 13.014 10.8256 12.9777C10.9066 12.8879 10.9214 12.6303 10.9214 12.6303L11.2087 12.0966H10.8308L10.3787 12.378L10.3069 12.4979Z" fill="#84754B"/>
<path fill-rule="evenodd" clip-rule="evenodd" d="M10.196 12.6627C10.196 12.6627 10.492 12.2706 10.7588 12.1806C11.0256 12.0907 11.145 12.1447 11.145 12.1447L10.9893 12.5429L10.7677 12.7884L10.7827 12.9141C10.7827 12.9141 10.7466 13.2464 10.9682 13.4769C11.1898 13.7074 11.3544 13.6985 11.4503 13.6985C11.5462 13.6985 11.8215 13.6176 11.9622 13.2853C12.0879 12.9741 12.1927 12.5749 11.9413 12.1747C11.6956 11.7765 11.2616 11.7611 11.1778 11.7611C11.0939 11.7611 10.4354 11.7941 10.196 12.6621V12.6627Z" fill="#252211"/>
<path fill-rule="evenodd" clip-rule="evenodd" d="M17.7964 13.9947C17.6857 13.9438 17.7905 13.6326 17.9012 13.5367C18.0119 13.4408 18.1526 13.3303 18.3982 13.3151C18.4878 13.3092 18.5747 13.366 18.5599 13.426C18.5389 13.5367 18.3832 13.6924 18.2425 13.8031C18.048 13.9559 17.9221 14.0516 17.7964 13.9947Z" fill="#F7F7E7"/>
<path fill-rule="evenodd" clip-rule="evenodd" d="M11.8093 12.2974C11.8902 12.2915 11.995 12.3566 12.0159 12.4442C12.0368 12.5399 11.965 12.7315 11.8093 12.7315C11.6836 12.7315 11.6177 12.5758 11.6177 12.531C11.6191 12.4942 11.6294 12.4582 11.6477 12.4262C11.6536 12.4172 11.6686 12.3124 11.8093 12.2974Z" fill="#F8F6DE"/>
<path fill-rule="evenodd" clip-rule="evenodd" d="M10.6419 12.3662C10.6419 12.3662 10.4353 12.4619 10.3396 12.6622C10.2712 12.8101 10.2505 12.9756 10.2804 13.1358C10.2954 13.2106 10.3702 13.3961 10.4211 13.462C10.472 13.5279 10.5409 13.5729 10.5918 13.5668C10.6427 13.5607 10.7473 13.4261 10.7473 13.3454C10.7473 13.2647 10.7534 12.9233 10.8521 12.7376C10.9389 12.5521 10.6425 12.3664 10.6425 12.3664L10.6419 12.3662Z" fill="#D4C38B"/>
<path fill-rule="evenodd" clip-rule="evenodd" d="M10.6721 12.3514C10.6362 12.3723 10.5764 12.4023 10.5912 12.4412C10.6062 12.4771 10.7319 12.5004 10.7769 12.588C10.8278 12.6778 10.8278 12.7735 10.8128 12.8185C10.8519 12.7999 10.8874 12.7745 10.9176 12.7435C10.9835 12.6687 11.0642 12.567 11.1331 12.567C11.178 12.567 11.2228 12.588 11.2649 12.588C11.3308 12.588 11.3965 12.567 11.4056 12.4982C11.4204 12.4084 11.2799 12.3275 11.199 12.3425C11.214 12.2833 11.2349 12.1959 11.169 12.1359C11.1031 12.0759 10.8966 12.1809 10.8517 12.2109C10.8067 12.2409 10.6721 12.3516 10.6721 12.3516V12.3514Z" fill="#E2D59D"/>
<path fill-rule="evenodd" clip-rule="evenodd" d="M15.4287 18.6407L15.8717 18.5099L15.9974 18.5997C15.9974 18.5997 16.087 18.7913 16.2279 18.8152C16.1829 18.9109 16.0661 18.9928 16.0722 19.0606C16.0783 19.1285 16.1381 19.1804 16.1381 19.1804C16.1381 19.1804 15.7399 19.8389 16.5243 20.5026C16.3386 20.5773 16.1022 20.6802 15.9765 20.7394C16.0661 20.7603 16.2577 20.7986 16.3386 20.8712C16.4195 20.9438 16.4195 20.9669 16.4943 21.0119C16.5691 21.0569 16.6139 21.1167 16.5991 21.1435C16.5482 21.1135 16.3775 21.0239 16.3477 21.1076C16.3179 21.1912 15.6083 21.1585 15.6083 21.1585L14.4108 21.389C14.4108 21.389 14.4556 21.2692 14.3299 21.1585C14.1833 21.0269 14.0037 21.1644 13.8121 21.0178C13.5607 20.8262 13.5517 20.6046 13.4709 20.5209C13.5517 20.47 13.7164 20.3952 14.1085 20.3433C14.0935 20.3133 14.0426 20.2235 14.0726 20.1428C14.1085 20.038 14.2581 19.9721 14.2133 19.8468C14.2792 19.8318 14.309 19.8318 14.4738 19.6252C14.6295 19.4186 14.7252 19.3738 14.845 19.3588C14.9648 19.3438 15.0366 19.3588 15.2582 19.1522C15.4137 19.0056 15.363 18.8799 15.363 18.8799C15.363 18.8799 15.4646 18.8469 15.4289 18.6403L15.4287 18.6407Z" fill="#CBAC5A"/>
<path fill-rule="evenodd" clip-rule="evenodd" d="M14.1206 18.7072C14.1265 18.6772 14.1506 18.6622 14.3122 18.6772C14.4738 18.6922 15.4976 18.5815 15.776 18.5665C16.0574 18.5456 17.0482 18.5604 17.5303 18.6622C18.0124 18.7641 18.5002 18.8838 18.7366 18.9436C18.9734 19.0095 19.048 19.0332 19.0389 19.0632C19.033 19.0932 18.9797 19.1224 18.9491 19.1141C18.9193 19.1082 18.1349 18.8687 17.8926 18.8181C17.6503 18.7676 16.8118 18.6324 16.3534 18.6405C15.9254 18.6467 15.7547 18.6346 15.3926 18.6765C15.0303 18.7214 14.4316 18.7812 14.252 18.7574C14.0744 18.7364 14.1111 18.7364 14.1202 18.7064L14.1206 18.7072Z" fill="#D6BC6F"/>
<path fill-rule="evenodd" clip-rule="evenodd" d="M16.5301 21.0535C16.5301 21.0535 17.1438 21.3858 17.3655 21.7929C17.5271 22.0952 17.2697 22.245 17.2697 22.245C17.2697 22.245 17.6171 22.245 17.5721 22.4366C17.5511 22.5562 16.9734 22.8794 16.5872 23.0501C16.1951 23.2208 16.2101 23.212 16.0185 23.2417C15.8328 23.2717 15.3238 23.1825 15.2191 23.3315C15.1143 23.4805 15.1599 23.634 15.1891 23.6579C15.2191 23.6788 15.4616 23.7088 15.4616 23.7088C15.4616 23.7088 15.4107 23.8495 14.9079 23.8645C14.4051 23.8795 14.2792 23.9152 14.2492 23.9693C14.2192 24.02 14.3449 23.9902 14.5756 24.0285C14.806 24.0644 15.1293 24.0877 15.1293 24.0877C15.1293 24.0877 15.0245 24.1775 14.7522 24.2493C14.4408 24.33 13.9528 24.405 13.8062 24.4948C13.8809 24.5457 13.9918 24.6205 14.043 24.6264C13.9172 24.6564 13.7404 24.7223 13.7106 24.7462C13.7554 24.7762 13.8154 24.8121 13.8154 24.8121C13.8154 24.8121 13.5638 25.1144 13.4172 25.1894C13.2706 25.2644 12.4264 25.6563 12.1359 25.5815C11.4115 25.3899 11.3217 24.5966 11.1451 24.5368C10.8787 24.4471 10.753 24.6264 10.5164 24.5007C10.6212 24.4259 10.6782 24.3811 10.7889 24.3302C10.6691 24.271 10.0495 23.8781 10.0495 23.8781C9.98472 23.7369 9.9128 23.5991 9.83403 23.4651C9.71424 23.2585 9.53803 22.983 9.40581 22.7405C9.11849 22.2077 9.1035 21.9622 8.84302 21.6599C8.88801 21.6007 9.04351 21.609 9.04351 21.609L11.226 22.3275L15.0959 22.4396L16.1023 21.0028L16.5303 21.0537L16.5301 21.0535Z" fill="#DFC677"/>
<path fill-rule="evenodd" clip-rule="evenodd" d="M10.7976 23.2446C10.821 23.2706 10.8482 23.2929 10.8783 23.3105C10.9533 23.3615 11.064 23.4214 11.1388 23.511C11.1688 23.4662 11.2436 23.3853 11.3756 23.511C11.5076 23.6367 11.6716 23.5471 11.7736 23.5769C11.8784 23.6131 11.8843 23.6279 11.8843 23.6279C11.8843 23.6279 11.9435 23.5769 12.0759 23.5231C12.1568 23.4931 12.2525 23.4722 12.3573 23.4424C12.453 23.4214 12.5578 23.3915 12.6298 23.3915C12.6958 23.4362 12.9322 23.6874 13.8811 23.3167C14.7762 22.9694 14.9827 22.9305 15.1324 22.9842C15.1474 22.9482 15.1624 22.8794 15.3929 22.8884C15.3929 22.7927 15.2013 22.4664 15.2013 22.4664L14.1446 22.1042H13.5666L11.8334 22.4216L10.873 22.9696L10.7982 23.2458L10.7976 23.2446Z" fill="#C4A859"/>
<path fill-rule="evenodd" clip-rule="evenodd" d="M10.22 22.6371C10.22 22.6371 10.2409 22.7987 10.4804 22.9694C10.7172 23.1399 10.7916 23.2418 10.7916 23.2418C10.7916 23.2418 10.8366 23.1826 10.8726 23.1222C10.9085 23.0563 10.9385 22.9815 10.9983 22.9606C11.118 22.9096 11.3904 23.0053 11.4503 22.9904C11.5013 22.9756 11.4863 22.8708 11.5401 22.8708C11.6658 22.8646 11.7465 22.9515 11.7915 22.9515C11.8365 22.9515 11.947 22.9456 11.962 22.9217C11.977 22.8978 11.9829 22.6492 12.1536 22.5294C12.3393 22.3978 12.5669 22.4546 12.6272 22.4846C12.6272 22.5294 12.6332 22.6403 12.7529 22.6462C12.8727 22.6521 12.8846 22.6312 12.9897 22.6671C13.0949 22.703 13.2202 22.6612 13.2771 22.8376C13.328 22.8228 13.4478 22.8078 13.4178 22.6371C13.477 22.5923 13.5287 22.5623 13.6546 22.3857C13.6846 22.3409 13.7353 22.29 13.7743 22.2241C13.8791 22.2241 14.0048 22.2032 14.1724 22.3498C14.1214 22.3857 14.0915 22.409 14.0767 22.4455C14.1205 22.4889 14.1605 22.536 14.1962 22.5862C14.2412 22.6454 14.2712 22.718 14.3281 22.733C14.4538 22.7689 14.6604 22.718 14.8909 22.733C15.1125 22.748 15.298 22.8287 15.3789 22.8796C15.4089 22.8648 15.4089 22.8587 15.4836 22.8737C15.5584 22.8887 15.6153 22.8946 15.5346 22.7989C15.5793 22.8199 15.6303 22.8648 15.6753 22.8199C15.7202 22.7749 15.756 22.7091 15.8817 22.6942C16.0074 22.6792 16.0524 22.7001 16.1033 22.5685C16.1692 22.4068 15.9417 22.4068 15.9417 22.4068C15.9417 22.4068 16.0464 22.3109 16.1633 22.1852C16.304 22.0536 16.4656 21.8829 16.5044 21.6733C16.5704 21.2872 16.1933 21.2365 16.1933 21.2365L14.3642 21.7992L12.128 21.6883L10.2212 22.6373L10.22 22.6371Z" fill="#927D49"/>
<path fill-rule="evenodd" clip-rule="evenodd" d="M8.57645 17.3535C8.57645 17.3535 8.51725 17.4282 8.48074 17.6049C8.44423 17.7815 8.45982 17.7606 8.42983 17.8863C8.39983 18.012 8.03141 19.2633 8.16954 19.6853C8.30768 20.1074 8.54685 20.2631 8.69642 20.6043C8.72642 20.6791 8.75562 20.7241 8.77121 20.79C8.82213 21.0114 8.77733 21.1821 8.83712 21.4037C8.85804 21.4785 8.91211 21.5653 8.99282 21.6551C9.17042 21.8406 9.45991 22.0172 9.58482 22.1429C9.76123 22.3286 10.0128 22.7059 10.3331 22.7417C10.5038 22.7626 10.7463 22.6907 10.9468 22.5712C11.1244 22.4603 11.2341 22.3048 11.4204 22.216C11.552 22.15 11.6927 22.1262 11.8184 22.0962C12.0789 22.0453 12.3155 22.037 12.4562 22.0662C12.6717 22.1112 13.1806 22.2669 13.4626 22.2669C13.683 22.2633 13.9021 22.2332 14.1152 22.1771C14.5432 22.0514 15.061 21.8357 15.4024 21.74C15.6029 21.6808 15.7645 21.6652 15.9293 21.6293C16.2107 21.5634 16.4471 21.4736 16.5819 21.3029C16.4921 21.1981 16.3814 21.0365 15.7825 21.0424C15.103 21.0574 14.3186 21.4345 13.9325 21.4945C13.5463 21.5545 13.3787 21.6052 12.9476 21.4495C12.5249 21.2922 12.5109 21.1882 12.5109 21.1882C12.5109 21.1882 12.0671 20.8778 11.8814 20.0865C11.6957 19.2952 11.8814 18.7186 12.3635 18.1706C12.4892 18.0299 12.4592 17.9042 12.4592 17.9042C12.4592 17.9042 12.7765 17.4762 12.6897 17.0754C12.594 16.6772 11.9802 16.7581 11.9802 16.7581L8.57664 17.3535H8.57645Z" fill="#6E6342"/>
<path fill-rule="evenodd" clip-rule="evenodd" d="M9.08833 18.6858C9.06194 18.7354 9.04952 18.7913 9.05241 18.8474C9.05833 18.9281 9.08241 19.0329 9.32473 19.2695C9.53134 19.4759 9.48635 19.7064 9.48635 19.7064C9.48635 19.7064 9.59034 19.7273 9.87253 19.5953C10.0941 19.4905 10.1685 19.6762 10.1685 19.6762C10.233 19.6424 10.303 19.6201 10.3751 19.6103C10.4405 19.6043 10.5038 19.5841 10.5606 19.5511C10.5606 19.5511 10.8211 19.8175 11.0486 19.9432C11.2552 20.0541 11.375 20.1289 11.4768 20.0541C11.5726 19.9882 11.5726 19.8534 11.5664 19.7936C11.5427 19.7384 11.5126 19.6862 11.4768 19.6379C11.4109 19.5422 11.3062 19.4313 11.2992 19.3419C11.2843 19.1355 11.4549 18.8898 11.4188 18.83C11.3827 18.7702 11.2483 18.7553 10.916 18.875C10.5719 18.9887 9.08695 18.6864 9.08695 18.6864L9.08833 18.6858Z" fill="#39331F"/>
<path fill-rule="evenodd" clip-rule="evenodd" d="M9.87269 20.0238C9.87269 20.0238 9.70219 19.8621 9.76198 19.0777C9.83437 19.0767 9.90664 19.0837 9.97747 19.0987C9.97747 19.0987 10.0704 19.7064 9.87269 20.0238Z" fill="#292311"/>
<path fill-rule="evenodd" clip-rule="evenodd" d="M8.6574 16.7548C8.68119 16.7372 8.70326 16.7174 8.72331 16.6956C8.66411 16.8063 8.3908 17.2493 8.61241 17.9469C8.83401 18.6413 9.39069 19.1591 10.0762 19.1832C10.7618 19.2072 11.1221 18.8718 11.5341 18.369C11.6957 18.1685 11.8814 17.9169 12.046 17.7464C12.2915 17.4798 12.4831 17.405 12.4831 17.1477C12.4831 16.6208 11.9442 16.3842 11.1509 16.1478C10.3576 15.9114 9.64209 15.9406 9.27091 16.1024C8.9088 16.2788 8.75311 16.4645 8.6572 16.755L8.6574 16.7548Z" fill="#252211"/>
<path fill-rule="evenodd" clip-rule="evenodd" d="M11.2047 20.2602L11.2639 20.2303C11.2639 20.2303 11.2787 19.9934 11.3746 19.9998C11.4703 20.0148 11.5153 20.1407 11.5062 20.1855C11.5003 20.2302 11.4764 20.3052 11.3805 20.2962C11.2548 20.2991 11.2041 20.2602 11.2041 20.2602H11.2047Z" fill="#3F3824"/>
<path fill-rule="evenodd" clip-rule="evenodd" d="M10.9385 19.2544C10.9385 19.2544 10.9977 19.2335 11.0701 19.3053C11.1293 19.3053 11.3874 19.2753 11.4683 19.3263C11.5492 19.3772 11.5731 19.422 11.5731 19.422C11.5731 19.422 11.2708 19.4879 11.106 19.422C10.9385 19.3651 10.9385 19.2544 10.9385 19.2544Z" fill="#2D2815"/>
<path fill-rule="evenodd" clip-rule="evenodd" d="M12.2704 19.2992C12.2704 19.2842 12.1087 19.1735 11.9381 19.1374C11.9081 19.1314 11.9019 19.1524 11.8789 19.1524C11.8639 19.1464 11.8579 19.1014 11.8579 19.1014L11.7609 19.1525C11.7609 19.1525 11.7459 19.1735 11.7968 19.2117C11.8416 19.2477 11.9165 19.2777 11.9375 19.3374C11.9584 19.3972 11.9584 19.4182 11.9675 19.4272C11.9734 19.4332 12.0782 19.4272 12.1291 19.3972C12.18 19.3672 12.2759 19.3183 12.2698 19.2986L12.2704 19.2992Z" fill="#82764F"/>
<path fill-rule="evenodd" clip-rule="evenodd" d="M10.7588 19.907C10.7588 19.907 10.7886 19.7006 10.9893 19.6915C11.1957 19.6765 11.2348 19.877 11.2348 19.877L11.115 19.9967C11.115 19.9938 11.0252 19.8681 10.7598 19.907H10.7588Z" fill="#2D2816"/>
<path fill-rule="evenodd" clip-rule="evenodd" d="M12.0611 19.0179C12.0611 19.0179 11.9502 19.1376 11.7049 19.1736C11.684 19.1436 11.639 19.0838 11.7049 18.9881C11.7708 18.8923 11.8456 18.8624 11.9204 18.8922C11.9534 18.8975 11.9842 18.9122 12.0091 18.9345C12.0341 18.9567 12.0521 18.9857 12.0611 19.0179Z" fill="#574F35"/>
<path fill-rule="evenodd" clip-rule="evenodd" d="M12.5129 19.1646C12.519 19.1346 12.4981 19.1287 12.5129 19.1137C12.5277 19.0987 12.6088 19.0689 12.6238 19.0837C12.6297 19.0898 12.6238 19.1137 12.6238 19.1429C12.6238 19.1721 12.6238 19.2021 12.6088 19.2236C12.5879 19.2536 12.5281 19.2686 12.4981 19.2597C12.4681 19.2508 12.4622 19.2088 12.4622 19.2005C12.477 19.1946 12.5129 19.1796 12.5129 19.1646ZM13.024 18.8414C13.024 18.8264 13.0749 18.7964 13.1049 18.7964C13.1497 18.7964 13.1497 18.8323 13.1558 18.8414C13.1706 18.8473 13.1706 18.8353 13.1856 18.8623C13.2006 18.8893 13.2217 18.9371 13.2065 18.9671C13.1913 18.9971 13.1317 19.0178 13.1169 19.0119C13.096 18.9969 13.0301 18.8623 13.024 18.8414Z" fill="#82764F"/>
<path fill-rule="evenodd" clip-rule="evenodd" d="M11.9951 19.2335C11.9951 19.2335 12.061 19.2483 12.1508 19.3233C12.1208 19.3442 12.0758 19.3681 12.0758 19.3681C12.0758 19.3681 12.0699 19.2992 11.9951 19.2333V19.2335Z" fill="#6E6342"/>
<path fill-rule="evenodd" clip-rule="evenodd" d="M11.8483 18.5747C11.8333 18.5599 11.8931 18.524 11.929 18.53C11.9649 18.5359 11.9799 18.5599 12.0188 18.5659C12.0577 18.5718 12.0638 18.5509 12.078 18.5359C12.0922 18.5209 12.1439 18.53 12.1528 18.5359C12.1583 18.5424 12.1633 18.5494 12.1678 18.5568C12.1684 18.5454 12.1714 18.5343 12.1765 18.5241C12.1816 18.5139 12.1888 18.5049 12.1976 18.4976C12.2091 18.4892 12.2223 18.4834 12.2363 18.4808C12.2503 18.4782 12.2648 18.4788 12.2785 18.4826C12.2844 18.5035 12.3144 18.5783 12.3085 18.5933C12.3026 18.6083 12.2128 18.6294 12.1976 18.6142C12.2126 18.6503 12.2785 18.7251 12.2874 18.7399C12.2963 18.7547 12.2215 18.7908 12.1917 18.7849C12.1498 18.7819 11.8923 18.6322 11.8475 18.5753L11.8483 18.5747ZM12.2404 18.0779C12.2349 18.0628 12.2243 18.0501 12.2104 18.0419C12.1895 18.036 12.1206 18.0419 12.1206 18.0779C12.1206 18.1138 12.1798 18.3147 12.2463 18.4192C12.3213 18.524 12.372 18.6107 12.423 18.6347C12.4389 18.642 12.4571 18.643 12.4737 18.6374C12.4904 18.6318 12.5043 18.6202 12.5127 18.6047C12.5187 18.5897 12.5337 18.479 12.5277 18.2186C12.5218 17.9581 12.5127 17.7067 12.4977 17.6917C12.4827 17.6767 12.423 17.6769 12.402 17.7067C12.3811 17.7365 12.2463 18.0331 12.2402 18.0779H12.2404Z" fill="#585136"/>
<path fill-rule="evenodd" clip-rule="evenodd" d="M11.9742 19.6106C11.9742 19.6106 11.8694 19.5447 11.7676 19.5897C11.6719 19.6347 11.6778 19.8113 11.6778 19.8113C11.6993 19.8197 11.7226 19.8228 11.7456 19.8202C11.7686 19.8175 11.7905 19.8093 11.8096 19.7963C11.8755 19.7515 11.9592 19.6767 11.9742 19.6108V19.6106Z" fill="#574F35"/>
<path fill-rule="evenodd" clip-rule="evenodd" d="M12.1717 19.8471C12.1658 19.7879 12.1125 19.7879 12.1125 19.7573C12.1162 19.7427 12.1247 19.7298 12.1366 19.7205C12.1485 19.7113 12.1632 19.7063 12.1783 19.7064C12.2083 19.7064 12.2375 19.7423 12.2742 19.7656C12.3101 19.7866 12.364 19.8248 12.3699 19.8704C12.3758 19.916 12.3107 20.0409 12.2383 20.0409C12.1658 20.0409 12.1873 19.9061 12.1723 19.8463L12.1717 19.8471ZM12.7495 19.7662C12.7495 19.7662 12.6298 19.8021 12.6386 19.7662C12.6475 19.7303 12.6748 19.7214 12.7136 19.7214C12.7334 19.7008 12.7599 19.6879 12.7884 19.6853C12.8047 19.6845 12.8207 19.6899 12.8332 19.7003C12.8332 19.7003 12.9141 19.6644 12.938 19.6853C12.9619 19.7062 12.9441 19.7062 12.9589 19.7303C12.9778 19.757 12.9901 19.7878 12.995 19.8201C12.995 19.844 12.9052 19.8949 12.8332 19.886C12.7495 19.8681 12.7643 19.7812 12.7495 19.7662ZM13.4469 19.6314C13.4469 19.6314 13.4828 19.6524 13.453 19.6764C13.4321 19.6974 13.3273 19.7356 13.2373 19.7423C13.1476 19.7423 13.0669 19.7571 13.0669 19.7274C13.0669 19.6976 13.1416 19.6376 13.1864 19.6226C13.1954 19.6113 13.2068 19.6022 13.2198 19.596C13.2328 19.5898 13.247 19.5866 13.2614 19.5867C13.2973 19.5867 13.4378 19.5717 13.4769 19.5657C13.5128 19.5596 13.5428 19.5805 13.5217 19.6105C13.5128 19.6314 13.4469 19.6314 13.4469 19.6314ZM13.6535 18.7071C13.6535 18.7071 13.6085 18.8028 13.5578 18.8028C13.5069 18.7969 13.5069 18.7819 13.5069 18.7669C13.5069 18.746 13.5578 18.6921 13.5517 18.6771C13.5369 18.6771 13.5008 18.6771 13.5069 18.6412C13.5069 18.6112 13.5578 18.5753 13.6026 18.582C13.6365 18.5542 13.6786 18.5385 13.7224 18.5372C13.7733 18.5372 13.8181 18.552 13.8181 18.582C13.8181 18.612 13.7589 18.6777 13.7372 18.6929C13.7133 18.7168 13.6833 18.7324 13.6535 18.7077V18.7071ZM12.9709 20.4762C12.9709 20.4762 12.9117 20.4824 12.9117 20.5121C12.9117 20.5271 12.9265 20.5271 12.9477 20.5183C12.9598 20.5176 12.9719 20.5155 12.9836 20.5121C12.9895 20.5183 12.9895 20.5481 13.0345 20.5481C13.0714 20.5431 13.107 20.5309 13.1393 20.5121C13.1752 20.4973 13.2052 20.4822 13.2052 20.4529C13.1902 20.402 13.1602 20.378 13.1154 20.378C13.0924 20.3765 13.0696 20.3817 13.0495 20.393C13.0495 20.393 13.0345 20.363 12.9836 20.393C12.9327 20.423 12.9386 20.423 12.9536 20.438C12.9804 20.4618 12.9715 20.4774 12.9715 20.4774L12.9709 20.4762ZM12.6327 20.7876C12.6327 20.7726 12.7075 20.7426 12.7284 20.7517C12.7493 20.7576 12.8091 20.8713 12.8091 20.8833C12.8091 20.8983 12.7343 20.9342 12.7044 20.9342C12.6744 20.9342 12.6236 20.8833 12.6236 20.875C12.6236 20.8691 12.6596 20.8602 12.6596 20.8541C12.6684 20.8393 12.6327 20.8032 12.6327 20.7882V20.7876ZM12.3959 20.3505C12.4109 20.3446 12.4109 20.3296 12.4318 20.3146C12.4384 20.3103 12.4458 20.3075 12.4536 20.3064C12.4614 20.3054 12.4694 20.3062 12.4768 20.3087C12.4821 20.2993 12.4894 20.2912 12.4982 20.2849C12.507 20.2787 12.5171 20.2745 12.5277 20.2726C12.5637 20.2667 12.5936 20.2726 12.5869 20.2876C12.5869 20.3326 12.6169 20.3624 12.6169 20.3983C12.6169 20.4342 12.596 20.4792 12.5212 20.5092C12.4464 20.5301 12.3446 20.5301 12.3296 20.5242C12.3146 20.5183 12.2996 20.4583 12.3146 20.4283C12.3296 20.3983 12.3715 20.3655 12.3955 20.3505H12.3959Z" fill="#82764F"/>
<path fill-rule="evenodd" clip-rule="evenodd" d="M12.4913 20.3708C12.4913 20.3708 12.4403 20.4008 12.4403 20.4158C12.4358 20.4303 12.4338 20.4455 12.4344 20.4606C12.4344 20.4695 12.5003 20.4547 12.5092 20.4456C12.5122 20.4397 12.4913 20.3864 12.4913 20.3708Z" fill="#6E6342"/>
<path fill-rule="evenodd" clip-rule="evenodd" d="M12.046 20.2303C12.0757 20.2364 12.1267 20.2302 12.1655 20.2452C12.1955 20.2602 12.2164 20.2902 12.1865 20.3262C12.1565 20.3621 12.1273 20.4159 12.0608 20.4069C11.986 20.4009 11.9141 20.3621 11.9141 20.3321C11.9129 20.3131 11.9154 20.2941 11.9216 20.2761C11.9277 20.2581 11.9374 20.2415 11.95 20.2273C11.98 20.2034 11.9948 20.2184 12.0458 20.2303H12.046Z" fill="#585136"/>
<path fill-rule="evenodd" clip-rule="evenodd" d="M12.0102 20.2603C12.0102 20.2603 11.9145 20.335 11.8904 20.3712C11.8604 20.4071 11.7138 20.5926 11.669 20.6314C11.6839 20.6052 11.7008 20.5802 11.7197 20.5566C11.6605 20.5945 11.6161 20.6516 11.594 20.7183C11.5581 20.8292 11.7947 20.889 11.9502 20.934C12.1057 20.9789 12.1659 20.9932 12.1659 20.9932C12.1086 20.9071 12.0595 20.8159 12.019 20.7208C11.9598 20.5801 11.9293 20.5651 11.9681 20.4992C11.9981 20.4333 12.0431 20.3885 12.0431 20.3376C12.0252 20.2902 12.0102 20.2603 12.0102 20.2603Z" fill="#574F35"/>
<path fill-rule="evenodd" clip-rule="evenodd" d="M8.59732 20.4968C8.61911 20.5008 8.64144 20.5008 8.66323 20.4968C8.70802 20.4907 9.17511 20.3192 9.66312 20.35C10.0284 20.3721 10.3905 20.4316 10.7437 20.5276C11.3574 20.6892 12.1207 21.0095 12.6146 21.1922C12.7463 21.2429 12.8751 21.3329 12.9698 21.3686C13.3471 21.5155 13.3619 21.5155 13.5835 21.5543C13.844 21.5903 14.1104 21.5034 14.3889 21.4436C14.73 21.3686 15.3138 21.3327 15.8256 21.2579C15.9912 21.235 16.1544 21.198 16.3136 21.1472C16.3136 21.1472 15.9065 21.5543 14.9305 21.701C14.536 21.7609 14.1351 21.7659 13.7392 21.716C13.4278 21.686 13.2214 21.641 13.0657 21.5962C12.8891 21.5453 12.5268 21.4105 12.0808 21.3002C11.7695 21.2193 11.4221 21.1595 11.0241 21.0847C10.0422 20.9049 8.97659 20.6985 8.59692 20.498L8.59732 20.4968Z" fill="#252211"/>
<path fill-rule="evenodd" clip-rule="evenodd" d="M7.49566 18.6469C7.25886 18.8473 7.00766 19.039 6.76237 19.2244L6.02297 19.7926C5.77156 19.9781 5.52608 20.1697 5.27448 20.3554C5.02288 20.5411 4.77168 20.7175 4.50488 20.8882C4.74168 20.6877 4.99289 20.502 5.24429 20.3195C5.49569 20.1369 5.75637 19.9579 5.99889 19.7728L6.7383 19.2039C6.99266 19.0184 7.23814 18.8268 7.49566 18.6472V18.6469ZM6.18754 20.7423C6.18754 20.7423 6.45394 20.5207 6.78625 20.2095C7.19927 19.8236 7.70523 19.3294 7.86685 19.2398L6.18735 20.7425L6.18754 20.7423Z" fill="#CFB66C"/>
<path fill-rule="evenodd" clip-rule="evenodd" d="M6.1875 20.7421C6.31932 20.6105 6.46002 20.4818 6.60072 20.3559L6.8162 20.1704C6.88211 20.1112 6.9571 20.0447 7.02281 19.9788C7.15443 19.8472 7.28329 19.7063 7.41491 19.5717C7.48015 19.504 7.54913 19.4401 7.62152 19.3801C7.65771 19.3481 7.69791 19.3209 7.7411 19.2992C7.77722 19.2783 7.81609 19.24 7.86681 19.2333C7.83701 19.2783 7.80109 19.2992 7.7711 19.3381C7.73518 19.3681 7.70519 19.404 7.67539 19.4338C7.60948 19.4997 7.53469 19.5595 7.46878 19.6195C7.32809 19.7392 7.18147 19.8563 7.04077 19.9816C6.90007 20.1069 6.76845 20.242 6.62755 20.3677C6.47501 20.4966 6.33432 20.6223 6.1875 20.7427V20.7421ZM7.97771 19.5447C7.97771 19.5447 7.00189 20.4998 6.80121 20.6553L7.97771 19.5447Z" fill="#CFB66C"/>
<path fill-rule="evenodd" clip-rule="evenodd" d="M7.97777 19.5447C7.88999 19.6463 7.79587 19.7423 7.69598 19.832L7.39998 20.1134C7.30427 20.2091 7.21429 20.305 7.11266 20.4007C7.00788 20.4905 6.91217 20.5783 6.80127 20.6612L7.08859 20.3798C7.18449 20.2841 7.28927 20.2034 7.3911 20.1075L7.67842 19.8261C7.77708 19.7274 7.87299 19.6315 7.97777 19.5447ZM8.02257 20.0625C7.93262 20.3135 7.82663 20.5585 7.70525 20.796C7.45385 21.299 7.07675 21.9275 6.91197 22.248L8.02257 20.0625Z" fill="#CFB66C"/>
<path fill-rule="evenodd" clip-rule="evenodd" d="M8.02243 20.0626C8.02243 20.1733 7.99243 20.2692 7.95652 20.3649C7.92151 20.4607 7.88159 20.5547 7.83693 20.6463C7.79194 20.7361 7.74103 20.832 7.69012 20.9189C7.6392 21.0057 7.57941 21.0953 7.53442 21.1853L7.23211 21.7181C7.12732 21.8957 7.0255 22.0742 6.91479 22.2449C6.98958 22.0533 7.09141 21.8738 7.18731 21.6971C7.2921 21.5195 7.3878 21.3419 7.48331 21.1582C7.52994 21.0667 7.5719 20.9728 7.60901 20.877C7.65381 20.7811 7.6986 20.6913 7.73471 20.6045C7.77951 20.5088 7.81542 20.4188 7.86041 20.3322C7.91113 20.2392 7.95316 20.1494 8.02203 20.0626H8.02243Z" fill="#CFB66C"/>
<path fill-rule="evenodd" clip-rule="evenodd" d="M9.0883 22.5173C9.0883 22.5173 8.7923 22.9094 8.8219 23.4063C8.90261 23.146 9.00444 22.7478 9.0883 22.5173ZM9.3697 22.9104C9.3697 22.9104 9.26492 23.976 9.17809 24.4999C9.30083 23.8943 9.32471 23.9452 9.3697 22.9104ZM11.3304 24.5629C11.3304 24.5629 10.8874 25.8653 10.8783 26.2272C10.9742 25.855 11.1597 25.0947 11.3304 24.5619V24.5629Z" fill="#DEC270"/>
<path fill-rule="evenodd" clip-rule="evenodd" d="M12.3665 22.4368C12.3665 22.4368 13.0849 23.6221 13.6239 24.6339C13.478 24.1248 13.1426 23.191 12.3665 22.4368Z" fill="#CBAF59"/>
<path fill-rule="evenodd" clip-rule="evenodd" d="M14.2974 24.1818C14.6918 24.8791 15.0476 25.5976 15.363 26.3341C15.3032 25.8252 15.1414 24.9541 14.2974 24.1818Z" fill="#E3C677"/>
<path fill-rule="evenodd" clip-rule="evenodd" d="M19.973 25.9296C20.0926 25.8548 20.3292 25.4475 20.5358 25.3459C20.7422 25.2411 20.8979 25.2202 21.0836 25.0136C21.2691 24.7979 21.3204 24.6663 21.7271 24.4958C22.296 24.2501 21.9047 23.9328 21.9047 23.9328C21.9673 23.8712 22.0343 23.8142 22.1052 23.7623C22.252 23.6516 22.4225 23.5168 22.4077 23.2802C22.3868 22.8822 22.312 22.3044 21.9856 21.9691C22.3029 21.9032 22.9105 21.8584 23.288 21.7627C23.7249 21.6518 23.9256 21.4961 23.9256 21.4961C23.9256 21.4961 23.6742 21.0681 24.0813 20.6371C24.4883 20.2061 24.8207 19.9486 25.0661 19.4665C24.7847 19.4306 24.3557 19.281 23.2609 19.697C23.32 19.7248 23.3771 19.7568 23.4316 19.7927C23.4316 19.7927 22.7581 19.9784 22.5126 20.185C22.0844 20.5471 22.0306 20.8435 21.5666 21.0651C21.1027 21.2867 20.6356 21.2267 20.2496 21.4063C19.8636 21.5859 19.8066 21.7386 19.6657 21.8045C19.6957 21.8405 19.6598 21.9002 19.7166 21.9512C19.6807 22.0021 19.4712 22.3433 19.2586 22.3433C19.2795 22.4242 19.4591 22.484 19.4591 22.484C19.4591 22.484 19.3275 22.5799 18.9922 22.6037C19.1627 22.7813 19.3245 22.9749 19.7705 23.2563C19.7346 23.3311 19.5848 23.442 19.6448 23.5827C19.7107 23.7234 19.8816 23.915 20.5638 24.0707C20.2165 24.0855 19.8096 24.1664 19.2614 24.0916C18.7136 24.0257 18.6238 23.9868 18.2856 24.0707C18.3215 24.1066 18.4172 24.1066 18.5011 24.2023C18.4113 24.2083 17.8485 24.1364 17.6569 24.388C17.4564 24.6483 17.3696 25.0765 17.3846 25.3638C17.2798 25.4148 17.1779 25.5045 17.2289 25.6902C17.2798 25.8759 17.5462 25.9357 17.7169 26.0523C17.8874 26.178 17.9024 26.2228 18.0642 26.193C18.2347 26.1571 18.4861 25.9866 18.6329 25.9866C18.7797 25.9866 18.8843 26.0973 18.8843 26.0973C18.8843 26.0973 19.2825 25.9057 19.3214 25.9416C19.3573 25.9775 19.3273 26.208 19.3662 26.2439C19.4056 26.271 19.8542 26.0046 19.974 25.9296H19.973Z" fill="#ECD592"/>
<path fill-rule="evenodd" clip-rule="evenodd" d="M28.6751 13.9499C26.8042 9.11837 22.1791 8.22327 22.1791 8.22327H8.9836L9.03451 13.1446H11.6624V24.1339H8.9834V29.0463H21.8138C24.906 29.0463 27.3847 25.9389 27.3847 25.9389C31.3541 20.3052 28.6749 13.9499 28.6749 13.9499H28.6751ZM21.8827 22.628C21.8827 22.628 20.8763 24.08 19.7813 24.08H17.5909L17.539 13.1566H20.35C20.35 13.1566 21.6524 13.4289 22.5623 16.0063C22.5623 16.0063 23.7686 19.6964 21.8827 22.628Z" fill="white" fill-opacity="0.8"/>
</svg>
