<svg width="37" height="50" viewBox="0 0 37 50" fill="none" xmlns="http://www.w3.org/2000/svg">
<path d="M18.7481 0C8.41116 0.0419497 0.0415219 8.4978 0 18.9413C0 21.0328 0.334153 23.1103 0.988617 25.0939C1.47699 26.4443 2.92631 27.1714 4.28665 26.7539C5.60151 26.2445 6.29947 24.7922 5.8803 23.4339C5.32469 21.8877 5.07754 20.2477 5.1507 18.6057C5.3761 11.0627 11.6103 5.13184 19.0764 5.35957C26.5424 5.58729 32.4128 11.8857 32.1874 19.4287C31.9758 26.4902 26.4712 32.2253 19.4896 32.6548C19.4896 32.6548 16.8579 32.8166 15.549 32.9784C15.0665 33.0483 14.588 33.1442 14.1155 33.2661C14.0483 33.336 13.9395 33.336 13.8703 33.2681L13.8683 33.2661C13.8209 33.2042 13.8209 33.1163 13.8683 33.0543L14.2756 30.809L16.7472 19.5785C17.0438 18.1762 16.1599 16.7958 14.7719 16.4962C13.3839 16.1966 12.0176 17.0895 11.721 18.4918C11.721 18.4918 5.84273 45.9808 5.84273 46.2305C5.5066 47.5669 6.3054 48.9253 7.62817 49.2649C7.64201 49.2689 7.65783 49.2729 7.67167 49.2749H7.8081C9.12889 49.6204 10.4774 48.8174 10.8175 47.483C10.8234 47.461 10.8293 47.4391 10.8333 47.4151C10.8293 47.3731 10.8293 47.3312 10.8333 47.2912C10.9064 46.9676 11.6479 43.31 11.6479 43.31C12.2094 40.5493 14.4121 38.4339 17.1683 38.0064C17.7358 37.9185 20.1203 37.7567 20.1203 37.7567C30.4178 36.7199 37.9333 27.4451 36.9051 17.0415C35.9679 7.55293 28.1875 0.247703 18.7481 0Z" fill="#1E1E1E"/>
<path d="M19.885 43.6736C18.1945 43.318 16.5415 44.4147 16.1896 46.1207C16.1856 46.1367 16.1836 46.1526 16.1797 46.1686C15.8139 47.8646 16.8776 49.5406 18.5583 49.9101C18.5603 49.9101 18.5622 49.9101 18.5642 49.9121H18.6512C20.2963 50.3137 21.9512 49.2909 22.3467 47.6309C22.3506 47.6189 22.3526 47.6049 22.3566 47.5929V47.4191C22.6472 45.7052 21.5637 44.0612 19.885 43.6736Z" fill="#E6007A"/>
</svg>
