<svg width="37" height="41" viewBox="0 0 37 41" fill="none" xmlns="http://www.w3.org/2000/svg">
<g clip-path="url(#clip0)">
<path fill-rule="evenodd" clip-rule="evenodd" d="M6.77511 0.201368L0.0287125 18.2526C0.00304053 18.3198 -0.00509476 18.3956 0.00549636 18.4691C0.0160875 18.5425 0.0448494 18.6097 0.0875759 18.6609L18.308 40.9014C18.3597 40.9647 18.4287 41 18.5004 41C18.5721 41 18.641 40.9647 18.6928 40.9014L36.9132 18.6623C36.9559 18.6111 36.9847 18.5439 36.9953 18.4705C37.0058 18.397 36.9977 18.3212 36.972 18.254L30.2256 0.202757C30.2039 0.142133 30.1688 0.0907767 30.1248 0.0548261C30.0807 0.0188756 30.0294 -0.000148713 29.9771 2.68719e-05H7.02583C6.97324 -0.000806489 6.92159 0.0177596 6.8771 0.0534854C6.83262 0.0892112 6.7972 0.140571 6.77511 0.201368Z" fill="#50AF95"/>
<path fill-rule="evenodd" clip-rule="evenodd" d="M20.841 20.1064C20.7102 20.1188 20.0344 20.1702 18.5268 20.1702C17.3278 20.1702 16.4764 20.1244 16.1778 20.1064C11.5439 19.8467 8.08513 18.8192 8.08513 17.5889C8.08513 16.3586 11.5439 15.3325 16.1778 15.0687V19.083C16.4808 19.1108 17.3485 19.176 18.5475 19.176C19.9864 19.176 20.707 19.0996 20.8367 19.0844V15.0714C25.4607 15.3339 28.9119 16.3614 28.9119 17.5889C28.9119 18.8164 25.4618 19.8439 20.8367 20.105L20.841 20.1064ZM20.841 14.6563V11.0641H27.2942V5.58618H9.72458V11.0641H16.1767V14.6549C10.9324 14.9617 6.98853 16.285 6.98853 17.8708C6.98853 19.4565 10.9324 20.7784 16.1767 21.0867V32.5978H20.84V21.0825C26.0723 20.7756 30.0096 19.4537 30.0096 17.8694C30.0096 16.285 26.0755 14.9631 20.84 14.6549L20.841 14.6563Z" fill="white"/>
</g>
<defs>
<clipPath id="clip0">
<rect width="37" height="41" fill="white"/>
</clipPath>
</defs>
</svg>
