<svg width="38" height="44" viewBox="0 0 38 44" fill="none" xmlns="http://www.w3.org/2000/svg">
<g clip-path="url(#clip0)">
<path d="M14.9019 10.0124C14.4278 9.94426 14.4052 9.92156 14.631 9.89886C15.06 9.83075 16.0534 9.92156 16.7534 10.0805C18.379 10.4665 19.8467 11.4654 21.4046 13.2136L21.811 13.6904L22.3981 13.5996C24.9043 13.1909 27.4783 13.5088 29.6233 14.5077C30.2103 14.7802 31.136 15.3251 31.2489 15.4613C31.2941 15.5067 31.3618 15.8018 31.407 16.097C31.565 17.1641 31.4973 17.9587 31.1586 18.5717C30.978 18.9123 30.978 19.0031 31.0909 19.2982C31.1812 19.5253 31.4521 19.6842 31.7005 19.6842C32.2424 19.6842 32.8069 18.8215 33.0778 17.6182L33.1907 17.1414L33.3939 17.3684C34.5454 18.6625 35.4486 20.4561 35.584 21.7275L35.6292 22.0681L35.426 21.773C35.0873 21.2508 34.7712 20.9102 34.3422 20.6151C33.5745 20.0929 32.7617 19.9339 30.6167 19.8204C28.6749 19.7069 27.5686 19.548 26.4848 19.1847C24.6334 18.5717 23.685 17.7771 21.4949 14.8483C20.524 13.5542 19.9144 12.8504 19.3048 12.2601C17.9726 10.9659 16.6405 10.2848 14.9019 10.0124Z" fill="#FF007A"/>
<path d="M31.723 12.8957C31.7682 12.033 31.8811 11.4654 32.1294 10.9432C32.2198 10.7389 32.3101 10.5573 32.3327 10.5573C32.3552 10.5573 32.3101 10.7162 32.2423 10.8978C32.0617 11.3973 32.0391 12.1011 32.152 12.8957C32.3101 13.9174 32.3778 14.0536 33.4616 15.1661C33.9583 15.6883 34.5454 16.3467 34.7712 16.6192L35.155 17.1187L34.7712 16.7554C34.297 16.3013 33.2132 15.4386 32.9649 15.3251C32.8068 15.2342 32.7842 15.2342 32.6713 15.3478C32.581 15.4386 32.5584 15.5748 32.5584 16.2332C32.5359 17.2549 32.4004 17.8906 32.0617 18.549C31.8811 18.8895 31.8585 18.8214 32.0166 18.4355C32.1294 18.1403 32.152 18.0041 32.152 17.0278C32.152 15.0526 31.9262 14.5758 30.5489 13.7812C30.2103 13.5769 29.6232 13.2817 29.2845 13.1228C28.9233 12.9639 28.6523 12.8276 28.6749 12.8276C28.7201 12.7822 30.0522 13.1682 30.5715 13.3952C31.3618 13.7131 31.4972 13.7358 31.5876 13.7131C31.6553 13.645 31.7004 13.4633 31.723 12.8957Z" fill="#FF007A"/>
<path d="M15.8277 16.2786C14.8794 14.9618 14.2698 12.9185 14.4053 11.3973L14.4504 10.9205L14.6762 10.9659C15.0826 11.0341 15.7826 11.3065 16.1213 11.5108C17.0244 12.0557 17.4308 12.8049 17.8147 14.6667C17.9276 15.2116 18.0856 15.8473 18.1533 16.0516C18.2662 16.3922 18.6952 17.1868 19.0565 17.6863C19.3049 18.0495 19.1468 18.2312 18.5823 18.1858C17.7243 18.0949 16.5728 17.3003 15.8277 16.2786Z" fill="#FF007A"/>
<path d="M30.5716 26.1548C26.101 24.3385 24.5205 22.772 24.5205 20.1156C24.5205 19.7297 24.5431 19.4118 24.5431 19.4118C24.5657 19.4118 24.7237 19.548 24.9269 19.707C25.8301 20.4335 26.8461 20.7513 29.6685 21.16C31.3167 21.4097 32.265 21.5914 33.123 21.8865C35.855 22.7947 37.5484 24.6564 37.9548 27.1765C38.0677 27.903 38 29.288 37.8194 30.0145C37.6613 30.5821 37.2098 31.6265 37.0969 31.6492C37.0743 31.6492 37.0291 31.5356 37.0291 31.354C36.984 30.4005 36.5098 29.4923 35.7196 28.7885C34.7712 27.9711 33.552 27.3581 30.5716 26.1548Z" fill="#FF007A"/>
<path d="M27.4105 26.904C27.3654 26.5635 27.2525 26.1321 27.1847 25.9505L27.0719 25.6099L27.2751 25.8597C27.5686 26.2002 27.7944 26.6089 27.9976 27.1765C28.1556 27.6079 28.1556 27.7441 28.1556 28.4479C28.1556 29.129 28.1331 29.2879 27.9976 29.6739C27.7718 30.2869 27.5009 30.7183 27.0493 31.1951C26.2364 32.0351 25.1752 32.4892 23.6625 32.6935C23.3915 32.7162 22.6238 32.7843 21.9465 32.8297C20.2531 32.9206 19.1241 33.1022 18.1081 33.4654C17.9726 33.5109 17.8372 33.5563 17.8146 33.5336C17.7694 33.4881 18.4694 33.0795 19.0338 32.807C19.8241 32.4211 20.6369 32.2167 22.4206 31.8989C23.3012 31.7627 24.2044 31.581 24.4301 31.4902C26.6654 30.7864 27.7718 29.0382 27.4105 26.904Z" fill="#FF007A"/>
<path d="M29.4652 30.5593C28.8781 29.2652 28.7427 28.0392 29.0588 26.8813C29.1039 26.7678 29.1491 26.6542 29.1942 26.6542C29.2394 26.6542 29.3749 26.7223 29.5104 26.8132C29.7813 26.9948 30.3458 27.3126 31.7908 28.1073C33.6197 29.1062 34.6583 29.8782 35.3808 30.7636C36.013 31.5356 36.3969 32.421 36.5775 33.5108C36.6904 34.1238 36.6226 35.5995 36.4646 36.2125C35.9679 38.1424 34.8389 39.6862 33.1907 40.5717C32.9423 40.7079 32.7391 40.7987 32.7165 40.7987C32.6939 40.7987 32.7843 40.5717 32.9197 40.2992C33.4616 39.1413 33.5294 38.0288 33.1229 36.7801C32.8746 36.0082 32.3553 35.0774 31.3166 33.5108C30.0748 31.6945 29.7813 31.2177 29.4652 30.5593Z" fill="#FF007A"/>
<path d="M12.6441 37.5067C14.3149 36.099 16.3696 35.1001 18.2662 34.7822C19.079 34.646 20.4337 34.6914 21.1788 34.8957C22.3755 35.2136 23.4593 35.8947 24.0238 36.7347C24.5656 37.5521 24.814 38.2559 25.0624 39.8225C25.1527 40.4355 25.2656 41.0712 25.2882 41.2074C25.4688 42.0247 25.83 42.6604 26.2816 43.001C26.9816 43.5232 28.2008 43.5459 29.3975 43.0918C29.6007 43.0237 29.7813 42.9556 29.7813 42.9783C29.8265 43.0237 29.2169 43.4324 28.8104 43.6367C28.246 43.9319 27.7944 44.0227 27.1848 44.0227C26.101 44.0227 25.1753 43.4551 24.4302 42.3199C24.2721 42.0928 23.956 41.4344 23.6851 40.8214C22.8948 38.9824 22.4884 38.4375 21.5627 37.8245C20.7498 37.3023 19.7112 37.1888 18.921 37.5748C17.8823 38.0743 17.6114 39.4138 18.3339 40.2311C18.6274 40.5717 19.1693 40.8441 19.6209 40.9122C20.4563 41.0258 21.1788 40.3674 21.1788 39.5273C21.1788 38.9824 20.9756 38.6646 20.4337 38.4148C19.7112 38.097 18.921 38.4602 18.9435 39.1641C18.9435 39.4592 19.079 39.6408 19.3725 39.7771C19.5532 39.8679 19.5532 39.8679 19.4177 39.8452C18.7629 39.7089 18.6049 38.8916 19.1242 38.3694C19.7564 37.7337 21.0885 38.0062 21.5401 38.8916C21.7207 39.2549 21.7433 39.9814 21.5852 40.4355C21.2014 41.4344 20.1176 41.9566 19.0113 41.6615C18.2662 41.4571 17.9501 41.2528 17.0469 40.3219C15.4664 38.6873 14.8568 38.3694 12.5989 38.0289L12.1699 37.9607L12.6441 37.5067Z" fill="#FF007A"/>
<path fill-rule="evenodd" clip-rule="evenodd" d="M0.767216 0.976264C6.02806 7.40144 14.1338 17.3911 14.5402 17.936C14.8789 18.3901 14.7434 18.8215 14.179 19.1393C13.8629 19.3209 13.2081 19.5026 12.892 19.5026C12.5307 19.5026 12.1017 19.3209 11.8082 19.0258C11.605 18.8215 10.7244 17.5273 8.73751 14.4169C7.22473 12.033 5.93774 10.0578 5.91517 10.0351C5.82485 9.98968 5.82485 9.98968 8.57946 14.9391C10.318 18.0495 10.8825 19.162 10.8825 19.2982C10.8825 19.5934 10.7922 19.7523 10.4309 20.161C9.82129 20.8421 9.55034 21.614 9.34713 23.226C9.12135 25.0196 8.51172 26.291 6.77316 28.4479C5.75711 29.7193 5.59906 29.9463 5.3507 30.4685C5.0346 31.1042 4.94428 31.4675 4.89912 32.2848C4.85397 33.1476 4.94428 33.6925 5.19265 34.5098C5.41843 35.2363 5.6668 35.7131 6.27643 36.644C6.79574 37.4613 7.11184 38.0743 7.11184 38.3013C7.11184 38.483 7.157 38.483 7.96983 38.3013C9.9116 37.8473 11.5147 37.0753 12.3953 36.1218C12.9372 35.5315 13.0726 35.2136 13.0726 34.3963C13.0726 33.8741 13.05 33.7606 12.9146 33.4427C12.6888 32.9432 12.2598 32.5346 11.3341 31.8989C10.1148 31.0588 9.5955 30.3777 9.46003 29.4696C9.34713 28.6976 9.4826 28.1754 10.16 26.7451C10.8599 25.2693 11.0405 24.6563 11.1534 23.1579C11.2212 22.2043 11.3341 21.8184 11.605 21.5232C11.8985 21.2054 12.1469 21.0918 12.8468 21.001C13.9984 20.8421 14.7434 20.547 15.3305 19.9794C15.8498 19.5026 16.0756 19.0258 16.0982 18.322L16.1208 17.7998L15.8272 17.4819C14.766 16.2559 0.0672757 0 -0.000460531 0C-0.0230393 0 0.33822 0.431373 0.767216 0.976264ZM7.69888 33.2611C7.94725 32.8297 7.81178 32.2848 7.40536 32.0124C7.02152 31.7626 6.43448 31.8762 6.43448 32.2167C6.43448 32.3075 6.47963 32.3983 6.61511 32.4438C6.81831 32.5573 6.84089 32.6708 6.68284 32.9205C6.52479 33.1703 6.52479 33.3973 6.728 33.5562C7.0441 33.806 7.4731 33.6698 7.69888 33.2611Z" fill="#FF007A"/>
<path fill-rule="evenodd" clip-rule="evenodd" d="M16.8439 21.3189C16.302 21.4779 15.7827 22.0682 15.6246 22.6584C15.5343 23.0217 15.5795 23.6801 15.7375 23.8845C15.9859 24.2023 16.2117 24.2931 16.8439 24.2931C18.0857 24.2931 19.1469 23.7482 19.2598 23.0898C19.3727 22.5449 18.8986 21.7957 18.2438 21.4551C17.9051 21.2735 17.2052 21.2054 16.8439 21.3189ZM18.2889 22.4541C18.4696 22.1817 18.4018 21.8865 18.0631 21.6822C17.4535 21.2962 16.5278 21.6141 16.5278 22.2044C16.5278 22.4995 17.0019 22.8174 17.4535 22.8174C17.747 22.8174 18.1535 22.6357 18.2889 22.4541Z" fill="#FF007A"/>
</g>
<defs>
<clipPath id="clip0">
<rect width="38" height="44" fill="white"/>
</clipPath>
</defs>
</svg>
