<svg width="18" height="14" viewBox="0 0 18 14" fill="none" xmlns="http://www.w3.org/2000/svg">
<path d="M2.25973 1H13.5973C14.2901 1 14.857 1.56688 14.857 2.25973V9.18824C14.857 9.88109 14.2901 10.448 13.5973 10.448H2.25973C1.56688 10.448 1 9.88109 1 9.18824V2.25973C1 1.56688 1.56688 1 2.25973 1Z" stroke="white" stroke-linecap="round" stroke-linejoin="round"/>
<path d="M14.8569 4.14948H16.1166C16.8094 4.14948 17.3763 4.71635 17.3763 5.4092V11.7079C17.3763 12.4007 16.8094 12.9676 16.1166 12.9676H4.77902C4.08617 12.9676 3.51929 12.4007 3.51929 11.7079V10.4481" stroke="white" stroke-linecap="round" stroke-linejoin="round"/>
<path d="M1 3.51962H14.857" stroke="white" stroke-linecap="round" stroke-linejoin="round"/>
<path d="M3.51929 7.92865H5.40888" stroke="white" stroke-linecap="round" stroke-linejoin="round"/>
<path d="M10.4481 7.92865V8.55851" stroke="white" stroke-linecap="round" stroke-linejoin="round"/>
<path d="M12.3375 7.92865V8.55851" stroke="white" stroke-linecap="round" stroke-linejoin="round"/>
</svg>
