<svg width="16" height="16" viewBox="0 0 16 16" fill="none" xmlns="http://www.w3.org/2000/svg">
<g clip-path="url(#clip0)">
<path d="M5.46376 3.01386L5.71364 2.58078C5.71587 2.58206 5.71742 2.58259 5.7184 2.58285C5.71946 2.58313 5.7206 2.58329 5.7219 2.58329C5.725 2.58329 5.72843 2.5824 5.73123 2.58082C5.73248 2.58012 5.73345 2.57936 5.73424 2.57858C5.73497 2.57787 5.73598 2.57671 5.73716 2.57467L5.73717 2.57465L6.45007 1.34045L5.46376 3.01386ZM5.46376 3.01386C5.54526 3.06088 5.63413 3.08329 5.7219 3.08329C5.90055 3.08329 6.07437 2.99055 6.17014 2.82473L5.46376 3.01386ZM5.46376 3.01386L5.71385 2.5809C5.70565 2.57616 5.70285 2.56571 5.70759 2.55751L5.7077 2.55733L5.81015 2.37979L6.42856 1.30818M5.46376 3.01386L6.42856 1.30818M6.42856 1.30818L6.44388 1.31703L6.44389 1.31703C6.44777 1.31927 6.45066 1.32296 6.45188 1.32751L6.45189 1.32758C6.45297 1.33159 6.4525 1.33622 6.4501 1.3404L6.42856 1.30818ZM6.33319 1.2531L5.2073 1.65958C2.85943 2.50724 1.0853 4.5637 0.641898 7.07855L6.33319 1.2531ZM6.33319 1.2531L5.20941 0.6041C5.20102 0.599259 5.19064 0.602129 5.18591 0.61025C5.18113 0.618528 5.18404 0.628954 5.1921 0.633611L5.19219 0.63366L5.32098 0.708055L6.25997 1.25044L5.23777 1.61235C2.85692 2.45529 1.0558 4.53391 0.608263 7.07264L0.608245 7.07274C0.391516 8.3007 0.502009 9.56595 0.92708 10.7312L0.457615 10.9025L0.927082 10.7312C0.928015 10.7338 0.928941 10.7352 0.929624 10.7361C0.930406 10.7371 0.931495 10.7381 0.933017 10.7392C0.936457 10.7416 0.940305 10.7426 0.943235 10.7426C0.944468 10.7426 0.946322 10.7424 0.948988 10.7414L6.33319 1.2531ZM0.959276 10.7195L0.95926 10.7195C0.535831 9.55888 0.426343 8.30016 0.641884 7.07863L0.959276 10.7195ZM0.959276 10.7195C0.962461 10.7283 0.958033 10.7381 0.949001 10.7414L0.959276 10.7195Z" stroke="white"/>
<path d="M13.0298 12.842L13.0298 12.8419C13.0224 12.8358 13.0117 12.8368 13.0057 12.844L13.0057 12.844C11.3867 14.7699 8.84532 15.6953 6.36956 15.2584C5.16777 15.0464 4.04711 14.5254 3.11473 13.7603L2.1559 12.9735L2.1554 14.2817V14.2818C2.15539 14.2911 2.16297 14.2988 2.17251 14.2989L13.0298 12.842ZM13.0298 12.842C13.0323 12.8441 13.0334 12.8457 13.034 12.847C13.0349 12.8486 13.0356 12.8509 13.0358 12.8536C13.0361 12.8562 13.0357 12.8586 13.0352 12.8603C13.0348 12.8617 13.034 12.8635 13.0319 12.8659L13.0319 12.866C11.6723 14.4834 9.66229 15.399 7.58639 15.399C7.17983 15.399 6.77087 15.3639 6.36366 15.292L6.36362 15.292C5.12247 15.0732 3.96575 14.526 3.01251 13.7201L2.1901 13.0247L2.18969 14.1017L2.18962 14.2817L13.0298 12.842ZM1.65864 12.8036H1.6685H1.67247H2.1306H2.1307H2.15864V12.8037V12.8037V12.8037V12.8037V12.8037V12.8037V12.8037V12.8037V12.8037V12.8037V12.8037V12.8037V12.8037V12.8037V12.8037V12.8037V12.8037V12.8037V12.8037V12.8037V12.8037V12.8037V12.8037V12.8037V12.8037V12.8037V12.8037V12.8037V12.8037V12.8037V12.8037V12.8037V12.8037V12.8037V12.8037V12.8037V12.8037V12.8037V12.8037V12.8037V12.8037V12.8037V12.8037V12.8037V12.8037V12.8037V12.8037V12.8037V12.8037V12.8037V12.8037V12.8037V12.8037V12.8037V12.8037V12.8037V12.8037V12.8037V12.8037V12.8037V12.8037V12.8037V12.8037V12.8037V12.8037V12.8037V12.8037V12.8037V12.8037V12.8037V12.8037V12.8037V12.8037V12.8037V12.8037V12.8037V12.8037V12.8037V12.8037V12.8037V12.8037V12.8037V12.8037V12.8037V12.8037V12.8037V12.8037V12.8037V12.8037V12.8037V12.8037V12.8037V12.8037V12.8037V12.8037V12.8037V12.8037V12.8037V12.8037V12.8037V12.8037V12.8037V12.8037V12.8037V12.8037V12.8037V12.8037V12.8037V12.8037V12.8037V12.8037V12.8037V12.8037V12.8037V12.8037V12.8037V12.8037V12.8037V12.8037V12.8037V12.8037V12.8037V12.8037V12.8037V12.8038V12.8038V12.8038V12.8038V12.8038V12.8038V12.8038V12.8038V12.8038V12.8038V12.8038V12.8038V12.8038V12.8038V12.8038V12.8038V12.8038V12.8038V12.8038V12.8038V12.8038V12.8038V12.8038V12.8038V12.8038V12.8038V12.8038V12.8038V12.8038V12.8038V12.8038V12.8038V12.8038V12.8038V12.8038V12.8038V12.8038V12.8038V12.8038V12.8038V12.8038V12.8038V12.8038V12.8038V12.8038V12.8038V12.8038V12.8038V12.8038V12.8038V12.8038V12.8038V12.8038V12.8038V12.8038V12.8038V12.8038V12.8038V12.8038V12.8038V12.8038V12.8038V12.8038V12.8038V12.8038V12.8038V12.8038V12.8038V12.8038V12.8038V12.8038V12.8038V12.8038V12.8038V12.8038V12.8038V12.8038V12.8038V12.8038V12.8038V12.8038V12.8038V12.8038V12.8038V12.8038V12.8038V12.8038V12.8038V12.8038V12.8038V12.8038V12.8038V12.8038V12.8038V12.8038V12.8038V12.8038V12.8038V12.8038V12.8038V12.8038V12.8038V12.8038V12.8038V12.8038V12.8038V12.8038V12.8038V12.8038V12.8038V12.8038V12.8038V12.8038V12.8038V12.8038V12.8038V12.8038V12.8038V12.8038V12.8038V12.8038V12.8038V12.8038V12.8038V12.8039V12.8039V12.8039V12.8039V12.8039V12.8039V12.8039V12.8039V12.8039V12.8039V12.8039V12.8039V12.8039V12.8039V12.8039V12.8039V12.8039V12.8039V12.8039V12.8039V12.8039V12.8039V12.8039V12.8039V12.8039V12.8039V12.8039V12.8039V12.8039V12.8039V12.8039V12.8039V12.8039V12.8039V12.8039V12.8039V12.8039V12.8039V12.8039V12.8039V12.8039V12.8039V12.8039V12.8039V12.8039V12.8039V12.8039V12.8039V12.8039V12.8039V12.8039V12.8039V12.8039V12.8039V12.8039V12.8039V12.8039V12.8039V12.8039V12.8039V12.8039V12.8039V12.8039V12.8039V12.8039V12.8039V12.8039V12.8039V12.8039V12.8039V12.8039V12.8039V12.8039V12.8039V12.8039V12.8039V12.8039V12.8039V12.8039V12.8039V12.8039V12.8039V12.8039V12.8039V12.8039V12.8039V12.8039V12.8039V12.8039V12.8039V12.8039V12.8039V12.8039V12.8039V12.8039V12.8039V12.8039V12.8039V12.8039V12.8039V12.8039V12.8039V12.8039V12.8039V12.8039V12.8039V12.8039V12.8039V12.8039V12.8039V12.8039V12.8039V12.8039V12.8039V12.8039V12.8039V12.8039V12.8039V12.8039V12.8039V12.8039V12.8039V12.8039V12.8039V12.804V12.804V12.804V12.804V12.804V12.804V12.804V12.804V12.804V12.804V12.804V12.804V12.804V12.804V12.804V12.804V12.804V12.804V12.804V12.804V12.804V12.804V12.804V12.804V12.804V12.804V12.804V12.804V12.804V12.804V12.804V12.804V12.804V12.804V12.804V12.804V12.804V12.804V12.804V12.804V12.804V12.804V12.804V12.804V12.804V12.804V12.804V12.804V12.804V12.804V12.804V12.804V12.804V12.804V12.804V12.804V12.804V12.804V12.804V12.804V12.804V12.804V12.804V12.804V12.804V12.804V12.804V12.804V12.804V12.804V12.804V12.804V12.804V12.804V12.804V12.804V12.804V12.804V12.804V12.804V12.804V12.804V12.804V12.804V12.804V12.804V12.804V12.804V12.804V12.804V12.804V12.804V12.804V12.804V12.804V12.804V12.804V12.804V12.804V12.804V12.804V12.804V12.804V12.804V12.804V12.804V12.804V12.804V12.804V12.804V12.804V12.804V12.804V12.804V12.804V12.804V12.804V12.804V12.804V12.804V12.804V12.804V12.804V12.804V12.8041V12.8041V12.8041V12.8041V12.8041V12.8041V12.8041V12.8041V12.8041V12.8041V12.8041V12.8041V12.8041V12.8041V12.8041V12.8041V12.8284L2.15789 12.8361L2.15788 12.8362L2.15627 12.8526L2.15627 12.8527L2.15634 12.8533L2.15626 12.8618L2.15619 12.8618C2.15612 12.8644 2.15603 12.8669 2.15594 12.8692L2.15594 12.8738H3.43192H3.59829C3.60776 12.8738 3.6154 12.8662 3.6154 12.8567C3.6154 12.8472 3.60776 12.8396 3.59829 12.8396H2.2216H2.19804L2.17458 12.8373C2.17174 12.8371 2.16934 12.8374 2.1676 12.8379C2.16623 12.8384 2.16453 12.8391 2.16211 12.8411L2.16205 12.8412C2.15979 12.843 2.15886 12.8445 2.15823 12.8457C2.15744 12.8472 2.15661 12.8495 2.1563 12.8526L2.15623 12.8533L2.15592 12.8564L2.1559 12.8566L2.15537 12.8618L2.15527 12.8628L2.15382 12.873L2.1537 12.8738L1.8408 12.458C1.73324 12.5482 1.67194 12.6729 1.65884 12.8023L1.65864 12.8036ZM1.65864 12.8036V12.8041L2.04549 12.8589L2.02887 12.8565L2.02786 12.8564L1.99581 12.8518L1.66779 12.805L1.66153 12.8041L1.65864 12.8036ZM2.18962 14.2818C2.18959 14.2913 2.18192 14.2989 2.17254 14.2989L2.18962 14.2818Z" stroke="white"/>
<path d="M14.1145 11.2952L14.2439 10.8122C14.2395 10.811 14.2358 10.8082 14.2335 10.8042L13.5209 9.56956C13.5161 9.56119 13.5191 9.55077 13.5271 9.54614L13.5272 9.54605C13.53 9.54444 13.5319 9.544 13.5333 9.54383C13.5351 9.5436 13.5375 9.54368 13.5401 9.54439C13.5427 9.54509 13.5448 9.5462 13.5463 9.54733C13.5475 9.54823 13.5489 9.54959 13.5506 9.55245L13.5506 9.5525L13.6264 9.68371L14.2721 10.8018L14.2569 10.8105L14.2569 10.8105C14.2543 10.8121 14.2513 10.8128 14.2484 10.8128C14.2472 10.8128 14.2457 10.8127 14.2438 10.8122L14.1145 11.2952ZM14.1145 11.2952C14.1586 11.307 14.2035 11.3128 14.2484 11.3128C14.3383 11.3128 14.4276 11.2893 14.5069 11.2435L13.8005 11.0542C13.8691 11.173 13.982 11.2597 14.1145 11.2952ZM15.4977 10.0742L15.4978 10.0743C15.5025 10.0825 15.4997 10.093 15.4914 10.0978L14.3344 10.7658L14.5519 9.51965C14.8754 7.66669 14.4593 5.79554 13.3802 4.25443C12.2989 2.71014 10.6786 1.67807 8.82216 1.351C8.81292 1.34937 8.80669 1.34049 8.80833 1.33119L8.80837 1.33095C8.80994 1.322 8.81863 1.31559 8.82822 1.31727C10.6955 1.64626 12.3205 2.68144 13.4081 4.23471C14.4958 5.78801 14.9129 7.66925 14.5836 9.53694L14.5835 9.53749C14.5802 9.55646 14.5783 9.56552 14.5755 9.57829C14.5729 9.59072 14.5695 9.60668 14.5633 9.63874L14.3565 10.7133L15.3043 10.1663L15.4744 10.0681L15.4745 10.068C15.4772 10.0664 15.4791 10.066 15.4806 10.0658C15.4824 10.0656 15.4848 10.0657 15.4874 10.0664C15.49 10.0671 15.4921 10.0682 15.4936 10.0693C15.4947 10.0701 15.4961 10.0714 15.4977 10.0742Z" stroke="white"/>
</g>
<defs>
<clipPath id="clip0">
<rect width="16" height="16" fill="white"/>
</clipPath>
</defs>
</svg>
