<svg width="16" height="16" viewBox="0 0 16 16" fill="none" xmlns="http://www.w3.org/2000/svg">
<mask id="path-1-inside-1" fill="white">
<path d="M8 0C3.57861 0 0 3.578 0 8C0 12.4214 3.578 16 8 16C12.4213 16 16 12.4219 16 8C16 3.57861 12.422 0 8 0ZM8 15.0297C4.1239 15.0297 0.970337 11.8761 0.970337 8C0.970337 4.12378 4.1239 0.970337 8 0.970337C11.8761 0.970337 15.0297 4.12378 15.0297 8C15.0297 11.8761 11.8761 15.0297 8 15.0297Z"/>
</mask>
<path d="M8 -1C3.02638 -1 -1 3.02567 -1 8H1C1 4.13034 4.13085 1 8 1V-1ZM-1 8C-1 12.9736 3.02567 17 8 17V15C4.13034 15 1 11.8692 1 8H-1ZM8 17C12.9735 17 17 12.9742 17 8H15C15 11.8695 11.869 15 8 15V17ZM17 8C17 3.02638 12.9743 -1 8 -1V1C11.8697 1 15 4.13085 15 8H17ZM8 14.0297C4.67619 14.0297 1.97034 11.3238 1.97034 8H-0.0296631C-0.0296631 12.4284 3.57162 16.0297 8 16.0297V14.0297ZM1.97034 8C1.97034 4.67608 4.67617 1.97034 8 1.97034V-0.0296631C3.57163 -0.0296631 -0.0296631 3.57148 -0.0296631 8H1.97034ZM8 1.97034C11.3238 1.97034 14.0297 4.67608 14.0297 8H16.0297C16.0297 3.57148 12.4284 -0.0296631 8 -0.0296631V1.97034ZM14.0297 8C14.0297 11.3238 11.3238 14.0297 8 14.0297V16.0297C12.4284 16.0297 16.0297 12.4284 16.0297 8H14.0297Z" fill="white" mask="url(#path-1-inside-1)"/>
<mask id="path-3-inside-2" fill="white">
<path d="M13.664 8.80465C13.4028 8.74483 13.1425 8.90804 13.0827 9.16927C12.5371 11.5507 10.447 13.214 8.00008 13.214C5.55318 13.214 3.4631 11.5506 2.91744 9.16927C2.85751 8.90804 2.5975 8.74483 2.33614 8.80465C2.07491 8.86446 1.9117 9.12472 1.97152 9.38595C2.60653 12.1569 5.0881 14.1843 8.00008 14.1843C10.9116 14.1843 13.3935 12.1572 14.0285 9.38595C14.0885 9.12472 13.9253 8.86459 13.664 8.80465Z"/>
</mask>
<path d="M13.664 8.80465L13.8877 7.82997L13.8872 7.82988L13.664 8.80465ZM13.0827 9.16927L14.0575 9.39261L14.0575 9.39247L13.0827 9.16927ZM2.91744 9.16927L3.89218 8.94592L3.89212 8.94564L2.91744 9.16927ZM2.33614 8.80465L2.11305 7.82985L2.11295 7.82988L2.33614 8.80465ZM1.97152 9.38595L0.996745 9.60914L0.996786 9.60932L1.97152 9.38595ZM14.0285 9.38595L13.0539 9.16232L13.0538 9.16259L14.0285 9.38595ZM13.8872 7.82988C13.0879 7.64684 12.2911 8.14628 12.108 8.94608L14.0575 9.39247C13.994 9.66981 13.7177 9.84283 13.4408 9.77942L13.8872 7.82988ZM12.108 8.94594C11.6667 10.8719 9.9818 12.214 8.00008 12.214V14.214C10.9122 14.214 13.4074 12.2296 14.0575 9.39261L12.108 8.94594ZM8.00008 12.214C6.01839 12.214 4.33347 10.8718 3.89218 8.94592L1.9427 9.39262C2.59272 12.2294 5.08798 14.214 8.00008 14.214V12.214ZM3.89212 8.94564C3.7088 8.14666 2.91289 7.6468 2.11305 7.82985L2.55924 9.77945C2.2821 9.84287 2.00621 9.66942 1.94277 9.3929L3.89212 8.94564ZM2.11295 7.82988C1.31315 8.01301 0.813713 8.80978 0.996745 9.60914L2.94629 9.16275C3.0097 9.43966 2.83668 9.71592 2.55934 9.77942L2.11295 7.82988ZM0.996786 9.60932C1.7347 12.8294 4.61636 15.1843 8.00008 15.1843V13.1843C5.55983 13.1843 3.47835 11.4845 2.94625 9.16257L0.996786 9.60932ZM8.00008 15.1843C11.3833 15.1843 14.2653 12.8297 15.0033 9.6093L13.0538 9.16259C12.5217 11.4847 10.4399 13.1843 8.00008 13.1843V15.1843ZM15.0032 9.60958C15.1868 8.80952 14.6867 8.0133 13.8877 7.82997L13.4404 9.77932C13.1639 9.71587 12.9902 9.43991 13.0539 9.16232L15.0032 9.60958Z" fill="white" mask="url(#path-3-inside-2)"/>
<mask id="path-5-inside-3" fill="white">
<path d="M2.44493 7.20761C2.66612 7.20761 2.86595 7.05539 2.91746 6.83066C3.46324 4.44919 5.55321 2.78598 8.00011 2.78598C10.447 2.78598 12.5371 4.44931 13.0827 6.83066C13.1427 7.09189 13.4031 7.2551 13.664 7.19528C13.9253 7.13547 14.0885 6.87521 14.0287 6.61398C13.3938 3.84335 10.9125 1.81564 8.00011 1.81564C5.08861 1.81564 2.60667 3.84262 1.97166 6.61398C1.90184 6.91818 2.13353 7.20761 2.44493 7.20761Z"/>
</mask>
<path d="M2.91746 6.83066L3.89218 7.05409L3.89219 7.05404L2.91746 6.83066ZM13.0827 6.83066L12.108 7.05401L12.1081 7.05429L13.0827 6.83066ZM13.664 7.19528L13.4409 6.22051L13.4407 6.22055L13.664 7.19528ZM14.0287 6.61398L15.0034 6.39079L15.0034 6.39062L14.0287 6.61398ZM1.97166 6.61398L2.94632 6.8377L2.9464 6.83733L1.97166 6.61398ZM2.44493 8.20761C3.12215 8.20761 3.73425 7.74308 3.89218 7.05409L1.94274 6.60723C1.99765 6.3677 2.21009 6.20761 2.44493 6.20761V8.20761ZM3.89219 7.05404C4.3336 5.12799 6.01843 3.78598 8.00011 3.78598V1.78598C5.08799 1.78598 2.59288 3.77039 1.94273 6.60727L3.89219 7.05404ZM8.00011 3.78598C9.9818 3.78598 11.6667 5.12812 12.108 7.05401L14.0575 6.60731C13.4075 3.7705 10.9122 1.78598 8.00011 1.78598V3.78598ZM12.1081 7.05429C12.2914 7.85347 13.088 8.35324 13.8874 8.17001L13.4407 6.22055C13.7182 6.15695 13.9939 6.33031 14.0574 6.60703L12.1081 7.05429ZM13.8872 8.17006C14.687 7.98692 15.1865 7.19015 15.0034 6.39079L13.0539 6.83718C12.9905 6.56027 13.1635 6.28401 13.4409 6.22051L13.8872 8.17006ZM15.0034 6.39062C14.2656 3.17099 11.3843 0.815643 8.00011 0.815643V2.81564C10.4407 2.81564 12.5219 4.51572 13.0539 6.83734L15.0034 6.39062ZM8.00011 0.815643C4.61695 0.815643 1.73485 3.17012 0.996924 6.39064L2.9464 6.83733C3.4785 4.51513 5.56026 2.81564 8.00011 2.81564V0.815643ZM0.997009 6.39027C0.782884 7.32313 1.49334 8.20761 2.44493 8.20761V6.20761C2.77372 6.20761 3.02079 6.51323 2.94632 6.8377L0.997009 6.39027Z" fill="white" mask="url(#path-5-inside-3)"/>
<path d="M9.1144 7.70733L8.96951 7.91484L9.18569 8.05213C9.06225 8.0087 8.92952 7.98508 8.79132 7.98508H8.79017H8.78899H8.78779H8.78656H8.7853H8.78402H8.78271H8.78137H8.78001H8.77862H8.77721H8.77576H8.7743H8.77281H8.77129H8.76974H8.76818H8.76658H8.76496H8.76332H8.76165H8.75995H8.75824H8.75649H8.75472H8.75293H8.75111H8.74927H8.74741H8.74552H8.7436H8.74167H8.73971H8.73772H8.73571H8.73368H8.73163H8.72955H8.72745H8.72532H8.72318H8.72101H8.71881H8.7166H8.71436H8.7121H8.70982H8.70751H8.70519H8.70284H8.70047H8.69807H8.69566H8.69322H8.69077H8.68829H8.68579H8.68327H8.68073H8.67816H8.67558H8.67298H8.67035H8.66771H8.66504H8.66235H8.65965H8.65692H8.65417H8.65141H8.64862H8.64582H8.64299H8.64014H8.63728H8.6344H8.63149H8.62857H8.62563H8.62267H8.61969H8.61669H8.61368H8.61064H8.60759H8.60452H8.60143H8.59832H8.5952H8.59206H8.5889H8.58572H8.58252H8.5815C8.78341 7.93908 8.9659 7.84166 9.1144 7.70733Z" stroke="white"/>
</svg>
