<svg width="37" height="37" viewBox="0 0 37 37" fill="none" xmlns="http://www.w3.org/2000/svg">
<g clip-path="url(#clip0)">
<path d="M36.4153 23.0023C33.9444 32.9132 23.9064 38.9447 13.9944 36.4732C4.08658 34.0024 -1.94495 23.9637 0.526948 14.0538C2.99667 4.14185 13.0347 -1.89013 22.9436 0.580683C32.8549 3.05149 38.8861 13.0913 36.415 23.0025L36.4152 23.0023H36.4153Z" fill="#F7931A"/>
<path d="M26.651 15.8597C27.0192 13.3978 25.1449 12.0744 22.5818 11.1916L23.4133 7.85666L21.3832 7.35081L20.5738 10.5979C20.0401 10.4648 19.492 10.3394 18.9473 10.2151L19.7626 6.94652L17.7338 6.44067L16.9019 9.77451C16.4602 9.67396 16.0265 9.57458 15.6056 9.46986L15.608 9.45937L12.8084 8.76029L12.2684 10.9285C12.2684 10.9285 13.7746 11.2738 13.7428 11.295C14.5649 11.5002 14.7136 12.0444 14.6889 12.4757L13.7417 16.275C13.7983 16.2894 13.8718 16.3102 13.9528 16.3427C13.8851 16.3259 13.813 16.3075 13.7382 16.2896L12.4107 21.6119C12.3102 21.8616 12.0552 22.2364 11.4804 22.0941C11.5008 22.1236 10.005 21.7259 10.005 21.7259L8.99707 24.0497L11.6389 24.7082C12.1303 24.8315 12.612 24.9604 13.0862 25.0817L12.2462 28.4549L14.2739 28.9607L15.1058 25.6233C15.6598 25.7737 16.1974 25.9124 16.7236 26.0432L15.8945 29.3648L17.9247 29.8707L18.7647 26.5038C22.2264 27.159 24.8293 26.8948 25.9249 23.7637C26.8077 21.2428 25.8809 19.7888 24.0597 18.8406C25.3862 18.5346 26.3853 17.6622 26.6517 15.86L26.6511 15.8596L26.651 15.8597ZM22.0128 22.3637C21.3854 24.8847 17.141 23.5219 15.7648 23.1802L16.8796 18.7113C18.2556 19.0549 22.6684 19.7347 22.0129 22.3637H22.0128ZM22.6406 15.8232C22.0683 18.1162 18.5356 16.9513 17.3896 16.6656L18.4003 12.6126C19.5463 12.8983 23.2368 13.4314 22.6408 15.8232H22.6406Z" fill="white"/>
</g>
<defs>
<clipPath id="clip0">
<rect width="37" height="37" fill="white"/>
</clipPath>
</defs>
</svg>
