<svg width="37" height="37" viewBox="0 0 37 37" fill="none" xmlns="http://www.w3.org/2000/svg">
<path d="M18.5 37C28.7521 37 37 28.7521 37 18.5C37 8.24786 28.7521 0 18.5 0C8.24786 0 0 8.24786 0 18.5C0 28.7521 8.24786 37 18.5 37Z" fill="#2775CA"/>
<path d="M23.5876 21.429C23.5876 18.7312 21.9689 17.8062 18.7314 17.4208C16.4189 17.1124 15.9564 16.4958 15.9564 15.4166C15.9564 14.3373 16.7273 13.6437 18.2689 13.6437C19.6564 13.6437 20.4273 14.1062 20.8126 15.2624C20.8898 15.4937 21.121 15.6478 21.3523 15.6478H22.5855C22.8939 15.6478 23.1251 15.4165 23.1251 15.1083V15.0312C22.8168 13.3353 21.4293 12.0249 19.6564 11.8708V10.0208C19.6564 9.71245 19.4251 9.4812 19.0398 9.40405H17.8835C17.5751 9.40405 17.3439 9.6353 17.2668 10.0208V11.7937C14.9543 12.1021 13.4898 13.6437 13.4898 15.5708C13.4898 18.1146 15.0314 19.1165 18.2689 19.5021C20.4273 19.8874 21.121 20.3499 21.121 21.5833C21.121 22.8167 20.0418 23.6646 18.5773 23.6646C16.573 23.6646 15.8793 22.8165 15.648 21.6603C15.571 21.3521 15.3398 21.1978 15.1085 21.1978H13.798C13.4898 21.1978 13.2585 21.429 13.2585 21.7374V21.8146C13.5668 23.7415 14.8001 25.129 17.3439 25.5146V27.3646C17.3439 27.6728 17.5751 27.904 17.9605 27.9812H19.1168C19.4251 27.9812 19.6564 27.7499 19.7335 27.3646V25.5146C22.046 25.129 23.5876 23.5103 23.5876 21.429Z" fill="white"/>
<path d="M14.5688 29.5228C8.55629 27.3646 5.47289 20.6584 7.70843 14.7228C8.86468 11.4853 11.4084 9.01873 14.5688 7.86248C14.8772 7.70837 15.0313 7.47712 15.0313 7.09158V6.01248C15.0313 5.70408 14.8772 5.47283 14.5688 5.39587C14.4916 5.39587 14.3375 5.39587 14.2604 5.47283C6.93754 7.78533 2.92914 15.5709 5.24164 22.8937C6.62914 27.2103 9.94379 30.525 14.2604 31.9125C14.5688 32.0666 14.8772 31.9125 14.9541 31.6041C15.0313 31.5271 15.0313 31.45 15.0313 31.2959V30.2166C15.0313 29.9853 14.8 29.6771 14.5688 29.5228ZM22.7397 5.47283C22.4313 5.31873 22.1229 5.47283 22.0459 5.78123C21.9688 5.85837 21.9688 5.93533 21.9688 6.08962V7.16873C21.9688 7.47712 22.2 7.78533 22.4313 7.93962C28.4438 10.0978 31.5272 16.8041 29.2916 22.7396C28.1354 25.9771 25.5916 28.4437 22.4313 29.6C22.1229 29.7541 21.9688 29.9853 21.9688 30.3709V31.45C21.9688 31.7584 22.1229 31.9896 22.4313 32.0666C22.5084 32.0666 22.6625 32.0666 22.7397 31.9896C30.0625 29.6771 34.0709 21.8916 31.7584 14.5687C30.3709 10.175 26.9791 6.86033 22.7397 5.47283Z" fill="white"/>
</svg>
