<svg width="37" height="30" viewBox="0 0 37 30" fill="none" xmlns="http://www.w3.org/2000/svg">
<path d="M31.58 0H36.9277L25.7988 10.7887C21.7685 14.6936 15.2343 14.6936 11.2011 10.7887L0.0678711 0H5.41986L13.8749 8.19552C15.1068 9.38427 16.767 10.0507 18.4967 10.0507C20.2263 10.0507 21.8865 9.38427 23.1184 8.19552L31.58 0Z" fill="#23292F"/>
<path d="M5.35127 30H0L11.2012 19.1448C15.2314 15.2398 21.7657 15.2398 25.7988 19.1448L37 30H31.6523L23.125 21.7379C21.8931 20.5492 20.2329 19.8828 18.5033 19.8828C16.7736 19.8828 15.1134 20.5492 13.8815 21.7379L5.35127 30Z" fill="#23292F"/>
</svg>
