<svg width="163" height="166" viewBox="0 0 163 166" fill="none" xmlns="http://www.w3.org/2000/svg">
<path d="M75.4906 108.095C61.5805 104.849 52.8491 90.8036 56.0946 76.8935C59.3401 62.9834 73.3859 54.2519 87.296 57.4974C101.206 60.7429 109.938 74.7888 106.692 88.6989C103.447 102.609 89.4007 111.34 75.4906 108.095ZM130.05 101.097C130.838 99.0767 131.453 96.9074 131.991 94.6016C132.511 92.3707 132.937 90.0783 133.06 87.9027L149.933 80.098C151.41 79.4046 152.219 77.5871 151.776 76.0112L143.711 49.5387C143.234 47.7672 141.584 46.878 139.935 46.9974L121.547 49.853C118.656 46.3615 115.456 43.2133 111.705 40.5689L113.345 22.143C113.455 20.3599 112.332 18.8624 110.644 18.4687L83.6304 12.1658C81.9432 11.7721 80.3482 12.6354 79.6574 14.283L72.9741 31.5322C68.4396 32.2434 64.0873 33.6988 60.0393 35.502L44.814 24.8037C43.4036 23.9014 41.5146 24.0339 40.3035 25.4118L21.4303 45.5988C20.2433 46.8736 20.1074 48.7692 21.2744 50.0793L32.9519 64.5457C32.0987 66.5506 31.3076 68.7974 30.7958 70.9908C30.2841 73.1842 29.8492 75.5141 29.727 77.6896L12.8532 85.4944C11.3769 86.1877 10.5674 88.0052 11.0102 89.5812L19.076 116.054C19.5522 117.825 21.2028 118.714 22.8516 118.595L41.2392 115.739C44.131 119.231 47.3301 122.379 51.0817 125.024L49.4413 143.449C49.4066 145.25 50.4549 146.73 52.1421 147.124L79.1562 153.427C80.8434 153.82 82.5134 152.974 83.1292 151.309L89.8125 134.06C94.347 133.349 98.684 131.959 102.747 130.09L117.973 140.789C119.383 141.691 121.272 141.558 122.483 140.181L141.431 120.011C142.634 118.671 142.679 116.823 141.587 115.531L130.05 101.097Z" fill="white"/>
</svg>
